<?xml version="1.0" standalone="no"?>
<!DOCTYPE svg PUBLIC "-//W3C//DTD SVG 1.1//EN" "http://www.w3.org/Graphics/SVG/1.1/DTD/svg11.dtd" >
<svg>
<metadata>
Created by FontForge 20090622 at Thu Oct 15 20:32:46 2015
 By deploy user
Typeface &#194;&#169; (your company). 2013. All Rights Reserved
</metadata>
<defs>
<font id="VTKSINKED" horiz-adv-x="1014" >
  <font-face 
    font-family="VTKS INKED"
    font-weight="400"
    font-stretch="normal"
    units-per-em="2048"
    panose-1="2 0 5 0 0 0 0 0 0 0"
    ascent="1638"
    descent="-410"
    x-height="1317"
    cap-height="1326"
    bbox="-342 -418 1967 1716"
    underline-thickness="150"
    underline-position="-142"
    unicode-range="U+0020-U+F002"
  />
<missing-glyph horiz-adv-x="1024" 
d="M100 0v1434h824v-1434h-824zM150 50h724v1334h-724v-1334zM325 1148q43 39 83.5 56t86.5 17t83.5 -12.5t64.5 -35t41.5 -55t14.5 -72.5q0 -26 -5 -49.5t-17.5 -49.5t-33.5 -57t-54 -72l-57 -72t-42 -60t-26.5 -52t-9.5 -47q0 -39 24 -133h-32q-35 99 -35 148q0 75 81 218
q41 72 61.5 125.5t20.5 91.5q0 57 -33 90t-91 33q-35 0 -63.5 -14.5t-61.5 -42.5v45zM389 334l57 58q10 10 20 10q9 0 22 -11l56 -60q9 -11 9 -20q0 -12 -10 -22l-56 -62q-13 -14 -21 -14q-11 0 -20 10l-61 71q-7 8 -7 18q0 9 11 22z" />
    <glyph glyph-name=".notdef" horiz-adv-x="1024" 
d="M100 0v1434h824v-1434h-824zM150 50h724v1334h-724v-1334zM325 1148q43 39 83.5 56t86.5 17t83.5 -12.5t64.5 -35t41.5 -55t14.5 -72.5q0 -26 -5 -49.5t-17.5 -49.5t-33.5 -57t-54 -72l-57 -72t-42 -60t-26.5 -52t-9.5 -47q0 -39 24 -133h-32q-35 99 -35 148q0 75 81 218
q41 72 61.5 125.5t20.5 91.5q0 57 -33 90t-91 33q-35 0 -63.5 -14.5t-61.5 -42.5v45zM389 334l57 58q10 10 20 10q9 0 22 -11l56 -60q9 -11 9 -20q0 -12 -10 -22l-56 -62q-13 -14 -21 -14q-11 0 -20 10l-61 71q-7 8 -7 18q0 9 11 22z" />
    <glyph glyph-name="NULL" horiz-adv-x="0" 
 />
    <glyph glyph-name="nonmarkingreturn" horiz-adv-x="508" 
 />
    <glyph glyph-name="space" unicode=" " horiz-adv-x="508" 
 />
    <glyph glyph-name="semicolon" unicode="&#x37e;" horiz-adv-x="332" 
d="M58 859l82 84q7 7 14.5 10t14.5 4q15 0 31 -16l80 -86q12 -17 12 -29q-2 -17 -14 -31l-80 -88q-20 -22 -29 -20q-18 0 -29 14l-88 101q-10 13 -10 26q0 15 16 31zM151 258q21 0 44.5 -18t43 -48.5t32.5 -69.5t13 -81q0 -53 -20 -113t-51 -111.5t-68 -85.5t-71 -34v43
q73 43 87 190q0 119 -129 161v42z" />
    <glyph glyph-name="A" unicode="A" horiz-adv-x="721" 
d="M399 1355q13 0 37.5 -1.5t60.5 -3.5q10 5 14 5q166 -142 166 -161v-5q0 -23 -24 -39q2 -35 3.5 -54.5t1.5 -23.5q-2 -85 -3.5 -138t-1.5 -76h-5q0 -5 5 -5l-5 -25v-68q0 -16 5 -24l-5 -30v-9q0 -24 5 -44l-10 -108q5 -10 5 -14l-10 -44q10 -1 10 -10v-5q0 -10 -15 -10v-5
q15 0 15 -9q-39 -20 -39 -117l5 -44h-5l5 -10v-10q0 -5 -5 -5l5 -10v-29l5 -34h-5q5 -5 5 -44l9 5h5q10 -1 10 -10l-5 -19q5 -12 5 -15q-11 -10 -20 -10v-5q15 0 15 -9q0 -10 -15 -10v-5q15 0 15 -10q0 -9 -5 -9l10 -103v-15h5v-29q15 -18 15 -44v-14q0 -7 -44 -25l4 -10
q0 -6 -14 -14v5l-10 -5h-34v10h-5q0 -20 -10 -20h-19q-5 0 -5 5q-12 -5 -15 -5q-51 9 -92 59v4q0 12 4 20q-9 25 -9 39l5 10q-11 49 -15 102h5l-5 10v5q0 11 5 19q-11 74 -20 74h-39q-63 20 -127 24q0 -15 -9 -15q0 -5 4 -5q-4 -34 -14 -34l5 -9v-5q0 -10 -10 -10q0 5 -5 5
l-5 -29l10 -5q-4 -37 -29 -54q5 -20 14 -34l-14 -10q0 10 -10 10q0 -13 -10 -39v-15h-10l20 -19q-8 -42 -20 -54v-5q15 0 15 -10q0 -23 -24 -39q9 -18 9 -39l-9 -14v-49q-9 0 -20 -10q-5 12 -5 15h-10l-14 -10q-10 11 -10 19q0 16 10 39q-10 0 -10 10h5l-5 10q1 10 10 10h10
q14 0 14 -20h5v5q0 23 -39 44v15h10q0 6 -15 14l5 10v15q0 24 -10 24l5 24v20q0 10 -5 20q10 17 10 39q-5 10 -5 14q15 0 25 166l-25 -5q-5 10 -5 20q-8 0 -44 -10v5l20 19l-15 10v-10h-10v5q4 16 30 30q-20 20 -20 39h15v4q-5 0 -25 10h-4v-5h9v-5l-9 -14v-5q14 0 14 -10
q-5 0 -5 -5l-9 5h-5v-14h-5q-10 0 -10 9q5 0 5 5l-10 5q-12 -5 -14 -5v-5h14v-5q0 -9 -10 -9q-14 24 -43 24l-10 -5q-10 0 -10 10v5q15 0 15 14q9 -2 9 -9q-4 0 -4 -5l9 -5q15 19 25 19v5q-30 0 -30 10q15 0 15 10l-10 15q5 0 5 4q-10 0 -10 10l-9 -5h-5v10q16 0 24 5
l20 -10v10h9v-10h5l15 10l24 -5q1 10 10 10h5l10 -5q0 10 14 10q15 -5 15 -10l10 5q10 -1 10 -10l-5 -10v-9h5q0 14 9 14l-5 10l10 5q0 -5 5 -5q0 15 29 146l-9 -5q0 5 -5 5l24 74v4h-10v10l10 -5q5 32 7.5 52.5t2.5 30.5h-5v10h10q1 73 10 73h4l-4 10q3 19 9 19l-5 10v10
l15 20q0 9 -10 9l5 10q0 5 -5 5l5 10l-5 9l15 49q-10 24 -10 34l10 -4q7 0 15 14v5q-15 0 -15 10q6 24 15 24l-5 10l5 10q-5 0 -5 5l9 4l-4 10l9 15q-9 0 -9 10v5q14 0 14 19q-10 0 -10 10q6 0 20 39l-5 10v4h5q15 0 15 -19h4q0 15 5 15l-5 9v5q15 0 15 10h-5l-19 -15
q-10 0 -10 10q10 0 10 20h9v-10h10q10 0 10 10h-10q0 35 30 58q-5 12 -5 15q9 16 9 29q-52 31 -73 88l15 19l39 -9q42 7 71 10.5t46 3.5zM204 1238h10v-10h-10v10zM306 1233v-5l5 -4v9h-5zM360 1209q0 -3 -5 -15h10q0 3 5 15h-10zM199 1209h10v-15h-10v15zM419 1194v-24h-5
q-5 0 -5 5l-10 -5h-5v10h-10l5 -30q-18 -34 -29 -34l-5 -10v-14l5 -29q-8 -31 -20 -44v-5q10 0 10 14h15q10 -1 10 -9v-10l-15 -20v-19q0 -10 -2.5 -26t-7.5 -38q10 -1 10 -9l-10 -20l10 -5q0 5 5 5l5 -10q-5 0 -5 -5l10 -4q0 -139 -44 -210l5 -25q-46 -212 -54 -229l10 -5
q0 -29 -15 -29v-15q0 -7 15 -14l78 4l-10 -14q1 -10 10 -10q0 7 14 15v-5q0 -5 -5 -5l5 -10l-5 -10q6 0 15 -4v4q-5 10 -5 20q5 0 5 5h-5q5 12 5 14q0 25 -15 25v5q20 0 20 44q5 58 7.5 97t2.5 59q-10 0 -10 10v14q0 79 29 171q0 5 -5 5l10 73l-14 29v20q0 5 4 5
q-9 22 -9 44h-5q-10 -1 -10 -10q10 -1 10 -10h-15v-5q0 -11 5 -19q-10 -24 -10 -39h-10q0 7 -1 15.5t-3 18.5h9v5q0 10 -19 10q0 9 24 9v30q20 0 20 4l10 -4h9v4h-14q0 10 14 10q0 10 -5 10l5 49v29l20 34v5q-9 0 -25 15v-20q15 0 15 -10q-17 -14 -24 -14l5 -10v-29
q0 -10 -10 -10q-11 20 -15 20l5 24l-5 34q10 0 10 10v44q5 29 15 29q0 -5 4 -5l5 29zM297 1175v-10h4v10h-4zM453 1175l-5 -10v-5h14v5q0 10 -9 10zM170 1175v-5l-15 -54h-5l-10 5q4 34 15 34l-5 10v5q2 0 20 5zM326 1160v-14h5v14h-5zM345 1160v-14h5v14h-5zM292 1146
q1 -10 9 -10v19q-9 -2 -9 -9zM443 1150l-5 -24l10 -5h5l-5 10q5 8 5 19h-10zM87 1141h9v-5h-9v5zM189 1141l10 -5v-10h-10v15zM321 1116v-14h5l5 24q-10 -1 -10 -10zM184 1121h10v-5q0 -10 -10 -10v15zM82 1111h10v-5h-10v5zM150 1111l5 -5l-10 -9l-5 9zM448 1106
q0 -2 -5 -14h10v14h-5zM375 1106h9l10 -4q-11 -30 -19 -30h-5zM297 1097q0 -8 -1.5 -16l-3.5 -18h5l-5 -10v-5q14 0 29 -20h5v59l-10 10q-12 -5 -15 -5q0 5 -4 5zM179 1092h10v-10q0 -5 -5 -5l5 -10l-10 -14q5 0 5 -5l-9 -5v10q0 2 1 12t3 27zM248 1082v-5h9v5h-9zM262 1082
v-5q0 -11 -1.5 -24l-3.5 -29q5 -12 5 -15q-5 -12 -5 -15l5 -29q30 7 30 34l-15 -10l-5 10v83h-10zM145 1077q0 -5 5 -5q-5 -10 -5 -14l5 -10l-24 -117l-10 -5h-5q0 16 15 34q-10 0 -10 10v10q0 36 15 39l-5 9q7 49 19 49zM545 1067v-9h5v9h-5zM248 1063v-20h5v20h-5z
M233 1058v-5h10v5h-10zM516 1053v5l10 -15v10h-10zM541 1053v-15h9v15h-9zM516 1033l-5 -9v-5q15 0 25 -5q-4 -34 -15 -34q0 4 -5 4l-5 -9v-5h10l10 5q6 -30 14 -30h5v88l-24 -5zM404 1028l10 -4v4h-10zM316 1019q0 -17 -5 -39h5q10 0 10 9l-5 30h-5zM389 1009q4 -15 10 -15
h15q0 -16 5 -24l-10 -5q0 5 -5 5v-15h-5q-11 0 -20 49zM238 999v-24h5v24h-5zM233 970v-10h5v10h-5zM301 960v-10q10 0 10 10v10q-10 -1 -10 -10zM223 955v-10h5v10h-5zM511 955l5 -10v10h-5zM155 955h15v-5q-5 -10 -5 -14q5 0 5 -5q-10 0 -10 -15h-10v5q0 5 5 5l-5 10
q5 8 5 19zM287 931v-20h10q0 4 9 30h-9q-10 -1 -10 -10zM541 936v-10h9v10h-9zM116 921q10 -1 10 -10h-5l5 -9v-5h-5q-8 0 -15 19zM536 906h14v10h-5q-9 -2 -9 -10zM541 887q1 -10 9 -10v20q-9 -2 -9 -10zM155 892v-10q0 -5 -5 -5q0 -5 5 -5q-5 -44 -15 -44l5 -9q0 -5 -5 -5
l5 -10l-5 -10h10v-10q-6 0 -15 -4q0 4 -4 4q6 44 9 59l-5 10q13 39 20 39zM101 882h15v-10h-15v10zM96 862h15v-4q0 -5 -5 -5l5 -10v-10h-15v10q0 5 5 5l-5 10v4zM379 828h5v-9h-5v9zM175 814l4 5v-15h-4v10zM96 804h10v-5h-10v5zM101 789h5q-1 -49 -14 -49q0 5 -5 5
q9 19 9 35q-4 0 -4 4zM375 789h9v-5h-9v5zM121 760h14q0 -7 10 -20v-4q-14 -11 -14 -64h4v-10l-9 5v-19h-10v24q0 5 5 5q-5 12 -5 15q10 43 10 53q-5 12 -5 15zM82 716q10 -1 10 -10l-10 -14q14 0 14 -10l-9 -5h-5q-10 0 -10 10l5 10q-5 10 -5 14zM384 716l5 -10l-10 -5
l-4 10zM384 697v-10h-9q1 10 9 10zM384 677l5 -10l-10 -5l-4 10zM135 648v-15h-14l10 -15v-9l-10 5h-5v-15h-10v5q0 5 5 5q0 5 -5 5q0 34 29 34zM82 623l5 -9l-10 -5l-5 9zM389 623v-5q0 -9 -10 -9v5q1 9 10 9zM145 575h5v-20h-5q-10 0 -10 10q1 10 10 10zM72 560h5v-29
q0 -10 -10 -10q5 -12 5 -15v-5h-5q0 9 -10 20q0 36 15 39zM384 560q0 -5 5 -5l-5 -10q5 -10 5 -14h-14v5q4 8 4 14q-4 0 -4 5zM101 545h5l10 -5q-5 -10 -5 -14q5 -12 5 -15h-10l-10 5zM111 506v-5q-5 -10 -5 -14h-10v5q0 6 15 14zM140 492l-5 -25h10v25h-5zM57 477h10v-10
h-10v10zM96 457h5q0 -11 5 -19q-5 -10 -5 -20h-9v5zM67 453v-59h-10l-4 44q0 7 14 15zM379 409q10 -1 10 -10h-10v10zM633 404q10 -1 10 -10v-5q0 -10 -10 -10t-10 10v5q1 10 10 10zM628 374h5q10 -1 10 -9v-5q0 -10 -10 -10q-7 0 -14 15q1 9 9 9zM628 345h5q10 -1 10 -10
t-10 -9h-5q-9 0 -9 9q1 10 9 10zM297 316v5q-16 -10 -25 -10v-10q41 7 59 20l24 -34q10 5 20 5v9q-3 0 -15 5q-12 -5 -15 -5v15l5 10h-10q-9 0 -43 -10zM-104 316h5v-10h-5v10zM-21 292h10v9q-10 -1 -10 -9zM9 301l-5 -9q6 0 14 -15q-5 0 -5 -5h5q10 0 10 10q0 7 -19 19z
M321 301v-19l10 5l9 -5v5q0 6 -14 14h-5zM-50 296v-4h15v4h-15zM67 296v-9h5v9h-5zM297 292v4q2 -7 5.5 -9.5t8.5 -4.5v10h-14zM-40 287v-20h5q0 3 5 15zM-16 277v-15h5v15h-5zM62 277q1 -10 10 -10v10h-10zM375 277l14 -5v5h-14zM311 252h15l5 20q-15 -4 -20 -20zM336 272
v-10h9q0 10 -9 10zM355 272v-5q1 -10 10 -10h5v10q-3 0 -15 5zM375 262q1 -10 9 -10h5q0 10 -10 10h-4zM340 257l-4 -9h14q0 9 -10 9zM628 262h5q10 -1 10 -10l-5 -19q5 -12 5 -15l-15 -9q-9 0 -9 9q0 12 4 20q-4 7 -4 19zM287 252v-4h10v4h-10zM62 248q1 -10 10 -10l5 10
h-15zM28 238v-5h15v5h-15zM-94 218h20v-9h-20v9zM48 189l-5 -10q1 -9 10 -9h14v9q-8 0 -19 10zM77 184v-5q0 -7 15 -14v9q0 10 -10 10h-5zM-11 179h5v-9h-5v9zM28 145h15v-5q0 -11 -49 -24h-5v10q17 0 39 19zM-26 140h5q0 -10 -9 -10h-5q1 10 9 10zM619 130v-9h4v9h-4z
M48 126l5 4v-9q0 -10 -10 -10h-5v5q1 10 10 10zM-21 121l5 -10l-24 -15h-5v10q1 10 10 10q0 -5 5 -5q1 10 9 10zM384 121l5 -30h-14v5q0 5 4 5l-4 10q1 10 9 10zM18 111h5q0 -7 -14 -15v5q1 10 9 10zM-55 96h10q-17 -29 -24 -29h-5v10q0 7 19 19zM-6 96v-5l-24 -19l9 -15
v-14l-19 24q0 -15 -10 -15h-5v10q25 34 49 34zM-94 62h10q0 -10 -10 -10v10zM-74 43h14q0 -10 -9 -10h-5v10zM-45 33q10 -1 10 -10v-5q-10 0 -10 10v5zM-6 33h5q0 -10 -10 -10h-5q1 10 10 10zM-1 28h10v-10q-10 0 -10 10zM-30 4h4q12 -5 15 -5v-10q-8 5 -19 5v10zM18 4h5v-5
q0 -10 -10 -10h-4v5q1 10 9 10zM638 -84v-10h5v10h-5zM131 -133q0 -3 -5 -15h9v15h-4zM57 -153h10v-14h-10v14zM101 -182v-10q12 5 15 5v5h-15zM53 -182h9v-24l5 -10q-10 -1 -10 -10q20 -2 20 -14v-5q-8 0 -15 -10l5 -10v-73h-14l-10 34q6 0 14 20q-9 0 -9 9q0 35 19 35
q0 9 -10 9h-24v5q18 17 20 44zM116 -196v-10h5v10h-5zM96 -211v-5h10v5h-10zM23 -250h5q10 -1 10 -10v-5h-5q-10 0 -10 10v5zM82 -265v-5h10v5h-10zM87 -294v-10q1 -10 9 -10l5 10zM111 -294v-5h10v5h-10z" />
    <glyph glyph-name="B" unicode="B" horiz-adv-x="794" 
d="M230 1409q1 -9 10 -9q1 9 10 9h4v-19h20q10 0 20 5q29 -5 29 -20l34 20q34 0 34 -20h5q0 15 15 15q5 -10 5 -20h4q0 15 10 15h5q10 -1 10 -10h-5l-10 5v-5q0 -5 20 -14q16 9 24 9l-5 -9l34 -20q1 10 10 10h5q19 -15 29 -15v-10l-9 -14q19 0 29 -25q44 -9 44 -34h5
q0 15 9 15q20 -22 25 -59h5v15h9q0 -16 30 -59l-5 -43l5 -25h-20v-19l10 4h5q9 0 19 -34h-5l-9 5q0 -11 -5 -19h5l9 5v-5l-4 -10h9v-10q-7 0 -19 -14q0 24 -10 34l5 24l-10 5q-20 -20 -29 -20v-4l5 -10l10 5q9 -2 9 -10q-5 -12 -5 -15q5 0 5 -5h-5l-9 5q-6 -44 -25 -44
q0 -5 5 -5q0 -28 -63 -175v-10h9q0 22 20 34v-5q-5 -8 -5 -19l10 5q7 0 19 -20h-19q0 -14 -5 -14q5 -10 5 -20h5v24h9q0 -18 15 -34q10 0 10 10q-10 0 -10 10v5h5q22 -25 44 -25q0 5 5 5l5 -10q-10 -1 -10 -9h10v9q9 -2 9 -9q-4 0 -4 -5q18 -25 29 -25l24 -58q-5 -10 -5 -20
v-5q20 0 20 -9l-10 -5v5q-12 -5 -15 -5q7 -6 15 -59q-10 -21 -10 -58l15 9q0 -5 5 -5l-5 -9q5 -10 5 -20q-10 -1 -10 -10v-4q0 -14 10 -30q-10 -16 -10 -24h-5v15l5 9h-5q-15 0 -19 -49q14 0 14 -9h-5l-9 5l-5 -25h-10v10h-5v-20h5q12 5 15 5v-9q-20 0 -20 -54h-10l10 49h-5
q-5 -16 -16 -74t-28 -161h-4q9 -15 9 -29v-5q-12 0 -19 -19h5l14 10q0 -9 10 -20v-5q-17 0 -29 -44h-10v20h-10q0 -15 -10 -15q0 5 -4 5q0 -3 -5 -15q14 0 14 -9q0 -2 -9 -7l-20 -11t-20 -11.5t-9 -9.5v-5h-10v9q-33 -12 -34 -24l5 -24q-11 0 -54 -25h-15q0 10 15 10v5h-5
q-16 0 -34 -44q15 0 15 -24h-15q-8 0 -15 24l-9 -5q-14 0 -15 24h-5q-22 -14 -39 -14q0 10 -10 10h-5v-5l10 -15q0 -10 -10 -10l-34 5v-29h-9q-13 10 -20 10v9q0 10 15 10v5h-20q0 -17 -19 -24h-10l-34 19q0 -10 -10 -10h-10q-5 0 -34 35q0 -5 -5 -5v24l5 10l-10 5
q0 -15 -10 -15h-24q-10 0 -10 10q39 10 54 10v4l-5 10l-10 -5h-9v10h14v5q-33 0 -83 107q0 30 59 30l-5 9l10 15l39 -10l5 34v15l-5 29l10 30q-5 8 -5 19q0 5 5 5q0 5 -5 5l5 34v29h14q-10 16 -10 30q0 8 10 24h-10v10q0 10 15 10l-5 48h5l-5 10l10 15v19h-10l-5 -19h-9
q0 36 19 112h-10q-18 -15 -29 -15v5q0 8 29 25l10 14l-15 10l5 10v19l7.5 53.5t2.5 20.5v14h-5l-5 -44h-9l4 49q15 0 15 5v15h5v4q-15 22 -15 35l10 -5q5 10 5 14q-20 55 -20 88q5 0 5 5h-5q-8 -5 -19 -5v20q0 11 5 19q-5 12 -5 15h5q-10 16 -10 24q10 0 10 15l-5 10
q5 10 5 14l-30 34v10h15v-10h5v64l-10 15v4h5q5 0 5 -4q16 3 20 19h-10q-12 -5 -15 -5v5q13 34 20 34q-6 30 -15 30l-5 -10q5 -10 5 -20h-5q-10 0 -10 10v34l-5 34l10 5l5 -44l15 10l-5 10l5 34q-5 8 -5 19q5 12 5 15l-5 10q5 12 5 15q-51 39 -54 39q0 -5 -5 -5q0 8 -10 19
l10 5q-5 15 -10 15h-14q0 6 -20 29q0 5 5 5l-5 10v5l25 4v-4l9 4l10 -4q0 4 5 4q0 -4 5 -4v4q-5 12 -5 15h15l-5 -10q10 0 10 -5l9 5l10 -5v5l-5 10q5 0 5 5q36 -10 44 -10v10l-10 15q3 0 15 1t34 3zM93 1395h10q0 -10 -10 -10v10zM435 1361v-10h5v10h-5zM89 1356
q1 -10 9 -10h5v10h-14zM123 1351v-5h19v5h-19zM347 1341v-5q10 0 10 10v5q-10 -1 -10 -10zM552 1346h10v-5h-10v5zM518 1307v-5h15v5h-15zM542 1283v-5h10v5h-10zM103 1263l10 20v-25h-10v5zM128 1248h4q9 0 20 -29q-10 0 -10 -29h-10v10zM323 1219q0 10 -10 10h-5v-5
q10 -24 15 -24l-5 -10v-44l19 10v-15l-9 -15q7 0 24 -107q12 0 24 -39q0 -13 -24 -44q-5 -8 -5 -24v-117q0 -60 -19 -88q5 -10 5 -20h4q0 12 20 20q0 14 15 14l-5 10v5q117 151 117 200q-5 12 -5 15q0 29 15 58q-5 12 -5 15h5q0 5 -5 5l5 24v29l-20 40q10 44 10 58l-49 44
h-10l-19 -5l-10 15q-16 -10 -29 -10h-5v20q-20 -5 -39 -25zM328 1180h9v-15h-9v15zM376 1165h5v-9h-5v9zM123 1131h9v-5h-9v5zM655 1102v24l9 -29v5h-9zM655 1087v-9h5v9h-5zM645 1063q1 -10 10 -10v10h-10zM376 1053q10 -1 10 -10t-10 -9q-9 0 -9 9q1 10 9 10zM123 1048
q9 -2 9 -9q0 -10 -9 -10q-10 0 -10 10q1 9 10 9zM674 995q5 -12 5 -15l-5 -10l5 -10l-5 -9q5 -10 5 -20v-5h-10q-9 0 -9 10v10q0 21 9 39q-5 0 -5 5zM689 980h5q7 0 19 -20l-10 -4h-9l5 9q-10 0 -10 10v5zM176 960v-9h5v9h-5zM372 956l9 4v-14q-9 0 -9 10zM172 941v-5h9v5
h-9zM118 941h14v-10h-14v10zM713 941l5 -10h-5v10zM137 931h10v-14h-10v14zM372 931l14 -14q0 5 -2.5 4.5t-7.5 -0.5zM713 921l5 -9v-15h-10q-6 0 -14 20q12 0 19 4zM381 912v-10h-9q1 10 9 10zM669 912q10 -1 10 -10v-10q0 -10 -10 -10h-5v5zM703 897v-10q0 -6 -14 -14
l-5 9zM669 873l5 -10q0 -10 -10 -10l-4 10q1 10 9 10zM372 868h4q10 -1 10 -10v-10h-5q-9 0 -9 10v10zM172 848q1 -10 9 -10h5q0 10 -10 10h-4zM381 838l5 -9h-14q1 9 9 9zM440 814v-5h10v5h-10zM391 804v-14h-10v5q1 9 10 9zM172 799l4 -9l-9 -5h-5v5q1 9 10 9zM416 780
v-10h14v15q-12 -5 -14 -5zM162 770q10 -1 10 -10v-4q0 -10 -10 -10h-10v14q1 10 10 10zM406 765v-5h10v5h-10zM381 731v-10h15l10 30q-15 -20 -25 -20zM162 736h5v-10q0 -7 -15 -14v14q1 10 10 10zM123 721h9v-9h-9v9zM679 702v10l5 -20v10h-5zM357 697v5l10 -10v5h-10z
M391 687v-10h5v10h-5zM333 677v-9h4v9h-4zM152 643h10v-5q-7 -19 -15 -19h-10v5q15 12 15 19zM440 507l5 -25q-7 0 -20 -39q-53 -44 -53 -49q9 -2 9 -9q0 -10 -9 -10l-20 15h-10q0 -20 -9 -20q-5 0 -25 29h-10q-9 -2 -9 -9l5 -30h-5q0 -5 5 -5l-5 -34v-29h14q0 15 10 15
q0 -10 5 -10q12 5 15 5q9 -26 24 -30q-12 -48 -15 -48q5 -14 15 -64h-5l5 -10v-14q10 -1 10 -10q-4 -34 -10 -34q0 -49 44 -49l49 -5q68 14 68 59q53 71 93 385h-10v15q15 18 15 34v5h-10v5q0 22 10 39q-26 24 -39 24v20h9v5h-5q-78 -20 -78 -54q-12 0 -63 -68zM123 604h9
v-14h-9v14zM152 604h5v-10q0 -25 -15 -29l-5 10q1 10 10 10l-5 9q1 10 10 10zM503 575h10v-5h-10v5zM616 555v-9h4v9h-4zM142 555h10v-9h-10v9zM494 555l9 -9q0 2 -2 1t-7 -1v9zM132 551l5 -10v-5h-5q-9 0 -9 10zM469 526h5v-5q0 -7 -19 -19h-5q13 24 19 24zM123 502h14v-5
q0 -10 -9 -10h-5v15zM123 482h9v-14h-9v14zM742 453v15q0 -20 3.5 -25t6.5 -5v15h-10zM128 438l4 15q0 -14 1.5 -19t3.5 -10l-9 -5q0 5 -5 5q5 10 5 14zM767 433h10v-14h-10v14zM318 370h10v-15h-10v15zM172 365h9v-5h-9v5zM372 321v-14q-10 0 -10 9zM328 316h9v-9
q-9 0 -9 9zM118 311h14v-9q0 -10 -9 -10l-5 10v9zM367 302q9 -2 9 -10q0 -10 -9 -10q-12 5 -15 5q0 7 15 15zM318 282v-5h10v5h-10zM362 272q10 -1 10 -9l-10 -5v14zM367 204l5 -10q0 -9 -10 -9l-5 9q1 10 10 10zM113 180h15v-5q0 -10 -10 -10h-5v15zM630 -1v-5h10v5h-10z
M625 -11v-9h5v9h-5zM547 -108l5 -10q0 -10 -10 -10q0 6 -4 15zM498 -123q5 -12 5 -15h10v15h-15zM557 -133h5v-9h-5v9zM484 -142v-5h10v5h-10zM562 -147h5v-10h-5v10zM489 -167h24v-5q0 -9 -10 -9h-14v14zM191 -186v5l15 -15v10h-15zM308 -186q1 -10 10 -10v10h-10z
M225 -191l-5 -10q34 0 39 -5v10h-24zM528 -186l5 -10l-20 -20l-5 10v5q8 0 20 15zM464 -211v-9h-9q1 9 9 9zM328 -225q9 -2 9 -10v-5h-9q-10 0 -10 10z" />
    <glyph glyph-name="C" unicode="C" horiz-adv-x="671" 
d="M440 1273q76 0 180 -117l35 -64q-15 -97 -35 -97v-25q0 -5 -29 -19q-23 74 -78 146l-24 -5l-34 5l-10 -5l-44 20q-12 -5 -15 -5q-14 14 -14 29h-10l-10 -5l5 -9q-29 -20 -29 -59q10 -5 14 -5v-5h-9v-14h4l15 9l5 -9l-24 -20q4 -9 4 -15l20 20h5v-10l-10 -14l5 -25
q-10 -29 -10 -34l10 -5l24 5l5 -10q-6 -24 -14 -24q0 10 -10 10h-5q5 -10 5 -20l10 5l4 -10q-11 -10 -24 -10v-4h20v-5q-10 0 -10 -5q5 -12 5 -15q-9 0 -20 -29h15v-10l-25 -5v-5h5q10 5 20 5l5 -10q-6 -19 -30 -19l10 -15v-19q0 -5 -5 -5l5 -10q-5 -12 -5 -15q10 -1 10 -9
q-12 -5 -15 -5v-5q15 0 15 -10q-5 -24 -19 -24v-5q14 0 14 -10q-10 0 -19 -73q-5 0 -5 -5q10 -1 10 -10v-9q0 -59 -10 -59l5 -10v-5q0 -14 -5 -14l5 -25v-48q0 -10 5 -20q-10 -23 -10 -34q-10 0 -10 14h-10v-9q30 -20 30 -25q-3 0 -15 -5l5 -9q-8 -11 -15 -39q0 -35 20 -35
v-4q-15 0 -15 -20q0 -11 10 -34l-5 -29q10 -1 10 -10l-5 -10q10 -1 10 -10q0 -14 -20 -14v-15h5q0 15 10 15h9v-5l-19 -20q16 -117 29 -117h34q31 0 108 -24v5q23 53 34 53h5q0 -24 14 -44q-4 -8 -4 -14q9 -2 9 -10q-9 -2 -9 -10v-5q9 -14 14 -34q-8 -5 -19 -5v-5q6 0 14 -4
q-5 -35 -14 -35q0 10 -10 10q-5 -8 -5 -19h-5l-10 5q0 -10 -9 -10q0 5 -5 5q-56 -54 -98 -54q0 10 -15 10l-9 -5q-30 4 -30 10l-9 -5h-20q-16 19 -34 19h-5q0 -9 15 -9v-10q-108 13 -108 44l-34 39l5 9q-33 0 -63 274v5h-10v9l10 -4v9q-14 0 -15 25q10 0 10 9q-20 0 -20 35
h5l-5 9v10h10v-10h5v10h-5q9 32 15 127q-5 12 -5 15q10 0 10 9q-10 0 -10 10l19 39q0 5 -5 5q4 34 10 34l-5 10l5 10h-5q-10 -5 -14 -5l-5 10q5 10 5 14l14 -9h5q0 9 5 19q-15 0 -15 10q12 5 15 5v5l-10 14v20q25 19 25 49l-10 -5q-7 0 -15 14v5h30v39l-10 -5l-5 10l10 5
q0 -5 5 -5l4 29l-9 -5q-10 0 -10 10l10 5l9 -5v5q0 5 -4 5q8 18 14 54h-10v-25q0 -9 -9 -9h-10v14h10l-5 10v10h10l-5 24l19 -15v15h-14v5l19 19h-15v15q25 0 25 64q67 327 102 327q0 19 25 19q17 0 73 -15h5q7 1 26.5 6t51.5 19zM172 1161h14v-10h-14v10zM176 1141
q10 -1 10 -10t-10 -9q-9 0 -9 9q1 10 9 10zM162 1087h5q9 -2 9 -9v-5h-14v14zM352 1087q10 -1 10 -9l-10 -5v14zM74 995h10v-5h-10v5zM152 960h5v-14h-5q-10 0 -10 10zM69 912h10v-25h-10v25zM406 892q0 -5 5 -5l-5 -9l5 -10q-5 -10 -5 -25h-15v5l5 10l-5 10q6 24 15 24z
M337 838v-9h5v9h-5zM69 824l5 14v-34h-5v20zM347 795v-10h5v10h-5zM89 785l9 10l5 -44q-6 -25 -14 -25l4 34q-4 8 -4 25zM118 751q10 -1 10 -10h-10v10zM113 712h10v-5h-10v5zM79 673l24 -5q12 5 15 5l5 -10l-25 -5v5l-9 -5q-10 0 -10 10v5zM79 653h10v-5q0 -5 -5 -5l5 -9
v-20h-10v39zM45 648h9v-19h-9v19zM367 614l5 15v-25h-5v10zM113 585v-15h5v15h-5zM69 585h10v-5h-10v5zM303 365v-5h10v5h-10zM50 297h9v-10h-9v10zM328 272l5 15v-24h-5v9zM54 268l10 -5v-10q-10 0 -10 10v5zM74 72q10 -1 10 -9l-10 -5q-10 0 -10 9zM328 72h9v-9h-9v9z
M79 -59h10v-10h-10v10zM523 -147v-10h5v10h-5zM152 -181v-10h-10q1 10 10 10z" />
    <glyph glyph-name="D" unicode="D" horiz-adv-x="737" 
d="M150 1346q14 -5 14 -10l10 5h10q19 -34 214 -34h44q181 -49 181 -103q88 -82 88 -331v-117q-33 -408 -69 -537q-32 -128 -87 -230h4l-29 -53q-29 -20 -29 -49l-24 -10v-5l4 -10l-29 -9q0 5 -5 5q0 -8 -10 -15l-9 5q-32 -39 -83 -39l5 -10v-5h-5q-12 5 -15 5
q-15 -22 -88 -34v-5q-41 10 -63 10q0 -5 -5 -5q-15 34 -24 34q0 -10 -10 -10q-5 10 -5 20h-29l-20 -15h-10q0 15 -5 25q0 37 69 117q19 400 39 585l-5 10l5 24q-2 33 -3.5 61.5t-1.5 51.5v14q0 10 -5 20q5 8 5 19v15l-5 29l5 10l-15 54q4 19 10 19l-5 10l5 10l-5 24
q5 12 5 15q-10 19 -10 29q4 54 10 54q-5 14 -10 14l5 25v44q-39 0 -39 63q5 10 5 20q-34 0 -59 39q16 9 30 9v5h-25l-9 -5l-5 10q34 12 34 20l-5 10l-10 -5h-14q-10 0 -10 9q39 15 49 15h24v10l-49 -5v15h30l9 -5l10 14q-6 0 -24 25q0 23 44 29zM62 1278h5v-10h-5v10z
M267 1170q14 -36 14 -44q-5 0 -5 -4l10 -5l10 5l-5 24v19h10q0 -15 5 -43q-5 -15 -10 -15q-12 5 -15 5v-15q0 -11 5 -19l-5 -10q16 -45 20 -98h5v5q-5 10 -5 20h5l-5 9v10h10l4 -44l-4 -19q9 -2 9 -10v-10h-14v-14h14v-5q0 -10 -9 -10h-5v10h-5v-15q10 -1 19 -24q-5 0 -5 -5
l-9 5h-5v-25l10 5h9q0 -27 5 -34q-3 -73 -19 -73l-5 10q10 0 10 9l-10 5l5 10l-5 10q4 19 10 19l-5 10v5l5 10l-10 4q-15 -72 -15 -102v-15q15 0 15 -19q-10 0 -10 14q-10 0 -10 -14q0 -8 1.5 -19l3.5 -25l-5 -44q11 -98 25 -98v-14h-10v-10q0 -8 15 -15h4v10h10v-15
q0 -9 -29 -14v-5q15 0 15 -10q-10 -19 -15 -19q0 -5 5 -5l-5 -25v-24q-13 0 -29 -34q5 0 5 -5q-10 -1 -10 -10l10 -5h4l10 30h10q-10 -46 -10 -54h15v-5q-20 -32 -20 -49v-5l10 5h5v-5l-5 -9q5 0 5 -5q-20 -3 -20 -15v-10l5 -24h-5q0 -5 5 -5q-9 -35 -9 -59l4 -9
q-9 -2 -9 -10q0 -5 5 -5q-5 -35 -7.5 -59.5t-2.5 -38.5h5q17 4 88 103q0 17 53 141q17 72 25.5 111t8.5 46h5q10 0 10 -15h15l14 59l-24 4v-9h10v-10l-20 -5v5q0 23 20 49h5l9 -5v5q0 13 -19 14v20l5 10l9 -5h10v14q-19 0 -19 15q7 118 39 244l-5 24q2 28 3.5 52t1.5 46v5
q0 15 -5 15l5 24v68q0 11 1.5 24l3.5 30q-36 112 -147 112q-27 0 -68 10h-15v5h-5q-5 0 -14 -20zM91 1185v-5h20v5h-20zM150 1146v-15h4v15h-4zM315 1112h10v-20h-10v20zM315 1073h10v-5h-10v5zM140 1063l10 5v-15h-10v10zM301 1063l10 -10v-5h-10v15zM325 1043h5v-9h-5v9z
M135 1039l10 -5l5 -15h-5q-10 0 -10 10v10zM311 1029h9v-10h-9v10zM135 970h10l5 -24h-5q-10 0 -10 10v14zM301 965v-9h5v9h-5zM301 951v-10h5v10h-5zM140 897q10 -1 10 -10l-10 -5v15zM335 882h10v-9h-10v9zM140 868l10 5v-30h-15zM340 795h10v-5h-10v5zM325 741v-5
q0 -3 -5 -15q5 -8 5 -19l-10 -5h-9v5q1 10 9 10q-4 5 -4 24q10 5 14 5zM340 682h10v-9q0 -10 -10 -10v19zM315 673l5 -10l-9 -5h-5v5q1 10 9 10zM301 658q12 -5 14 -5l-4 -34q9 -2 9 -10q-9 -15 -9 -39h-10l5 10q0 5 -5 5l5 24q0 8 -10 44q5 0 5 5zM325 565q12 -5 15 -5v-9
q-15 0 -15 -15h-10v15zM516 560v-9q9 0 9 9h-9zM481 546l10 -5h5v14h-5q-10 -1 -10 -9zM272 546q0 -3 -5 -15q5 -12 5 -15q-5 -10 -5 -14h9l5 34v10h-9zM325 526h15v-10h-5q-10 0 -10 10zM574 521v-9h10v9h-10zM574 502q0 -10 -5 -20l5 -10q-5 -10 -5 -14l10 -5h5q0 16 5 24
q-5 10 -5 25h-10zM267 492q0 -13 -10 -24v-5h5q8 0 14 29h-9zM545 482v-5h14v5h-14zM603 477v-9h5v9h-5zM511 472v-14l-10 5v-5q5 -7 5 -25h-5v-4q1 -10 10 -10q3 15 19 19l-5 10q5 10 5 20l-10 4h-9zM559 458v-10h5v10h-5zM257 453q-15 -32 -15 -39q-5 0 -5 -29
q10 -1 10 -10q-10 -1 -10 -10l5 -10q-9 -2 -9 -9l9 -5h10q0 23 10 44l-5 9q5 10 5 20q-5 0 -5 5q10 0 10 10v24h-10zM477 448v-10h9v10h-9zM276 433v-9h10v9h-10zM569 433q1 -9 10 -9v9h-10zM555 429l-5 -25l9 -5q0 15 5 15q-5 12 -5 15h-4zM516 414h9v10q-9 -2 -9 -10z
M530 409v-10h5v10h-5zM486 394v-4q10 0 10 9v5q-10 -1 -10 -10zM501 390h15v14q-7 0 -15 -14zM447 404h15v-10h-15v10zM589 399v-5l10 -4q0 9 -10 9zM525 390v-10h10v10h-10zM564 385v-5h10v5h-10zM584 370h10v10q-10 -1 -10 -10zM311 380h9v-10h-9v10zM486 375
q1 -10 10 -10v10h-10zM520 370q0 -17 -4 -34l9 -5q0 5 5 5l5 -10v-24h15q0 11 5 19q-5 12 -5 15v10h5v-15h4l5 19l-34 20h-10zM555 370q1 -10 9 -10h5v10h-14zM477 350v-4q1 -10 9 -10h5v19q-12 -5 -14 -5zM447 350v-9h20q0 9 -10 9h-10zM530 350h5v-9h-5v9zM223 331
q0 -8 -1.5 -16l-3.5 -18l10 -5h5v5q-5 12 -5 14q10 5 14 5v10q-11 0 -19 5zM486 326v-10h5v10h-5zM511 326v-29h5q0 7 9 24l-9 5h-5zM315 326h10q0 -10 -10 -10v10zM437 297v-10h10v10h-10zM296 277h5q10 -1 10 -9v-5h-5q-10 0 -10 9v5zM296 248h19v-20h-9q0 10 -10 10v10z
M291 204h10v-10h-10v10zM296 185h15v-5q0 -10 -10 -10h-5v15zM286 126h15v-10h-15v10zM286 92h10l-15 -83h-9v24q8 10 14 59z" />
    <glyph glyph-name="E" unicode="E" horiz-adv-x="689" 
d="M570 1361q49 0 98 -64q12 0 20 -39q-1 -15 -49 -63l-20 14q-30 0 -136 -34q-10 0 -10 10q10 0 10 10v5q-30 0 -30 -39h10v-10q-8 0 -19 -10v5l4 10q-4 7 -4 19h-15q0 -16 -24 -44q-30 -45 -30 -63h-9v5q4 8 4 14l-9 5l-5 -19q5 0 5 -5q-9 0 -15 -44h-15q10 -11 10 -20
q0 -4 -5 -4l5 -20q0 -6 -2.5 -21t-7.5 -38q5 -20 5 -39q-10 -1 -10 -9l5 -10l-5 -34h5q10 0 10 14h5l10 -5v5q-5 23 -5 35q5 0 5 4q0 22 -10 59l15 10q9 -2 9 -10q-9 -2 -9 -10q9 -2 9 -10q5 -97 7.5 -150.5t2.5 -63.5h5q5 0 112 9q14 0 83 -29v-14q-7 0 -19 -20
q0 10 -10 10h-15q-68 -5 -68 -20q23 -9 24 -19q-9 -33 -131 -98q-29 -52 -49 -141h-15v-5h10v-10q0 -21 -34 -73h5q10 5 14 5l-29 -152q5 -10 5 -14h-5l10 -25l-5 -24l24 -107q0 -29 88 -54q0 -3 29 -20h10q31 28 73 161l-4 10q23 83 68 83h29q10 0 10 -14q-5 -17 -5 -40h15
q-15 -82 -20 -82l5 -10q-9 -33 -117 -161q-7 0 -59 -64l-78 -29l-24 10q-5 0 -5 -5q-211 27 -229 112q-20 22 -44 112q0 5 5 5l-5 30q0 4 5 4l-5 10l5 20q0 5 -5 5l5 24v102q0 99 92 269q0 16 122 136q-6 21 -92 59q-20 30 -35 59q33 405 64 405q11 41 36.5 71.5t65.5 55.5
q91 57 160 87t118 30zM522 1209v-5l18 3.5t16 1.5v5q-10 0 -10 5q-16 -10 -24 -10zM492 1200v-5h10q10 0 10 9l-10 5q-10 -1 -10 -9zM419 1136h5v-10h-5v10zM366 1112v-10q9 0 9 10h-9zM326 1068v-10h5v10h-5zM370 1058h5v-5q0 -10 -9 -10h-5v5q1 10 9 10zM322 1014v-19h9v9
q0 10 -9 10zM263 985v-10h5v10h-5zM351 985h5q10 -1 10 -10l-10 -5h-5v15zM283 946h9v10q-9 -2 -9 -10zM253 936v-10h5v10h-5zM283 936v-19h9v4q-5 12 -5 15h-4zM302 902l20 -5v24l4 10h-9q-9 0 -15 -29zM283 907v-10h4v10h-4zM248 902v-15h5v15h-5zM302 892q0 -27 -5 -34
l10 -5h10v34q-3 0 -15 5zM283 843v-9h4v9h-4zM248 838v-9h5v9h-5zM268 838v-4h10v4h-10zM302 838v-9h5v9h-5zM287 824q0 -7 -9 -20q11 0 19 -5v5q-5 10 -5 20h-5zM322 819q1 -10 9 -10v10h-9zM351 799v-19q10 -11 10 -20h5v5q-10 19 -10 34h-5zM283 795v-10h9v10h-9z
M302 785v-5h10v15q-10 -1 -10 -10zM336 780v-10h5v10h-5zM287 765v-5l15 -19q-5 0 -5 -5h10q0 3 5 15zM336 746v-10h5v10h-5zM307 731v-5h10v5h-10zM317 721v-14l9 -5v5q-4 8 -4 14h-5zM273 282q0 -11 -5 -19h10v19h-5zM224 199v-10h5v10h-5zM239 136v-5h9v5h-9zM73 -6v-10
h5v10h-5z" />
    <glyph glyph-name="F" unicode="F" horiz-adv-x="663" 
d="M181 1409q48 -14 54 -14h44q27 0 34 -5l25 3.5t19 1.5h24q113 0 113 -15l9 5h44q97 -13 152 -73v-25l-10 -14q10 -1 10 -10v-5q0 -10 -15 -10q-27 21 -229 64q-46 -2 -74 -5t-39 -5v5l-9 -5h-5q-5 0 -5 5l-10 -5h-29v-19q19 -25 34 -98q10 -1 10 -10v-24q0 -5 -5 -5
l5 -10v-39q0 -8 1.5 -19l3.5 -25q0 -14 -20 -14v-69l-5 -10l10 -4l5 24v29h10v-92l4 -49h-4l-10 5v-15l5 -10l9 5h5l5 -24v-30h-5l-9 5l-5 -9q2 -22 3.5 -35.5t1.5 -18.5h4l5 19h10v-24h10q71 63 205 107h10v-5q-4 -31 -118 -63l-4 -10v-5h4l142 54q15 -18 15 -29
q-25 -36 -83 -54h-15q-102 -61 -166 -171l-5 -9q0 -8 15 -15l-5 -24v-35h10l-15 -19l5 -34l-5 -10l15 -93q-10 -1 -10 -10q5 -8 5 -19h-5q10 -23 10 -34h-5l5 -10q0 -3 -20 -88l5 -10v-9q0 -5 -5 -5q0 -5 5 -5q-12 -98 -19 -98l4 -9v-15q0 -12 -4 -20q4 -8 4 -14
q-9 -2 -9 -10l5 -10q0 -21 -35 -29q-2 -39 -14 -39h-5q0 15 -10 15q0 -10 -24 -20v-5h-10v10h-10q-39 -14 -39 -20v-14q20 2 20 14h9q19 -24 25 -24l-20 -59h-9v15h-5l-10 -29q-7 0 -20 34h5q0 7 -19 29q6 0 14 20q-5 14 -9 14l-10 -5q-12 5 -15 5l5 30q-29 44 -29 63h10v24
q0 10 -5 20q5 12 5 15h-5l5 9v20h-5v-10h-10v5q19 10 19 122h5l-5 10v14l5 10q-9 0 -9 20h-10l5 -39l-10 -5h-5v10q0 4 5 4q-5 10 -5 20l-10 -5h-5l-4 24l9 5h5v-5l-5 -9h5q25 6 25 14v5l-10 -5h-10v10h15v20h-20v-15h-14v15q0 11 -5 19q9 25 9 34q-9 0 -9 10v5q1 10 9 10
l10 -5v5l-14 24l4 10q-8 5 -19 5q1 10 10 10q0 -5 5 -5q0 5 4 5l-4 9v5h9v10q-24 0 -24 34q5 10 5 20q-10 0 -10 9v5q1 10 10 10h5l-5 -10q0 -6 14 -14h5q0 21 5 29l-10 5l5 10v24h-9q0 -15 -10 -15l-5 10v49q1 10 10 10q9 -2 9 -10v-10h-9v-5l5 -10q-10 -1 -10 -9h19v14h-9
q0 10 24 10q0 10 -10 29q5 10 5 20t-10 10q-10 -5 -14 -5v5l5 9q-10 0 -10 15q3 54 19 54q5 -10 5 -25q10 0 10 10q0 27 -24 44v49h4l15 -10q0 7 10 20q-5 0 -5 4q16 10 24 10v15l-19 -15q-6 0 -25 25v48q0 7 15 15h5q0 -5 -5 -5q5 -18 5 -63h5q0 34 5 39q-5 12 -5 14
q5 12 5 15h-5l10 34h-10q0 -24 -15 -24q-10 0 -10 10v4q0 14 25 15v5h-10q-12 -5 -15 -5v5q10 19 10 29q-5 12 -5 15l10 5q15 -17 15 -30h9q0 6 -4 15l4 29v15q-14 -10 -29 -10l-5 10v5q15 16 15 29q10 0 10 -14q5 0 19 39l-10 4l5 30l-14 -10q-9 34 -30 34q1 10 10 10
l29 -15q0 23 10 44q-10 24 -10 39q5 0 5 5q-5 0 -5 5q10 5 20 5v10h-5l-10 -5l-5 10q9 4 15 4l-10 15q16 39 25 39h5v-24l9 -5l5 24q-5 0 -5 5q12 5 15 5v5q-15 19 -15 29h5l-5 10v49zM103 1326h10v-4h-10v4zM191 1292v-9h5v9h-5zM186 1268v-10h10q0 10 -10 10zM108 1258h5
v-10h-5v10zM162 1239v-15h10v5q0 10 -10 10zM191 1229v-10h5v10h-5zM113 1200h10v-10q-10 0 -10 10zM172 1117v-10h4v10h-4zM98 1102h5q10 -1 10 -10v-5h-5q-10 0 -10 10v5zM98 1068q10 -1 10 -10h-10v10zM157 1034v-5h10v5h-10zM98 1004h10q0 -9 -10 -9v9zM108 960v-4h10v4
h-10zM235 936q0 -6 -1.5 -15.5t-3.5 -23.5q15 0 15 -10h5v49h-15zM240 868q5 -8 5 -30h9v35h-4zM250 814v-10h4v10h-4zM103 741h10v10q-10 -1 -10 -10zM123 741v-5h19v5h-19zM254 741v-10h5v10h-5zM284 736q0 -3 -5 -15q10 -16 10 -24l-10 -5q11 -23 19 -24v29q0 37 -14 39z
M430 736v-10q12 5 15 5v5h-15zM137 707v-15q10 0 10 10v5h-10zM142 687v-10h5v10h-5zM93 673q0 -10 -4 -10q4 -9 4 -15h20v15q0 10 -10 10h-10zM79 614h14v-5q0 -10 -9 -10l-5 10v5zM142 580v-10h5v10h-5zM108 541v-10h10v10h-10zM113 512v-15h5q10 0 10 10q-3 0 -15 5z
M337 487l-4 -19h9v19h-5zM89 429v-5h9v5h-9zM98 394v-9h10v9h-10zM74 380v-15h-10v5q1 10 10 10zM113 375v-10h5q12 5 14 5q0 -5 5 -5v10h-24zM118 346v-5h10v5h-10zM103 326v-5h10v5h-10zM128 321v-10h4v10h-4zM108 297q0 -3 -5 -15h10v15h-5zM54 214h10v-10h-10v10z
M54 189h10q-5 -10 -5 -14h-5v14zM89 150q9 -2 9 -9q0 -10 -9 -10q-10 0 -10 10q1 9 10 9zM54 146h10v-20q0 -10 -10 -10l-4 10q4 8 4 20zM108 126h10v-5h-10v5zM108 92h10v-15h-10v15zM54 77h10v-10h-10v10zM59 53h10v-10h-10v10zM93 53h10v-10h-10v10zM64 28h10v-9h-10v9z
M69 -6h10v-10h-10v10zM113 -94h10v-4h-10v4zM186 -157v-10h5v10h-5zM215 -167q0 -17 -4 -24q13 1 19 24h-15zM123 -167h9v-10h-9v10zM211 -225l4 -10l-9 -5h-5v5q1 10 10 10zM181 -230h10q0 -10 -10 -10v10z" />
    <glyph glyph-name="G" unicode="G" horiz-adv-x="746" 
d="M524 1312h10q7 0 24 -29q-10 -5 -14 -5l5 -25v-14q0 -10 -113 -30q-60 0 -117 -190v-15h5l5 25h15q-5 -66 -15 -73h34v-20q0 -11 -5 -19q5 -12 5 -15q-10 -1 -10 -10l5 -24q10 5 20 5l-5 9l5 10h-10v10q19 0 19 10v9h-4v-14h-5q-10 0 -10 10v9q1 10 10 10l9 -5v10
q-14 0 -14 10q10 0 10 9l-5 10q9 0 9 15h10q0 -25 5 -25q-6 -44 -10 -53l5 -10q0 -24 -10 -24l5 -10v-5q0 -5 -5 -5l5 -10q0 -29 -19 -29v-5q14 0 14 -10v-4q0 -12 -4 -20q4 -8 4 -19v-5q0 -10 -14 -10q10 -19 10 -29q-8 -108 -15 -108l5 -10v-14q0 -16 -15 -64l5 -9
l-10 -83l5 -10q-7 -34 -19 -34h-5v10h-5v-10q23 -11 24 -20v-10q0 -9 -14 -9q3 -20 9 -20l-9 -53l5 -10l-10 -25l5 -9q-4 -25 -10 -25l5 -10v-4h-10l5 -10l-10 -64q5 -10 5 -14q-5 -20 -10 -20l5 -10q0 -4 -5 -4q22 -201 54 -201q29 -29 73 -29q31 15 52.5 40t35 53.5
t19 56.5t5.5 50v44q0 5 5 5l-5 10q0 11 15 34v10h-10q0 11 2.5 33.5t7.5 54.5l-5 9l5 59q0 11 -1.5 39t-3.5 73h10v-10h5l5 64l-25 5h-9q-5 0 -5 -5q-12 5 -15 5q-12 -5 -15 -5q0 12 -78 68l-5 10l5 10l25 -5q9 0 9 5l25 -5q21 0 49 5q20 -5 44 -5h4q0 24 20 24q7 -5 24 -5
q1 10 10 10q33 -10 39 -10h15v-24l-10 -15q5 -14 10 -73.5t10 -165.5l9 -10l-5 -24l20 -98l-5 -9q5 -12 5 -15t-5 -15l5 -29v-29q0 -5 -5 -5l5 -10v-14q0 -5 -5 -5l5 -10v-59l-5 -29q5 -10 5 -24l-5 -10q10 0 10 -15q-5 -14 -10 -14q5 -12 5 -15q0 -24 -10 -24l5 -10
q-24 -49 -29 -49l-25 5l-24 -5q-12 5 -15 5l-9 -5q-48 0 -88 63h-5q-71 -30 -88 -43l-29 4q-71 -24 -73 -24q-152 0 -249 171q-13 28 -23.5 90t-20.5 159h5l-5 9v49l-5 25h5q-5 10 -5 14l5 25h10q0 -15 -5 -15l9 -63q-4 -9 -4 -15l9 -5q10 0 10 15q-5 10 -5 14q5 0 5 5
l-10 5l10 29q-5 10 -5 20l10 5q10 -1 10 -10l-5 -10q5 -8 5 -24l9 5h5v-10h-9v-10h14v-10q0 -9 -14 -9v-25q19 0 19 -9v-5l-10 5h-14v-10q19 0 29 -10l15 10l-5 10l5 9q-10 0 -10 15l5 10q-5 10 -5 14v5h5v-10h14v10h-14q14 20 14 30q-9 0 -9 29h-5q0 -25 -5 -25
q-12 5 -15 5v10h10l-5 10v10q24 0 24 9v25q-7 0 -14 -15q5 0 5 -5l-10 -5q0 10 -10 10q-12 -5 -14 -5v5q4 8 4 20l-9 4l-5 -24v-19h-10q0 24 -10 24q-8 -5 -19 -5v78h5l14 -10q0 18 10 64v10q-15 0 -15 19v34q5 0 5 5q-9 16 -9 25q12 9 24 9v15q0 27 44 161q0 14 10 44h-5
q-30 -23 -30 -54q5 0 5 -5l-14 -9l5 -10q-10 -11 -10 -20q5 -10 5 -14q-20 3 -20 9q5 36 16 75t28 82l-10 4q10 30 15 30l-5 10v4h15v15h-15q0 74 88 254q91 136 220 136h87q0 25 10 25zM241 1102h10q0 -10 -10 -10l5 -10v-4h-5q-9 4 -15 4l-4 -9q6 0 14 -15q-19 0 -19 -5
v-14q-25 -10 -25 -30l25 -14q0 48 39 48v-9h-10l5 -10q-11 -10 -25 -10q10 -16 10 -29q-7 0 -19 -39q5 0 5 -5h-10v-5q0 -7 14 -15q-6 -42 -19 -58l5 -10q-10 -1 -10 -10h10l-10 -14q15 -15 15 -34h9q0 12 15 29q-7 0 -15 14q25 4 25 30h-5l5 10v4h-10v-9h-10q19 73 30 73
l-5 -29h9q9 3 54 141q5 0 10 15q-5 0 -5 5l-10 -5l-9 5q-12 -5 -15 -5l-5 9q-9 -4 -15 -4v-10q16 -25 25 -25v-9q-10 0 -17 -7.5t-11.5 -17l-8 -17t-7.5 -7.5l-5 10l29 53v5h-14l-10 -5v5q0 5 5 5l-10 20q7 0 15 9l-5 10l9 15q0 10 -9 10l5 9v5h-5q-15 0 -15 -34zM295 1097
v-10h5v10h-5zM163 995q0 -3 -5 -15h10v15h-5zM319 995v-15h5v15h-5zM373 1000h10v-10h-10v10zM246 980h5v-10h-5v10zM270 970v-14h-9v4q1 10 9 10zM153 960l-5 -19q10 0 10 15v4h-5zM183 951q-30 -44 -30 -49l5 -10l-24 -49q9 -2 9 -9l-9 -20l5 -10q-5 -10 -5 -14h9l49 146
q-5 12 -5 15h-4zM139 936v-10h14q0 10 -10 10h-4zM334 907v-15q10 0 10 10v5h-10zM246 897q1 -10 10 -10h5v10h-15zM192 887v-14h5v14h-5zM373 868v-15h10v5q0 10 -10 10zM358 863q-2 -25 -3.5 -39.5t-1.5 -19.5q10 0 15 44q-5 12 -5 15h-5zM183 858v-5h9v5h-9zM309 858v-15
h5v15h-5zM324 853q-10 -20 -10 -34q20 5 20 29zM173 829v-5h10v5h-10zM192 814v-10h5v10h-5zM187 799v-9h5v9h-5zM348 795v-10h5v10h-5zM314 785v-10h5v10h-5zM353 780q-5 -28 -5 -29h10q0 21 5 29h-10zM192 736l5 -10q-5 -8 -5 -19q3 0 15 -5q0 29 10 29l-5 10v15q0 4 5 4
q-5 12 -5 15q-11 0 -15 -39h-5zM368 775v-10h5v10h-5zM153 770l-5 -10v-4h15v4q0 10 -10 10zM314 751v-10h10v10h-10zM148 746v5l10 -10v5h-10zM173 746v-10h5v10h-5zM344 736q4 -9 4 -15h5q0 15 5 25h-5q-9 -2 -9 -10zM143 736q-14 -39 -14 -49h10l14 49h-10zM163 731v-15
h15v5q0 10 -10 10h-5zM314 716h10v10q-10 -1 -10 -10zM344 716v-24l9 5q-5 8 -5 19h-4zM124 677v-4h10v4h-10zM148 673v-10h10v10h-10zM314 673l15 -5v5h-15zM344 673v-10h4v10h-4zM119 663q-10 -33 -10 -39v-5h10l10 44h-10zM143 658v-10q10 0 10 10h-10zM70 658h15
q0 -10 -10 -10h-5v10zM168 643v-9h5v9h-5zM339 643q0 -24 -10 -24l-10 5v-15q10 0 20 -5q0 20 9 20q-4 7 -4 19h-5zM148 634v-10h5v10h-5zM309 634l10 -5v5h-10zM134 624q0 -12 -10 -25v-5h19q-4 9 -4 15q4 9 4 15h-9zM65 619h10v-29h-10v29zM104 594q0 -7 -9 -19v-15h5
q9 0 9 10v24h-5zM129 585v-5h10v5h-10zM153 575v-5h10v5h-10zM329 551v-5h5q0 9 10 9v15q-8 0 -15 -19zM305 565l-5 -19q12 9 19 9q0 10 -10 10h-4zM114 551v-10h10v10h-10zM344 546v-10q9 0 9 10h-9zM90 541q0 -10 -5 -20h10l5 20h-10zM324 516h10v10q-10 -1 -10 -10z
M295 521v-5q12 0 34 -34q0 15 10 15q0 -5 5 -5v5q0 7 -20 15q0 -5 -5 -5q-5 10 -5 14h-19zM109 516v-9h10v9h-10zM139 497v-20l-5 -24l9 -5l5 24v25h-9zM309 463l-9 5l-5 -10q22 -34 29 -34h5l-5 9q0 10 15 10q-15 16 -15 29zM300 424v-10h5v10h-5zM314 419v-20h5v20h-5z
M61 390q0 -5 -5 -5q5 -10 5 -25q9 0 9 10v10q0 10 -9 10zM305 365v-10q1 -9 9 -9v19h-9zM61 355v-19h9v5q-5 10 -5 14h-4zM305 341v-10h24v15q-10 -5 -24 -5zM305 321v-14h9v14h-9zM61 175q1 -10 9 -10v10h-9zM95 165v-10h9q0 10 -9 10zM124 160l-5 -10v-4h15v4q0 10 -10 10
zM124 131v-5q1 -10 10 -10v15h-10z" />
    <glyph glyph-name="H" unicode="H" horiz-adv-x="718" 
d="M69 1307l34 -5h34q18 -5 26.5 -11t16 -18l19 -31.5t36.5 -51.5q-5 0 -5 -5h10v10q34 -52 34 -132q-5 0 -5 -5l10 -5q0 -5 -5 -5q6 -81 10 -88l-10 -29q5 -8 5 -19q0 -30 -10 -30l5 -9v-10q-49 -42 -49 -112v-64q6 0 29 78h5l5 -24q-7 0 -14 -15v-5h9q-3 -29 -9 -29l4 -10
v-14h-9v9h-5v-63q177 -39 234 -39v49h10q0 -25 24 -25q0 25 10 25q10 -10 10 -30h10v30l9 -5h5v5h-10v14q0 10 15 10q0 25 -15 25v9q15 0 15 15q-19 0 -19 24h-10l5 -9v-5h-10v24q0 5 5 5l-5 10v5q13 39 19 39q-7 19 -14 19l5 10l-5 34h5l9 -5v64h-4l4 39q-9 0 -9 9v5l9 -5
h5v5h-9v5l9 15h-14v19q0 5 5 5l-5 10q24 22 24 44q-15 0 -15 10q20 8 20 14q0 13 -20 15v5q1 10 10 10q0 -5 5 -5l5 39q0 19 -5 39l5 24q-5 22 -7.5 38t-2.5 26v5h10q0 -10 29 -15l5 -10l10 5q19 -6 29 -34q22 -10 25 -20q-7 0 -15 -14l15 -64q-5 -10 -5 -14q14 -5 24 -35
q0 -131 -39 -131l10 -15h-5l-10 5q0 -3 -5 -15h20v-5q-13 -14 -20 -58v-15h-5v-5q20 0 30 -19v-20h-10q0 25 -10 25q0 -20 -5 -20l5 -10q0 -9 -15 -9v-5l10 -15v-5h-10q5 -10 5 -14l10 5l5 -10l-10 -5q0 5 -5 5v-10q15 0 15 -15l-10 -5v15h-24v-5l19 -5v-9l-5 -10
q15 0 15 -20h5v10h10v-5q0 -7 -20 -19q0 5 -5 5v-10h10q-11 -15 -15 -34q10 -16 10 -25l10 5l10 -19l-5 -25h-10q0 25 -15 25v-10l5 -25q-5 0 -5 -4q10 -1 10 -10q0 -10 -10 -29q5 -12 5 -15l-5 -10l5 -10q-9 -41 -9 -53q4 -9 4 -15q-4 -9 -4 -15l4 -9q-4 -8 -4 -20v-5h9
q-14 -19 -14 -29v-5h5v10h9v-20h5q0 20 10 20h5l-10 -73l5 -10l-5 -34h10q0 24 29 44l5 -10q-19 -16 -19 -54q9 -18 9 -39v-24q15 0 15 -10v-10h-10l5 -34q0 -5 -5 -5l5 -24v-10l-10 -15l10 -4l-19 -35q14 0 14 -9l-10 -5l5 -10q0 -10 -9 -10l4 -24v-15l-9 -14
q2 -22 3.5 -35.5t1.5 -18.5q-9 0 -35 -44h-5q-39 27 -39 34v5l5 10h-9q0 -10 -15 -10q10 -19 10 -29q-15 0 -15 -15h-10q-5 0 -5 5l-9 -5h-35q-39 10 -39 44q15 28 15 34l-5 10q5 12 5 15q-10 0 -10 9q15 4 15 30q-10 0 -10 9v10h10q0 -13 10 -24v-30q6 0 14 -4q0 21 5 29
q0 5 -5 5l5 24v39q0 10 -10 10q-7 -5 -29 -5q-4 45 -10 54l3.5 18t1.5 16q0 4 -5 14l5 30v49q15 0 15 9q-5 37 -7.5 61.5t-2.5 36.5h5l-5 10v9l10 15q-14 44 -20 44l5 24v74q0 4 5 4q-4 25 -10 25q-41 0 -195 39q-18 -5 -19 -5q-10 5 -25 5q-5 -28 -5 -29q0 -77 10 -127
l-5 -30v-14q0 -13 3.5 -19t6.5 -6l-5 -9v-10h5l10 5l5 -10q-30 -44 -30 -59q27 0 30 -39h-15q15 -47 24 -48l-4 -30q0 -5 4 -5l-4 -9l4 -10q-9 0 -24 -83q-10 -1 -10 -10q20 -2 20 -14q-5 -10 -5 -20q13 0 19 -34q-9 -2 -9 -10q24 -6 24 -68l-10 -5l5 -10q-6 -24 -14 -24
l-10 5q-14 -3 -39 -25q-9 0 -44 -19q-10 5 -20 5q0 -15 -9 -15q0 14 -39 34l-10 34l5 20q-5 37 -7.5 63.5t-2.5 43.5h5q-10 21 -10 49l5 29q-5 22 -5 39h5q-5 12 -5 15q0 97 39 288v54q0 43 -1.5 87.5t-3.5 92.5q4 103 15 103q-10 14 -10 29v5l10 34q0 3 -5 15q10 87 15 87
q-5 12 -5 15q9 189 9 200h5q-8 34 -29 49v63q-45 45 -49 83zM630 1180v-10h10q0 10 -10 10zM635 1165v-9h5v9h-5zM581 1039v-15h5v15h-5zM547 1009v-9h5v9h-5zM557 995v-10h5v10h-5zM606 995v-10h5v10h-5zM581 975v-15h10v5q0 10 -10 10zM552 960v-9q10 0 10 9h-10zM586 936
q-14 -33 -14 -44h5q7 0 24 29q-5 12 -5 15h-10zM660 926h9v-9q0 -10 -9 -10q0 5 -5 5q5 10 5 14zM601 912v-20h5v20h-5zM640 897h10v-5h-10v5zM577 882q0 -39 -15 -39v-5h15q4 30 9 30q-5 12 -5 14h-4zM601 882q0 -13 -10 -24v-5q10 0 10 -5q-5 -12 -5 -14q10 0 10 24h-5v5
q10 0 10 5q-5 12 -5 14h-5zM572 834q0 -15 -5 -15q5 -10 5 -24q11 0 14 24q-9 0 -9 15h-5zM547 780v-10h10v10h-10zM572 775v-10h5v10h-5zM538 751q4 -9 4 -15q10 0 10 10l-10 5h-4zM572 751v-10h5v10h-5zM611 751v-10h5v10h-5zM567 736v-5q5 -12 5 -15h9v20h-14zM596 731
v-10h5v10h-5zM567 697q0 -25 19 -29v14q0 7 -14 15h-5zM523 697h10q0 -10 -10 -10v10zM225 682v-9h5v9h-5zM533 682l-10 -14v5q1 9 10 9zM572 663v-10h5v10h-5zM577 643l-10 5v-24q4 0 14 -5q0 19 30 19v5q0 10 -10 10h-10zM640 634h10v-5h-10v5zM567 604v-14h10
q-5 10 -5 14h-5zM484 599v-19l10 5q-5 10 -5 14h-5zM547 594v-9h5v9h-5zM591 594v-9q10 0 10 -15h10v5q0 7 -20 19zM581 565v-5h10v5h-10zM640 512v-40h-10v30q1 10 10 10zM240 492h10l4 -20l-4 -34h-5q-10 0 -10 10v15l10 14q-5 12 -5 15zM474 433v-19l20 -20
q-10 -1 -10 -9v-10l5 -25q-10 -1 -10 -9v-5l10 5l9 -5v5l-4 9q9 19 9 40v73q-29 0 -29 -30zM523 458l-5 -25l10 -4v29h-5zM635 453v-34h-10v24q1 10 10 10zM562 429v-10h5v10h-5zM245 424l-5 -34h10v-20h-10q0 13 -10 24q4 30 15 30zM572 409v-10h5v10h-5zM586 399v-14h5
q0 4 5 14h-10zM630 399h5q12 -5 15 -5q0 -7 -15 -14h-5v19zM567 380v-5h14v5h-14zM557 375v-25h5v25h-5zM586 355q0 -12 -14 -24l9 5h10l10 -5v10q0 6 -15 14zM562 321v-14q1 -10 10 -10q0 10 19 10v4zM479 316v-14q1 -10 10 -10v10q-5 10 -5 14h-5zM498 307v-15l5 -24h5v48
q-10 -1 -10 -9zM611 316v-9h5v9h-5zM235 316h15v-5h-15v5zM577 297q0 -9 -10 -20v-5q15 5 19 20zM611 204v-10l5 -24h4v34h-9zM79 116v-14q10 0 10 9v5h-10zM79 92v-25q10 0 10 10v5q0 10 -10 10zM79 24q5 -10 5 -20h5v29q-10 -1 -10 -9zM84 -1v-10h5v10h-5zM84 -16v-9h5v9
h-5zM474 -11q10 -1 10 -9v-5h-10v14zM498 -133v-44q0 -7 15 -14h20v5q-14 14 -30 53h-5z" />
    <glyph glyph-name="I" unicode="I" horiz-adv-x="339" 
d="M192 1326h15q5 0 5 -4l10 4q8 0 34 -19l-5 -34q0 -14 54 -161q24 -179 24 -191q-24 -215 -24 -346v-10q0 -12 4 -19l-4 -10q0 -5 4 -5l-4 -24v-113q0 -11 -5 -19l5 -10q-35 -99 -40 -200h15q-29 -58 -29 -181q-5 0 -5 -87v-35q0 -8 -34 -29v5q-11 0 -69 -78h-48
q-14 4 -64 117q2 34 3.5 56t1.5 32q0 4 -1.5 23.5t-3.5 54.5l15 29q-5 28 -5 30t1.5 12t3.5 27l-5 24q14 94 21.5 157t7.5 97v73q-9 12 -9 20l19 283l10 14v59l-5 29q5 12 5 15l-5 9l39 259q5 0 5 5v44l-5 29q22 64 63 64q0 4 5 4z" />
    <glyph glyph-name="J" unicode="J" horiz-adv-x="607" 
d="M473 1380v-5l10 5l34 -5q8 5 19 5l5 -10l10 5h10q6 0 14 -14v-5l-14 -30q9 -48 9 -87v-25q0 -120 -9 -190q5 -12 5 -15q0 -5 -5 -5l5 -19l-10 -64q5 -8 5 -19q-10 -1 -10 -10q0 -10 15 -10v-29q0 -12 4 -19q-4 -9 -4 -15l4 -34l-4 -10q3 -19 9 -19l-5 -25l5 -24l-9 -20
q0 -5 4 -5q-3 -34 -9 -34l5 -10v-44q0 -24 -10 -24l5 -10l-5 -34q10 -1 10 -10h-5l5 -9v-10q0 -5 -5 -5l5 -10v-49q0 -12 4 -19q-4 -9 -4 -15q2 -17 3 -27t1 -12l-4 -10q0 -4 4 -4q-8 -83 -14 -83l5 -10v-20l-15 10v-10h10v-9q-15 0 -15 -10q15 0 15 -10q-4 -34 -10 -34
l5 -10q-6 -19 -24 -19v-5h9v-5q-15 -16 -19 -54l-20 -29l-9 5v-10h9v-5h-9v-24q-17 -38 -69 -78q0 -50 -34 -78l5 -39q-10 -24 -44 -49l-10 5q0 -10 -10 -10v10l-122 -15l5 10v5h-9v9h14v-9h39q25 19 34 19l20 -5q8 5 19 5l-9 15q23 11 24 19v10q-53 -39 -127 -39v5l-10 -5
h-9q-5 0 -5 5l-10 -5q-11 0 -19 5q-10 -5 -20 -5q-4 14 -54 34q-68 207 -68 278l-29 54h-5q0 56 83 88q6 24 14 24h35l19 -24q2 -17 3.5 -27t1.5 -12q-5 -28 -5 -29q5 -12 5 -15h-5q10 -16 10 -29q-5 0 -5 -5q15 0 15 -10l-5 -24q11 0 34 -113l10 -5q131 30 131 83
q32 0 64 254q0 33 10 49q-5 22 -5 34l5 10q0 5 -5 5q2 17 5 48t5 79q-5 10 -5 14q14 0 14 10v34h-5v-10h-4v10q2 25 3.5 55.5t3 57.5t3 45t4.5 18l-5 10q0 9 5 9l-5 49v25q0 36 5 100t15 158q-10 0 -10 10h5q0 5 -5 5q5 20 10 49.5t10 67.5q-5 10 -5 20q0 4 5 4q0 5 -5 5
q5 74 24 74q0 14 10 14zM414 619v-10h5v10h-5zM126 111v-9q10 0 10 9h-10zM336 -211v-9h5v9h-5zM170 -220l5 9q4 -7 7.5 -11.5t7.5 -12.5h-10q-10 0 -10 10v5z" />
    <glyph glyph-name="K" unicode="K" horiz-adv-x="872" 
d="M661 1429h19q28 -17 39 -63q64 -48 64 -54v-44q-26 -51 -69 -88l-4 -10l14 -24q-12 -24 -19 -24h-5q-14 2 -25 3t-19 1v-14q-22 -37 -29 -39q-37 -49 -54 -98q-9 0 -12.5 -7.5t-7.5 -17t-11 -17t-23 -7.5q5 12 5 15l10 -5h5v10l-10 -5v10q59 91 59 92l-10 15v5l29 -5
q0 28 24 54q-4 0 -4 5q3 0 39 48l-20 15h-5q0 -21 -44 -83q-3 0 -16.5 -19t-46.5 -69l10 -14q-20 -5 -74 -108q5 0 5 -5q-14 -3 -24 -24v-10q8 0 24 -10q0 30 34 30v5q-14 0 -14 9q10 0 10 15h14q0 -10 10 -10v-9h-10l5 -10q-15 -12 -15 -30h-19v-4h10v-15q-10 0 -39 -59
q9 -2 9 -9q-4 -1 -73 -93v-5q36 -41 54 -93q1 0 5.5 -3.5t9.5 -10t9.5 -16.5t4.5 -23l10 5h5l5 -20q-5 0 -5 -5q16 0 29 -58q32 -56 62.5 -102t59.5 -84l-5 -10h15l-5 -9v-5l5 -10l10 5q8 0 14 -34q-14 0 -14 -10l9 -5q5 12 5 15h5q0 -33 25 -34q0 -19 34 -44q0 -15 97 -161
l5 -25q-12 -5 -14 -5v-5l14 -24q-10 -34 -19 -34q-12 5 -15 5v-5l5 -10q-21 -5 -34 -15l-10 5q-15 -44 -29 -53q-10 0 -10 14h-15q-18 -29 -24 -29q-24 24 -39 24v5l5 10q-5 0 -5 5l-10 -5h-5q-39 49 -39 63q5 12 5 15q-27 27 -146 220q-13 7 -64 131q-11 0 -53 108l4 10
q-38 126 -53 126h-5v5q0 5 5 5q-8 20 -15 20l-15 -10h-4v10h-10q0 -9 -4 -19t-11 -25q-13 -28 -18 -55.5t-6 -56.5v-10l5 -25h-5l5 -9v-44q0 -144 -15 -205v-15q0 -12 15 -58q0 -5 -5 -5l5 -25v-19h14q-25 -20 -34 -54q5 0 5 -5q-35 -29 -44 -29q-26 28 -49 102q20 78 20 83
l-10 -4l-10 4l5 -29l-10 -5q0 9 -24 44l-10 29q-9 -2 -9 -9q9 0 14 -30h-5q-12 0 -19 39q18 15 34 15l5 -10q-5 0 -5 -5h5q10 0 10 10l-35 29v5l20 20v5l-10 -5q-10 0 -10 10v9h10v-9h10l-5 24l-10 -5h-5v15q0 13 10 29q-10 0 -10 10q0 5 5 5l-5 9v25l10 15l-10 14v10l5 24
h15l5 -24q-5 -15 -10 -15l5 -24v-15q0 -11 -5 -19q5 -10 5 -20v-10l-10 -14q3 0 15 -5l5 10v34q0 11 5 19q-5 10 -5 20v10l5 9h-10v5l19 25l-14 9q9 16 9 30l-9 -5h-5v10h-5v-10q10 -1 10 -10v-10h-10q0 10 -20 25h5l-5 9v30q20 0 20 10q-5 8 -5 19l-10 -5h-5v10q11 0 20 10
q12 -5 15 -5l-5 10l9 4q1 -9 10 -9q0 19 5 19l-5 10q5 8 5 19q-5 0 -5 5h5l15 -9q0 4 5 4v-24h-10v-15l10 5q9 -24 9 -34h5q0 13 1.5 37.5t3.5 60.5q-10 34 -10 39h-9q0 -5 4 -5q-5 -34 -9 -44l9 -5q0 5 5 5v-10q-4 0 -14 -5q0 3 -25 25l5 24l-10 5v-5q0 -5 5 -5
q-5 -34 -9 -44q9 -17 9 -29v-10h-5q-13 0 -19 39q5 0 5 5q-10 0 -10 10q10 24 15 24l-5 25v19q1 10 10 10h4v-10h5q0 15 5 15l-5 10q5 10 5 14v5h-5q0 -19 -14 -19l-5 9q0 10 24 15v15q-10 0 -10 -15h-4q-10 0 -10 10q10 11 10 24h4l10 -5v10q-19 0 -19 20q11 0 14 24
q-5 0 -5 5q5 0 5 5q-6 0 -14 14l9 15q-6 0 -14 20l10 5h4v-20l25 5v-10h19v5q-14 0 -14 20l-10 -5h-5q-12 24 -19 24h-5v10q17 0 24 10l-5 24q0 11 5 19q-5 12 -5 15q5 12 5 15l-10 -5h-5l5 29l30 -5l4 20h-14v-10h-5v15q0 19 19 19v15l-14 -10h-5v39l5 10q-10 0 -10 5
q9 24 24 24v5q-14 17 -14 24q4 93 14 93q-9 0 -9 10v19l14 25q-9 0 -9 10q0 4 4 4l-4 25v10q0 5 4 5q0 4 -4 4q9 59 14 59l-5 10l20 58q18 39 58 39l15 -34l-10 -19q6 -30 15 -30l-3.5 -129.5t-1.5 -89.5v-152q9 0 64 79q11 0 165 190q132 185 147 185q31 15 44 15z
M714 1224v-10q10 0 10 10h-10zM661 1209v-5q1 -9 10 -9h9v14h-19zM690 1185v-10q10 0 10 10h-10zM744 1190l-5 -29h-10v14q0 7 15 15zM666 1146v-10q6 0 14 15q-10 -5 -14 -5zM680 1141q5 -12 5 -15h5q7 0 15 15l-10 5q-12 -5 -15 -5zM95 1126h9v-9h-9v9zM95 1087h9v-14h-9
v14zM505 1073q0 5 -5 5l-15 -30v-9h20q0 26 24 43h-10zM680 1082l-9 -9q1 9 9 9zM95 1058h9v-29q0 -10 -9 -10l-5 10v5zM56 1043h9v-14h-9v14zM514 1039v-10h5v10h-5zM470 1034q-14 -30 -14 -34h19q0 9 20 29l-10 5h-15zM500 1024v-10h14q0 10 -9 10h-5zM495 1009v-9h10
q0 9 -10 9zM139 1004v-9h4v9h-4zM446 995v9q0 -14 3.5 -19.5t11.5 -9.5v10q0 10 -10 10h-5zM485 990v-5h10v5h-10zM475 975q1 -10 10 -10v10h-10zM90 975h10v-5h-10v5zM436 965q1 -9 10 -9v9h-10zM466 960q1 -9 9 -9v9h-9zM80 956l5 4q10 -7 10 -14v-5q0 -10 -10 -10l-5 10
v15zM422 946l5 -5v-15h-15v-14h19q0 10 10 34h-19zM109 926h10v-5h-10v5zM80 921h5q10 -1 10 -9l-10 -5l-5 10v4zM402 902v-5q0 -8 15 -15v20h-15zM387 882v-4q5 -12 5 -15h5q10 0 10 10q0 9 -10 9h-10zM85 882h5v-4q0 -10 -10 -10l-5 10zM46 878h10v-10h-10v10zM378 858
v-10q11 0 19 -5v5q0 10 -10 10h-9zM134 853l-5 -24v-20l10 5l-5 24l9 15h-9zM75 848h5q10 -1 10 -10v-14h-5q-10 0 -10 10v14zM446 838l5 -9v-5h-20v-5l10 -15v-5h-5l-9 5l-5 -24q29 0 44 44q-5 12 -5 14h-15zM363 819v-10h5v10h-5zM392 809h10v10q-10 -1 -10 -10zM353 795
v-15h10q-5 12 -5 15h-5zM134 775v-10h5v10h-5zM344 775q1 -10 9 -10v10h-9zM412 770q0 -19 -10 -29v-5h20l5 10l-5 10q5 10 5 14h-15zM329 741v-5h15v15h-5q-10 -1 -10 -10zM75 741h10l-5 -25q5 0 5 -4q-10 -1 -10 -10q5 0 5 -5l-10 -5l-5 10q10 34 10 39zM392 687h10v10
q-10 -1 -10 -10zM119 682q10 -11 10 -19h5v19h-15zM139 658q0 -21 9 -39q-5 0 -5 -5l-9 5h-10l24 -44v-5q-14 0 -14 -10q19 0 19 -14h5v19q0 10 -5 20q5 8 5 19q0 20 -10 20l5 24l-5 20q-9 -2 -9 -10zM402 624q1 -10 10 -10v10h-10zM387 565v-10h10v10h-10zM124 458v-5h10v5
h-10zM285 453l5 5l7.5 -7.5t2.5 -7.5l-10 -5l-5 10v5zM104 414v-10h10q0 10 -10 10zM129 409v-15l5 -29q0 -5 -5 -5l5 -24v-10l-10 -15h10q19 45 19 83v5h-10l5 -9v-10h-9v29h-10zM95 385v-10h14v15q-10 -5 -14 -5zM75 370v-10h10v10h-10zM114 341v-20h5q0 3 5 15zM153 321
v-10h5v10h-5zM109 277q5 -8 5 -19q-10 -1 -10 -10q10 -1 10 -10v-5q0 -9 -10 -9q5 -10 5 -25h20v10q-3 0 -15 5q6 9 10 44h5q5 0 5 -5l9 5q10 0 10 -15h5v15q0 4 -5 14q5 10 5 20v10h-15q-34 -15 -34 -25zM139 282h9v-5h-9v5zM134 219v-5h14v5h-14zM139 204v-5q2 0 14 -5v15
q-12 -5 -14 -5zM651 199q1 -10 10 -10h5v15q-12 -5 -15 -5zM100 170v-5q29 11 29 20h-5q-24 -8 -24 -15zM534 180q1 -10 10 -10h5v10h-15zM114 165v15q2 -20 3.5 -26t1.5 -8h10q-5 8 -5 19h-10zM685 136v-10q15 -17 15 -24h10l-5 34h-20zM119 126v10l10 -25q-5 12 -5 15h-5z
M568 126v-15h10v5q0 10 -10 10zM109 92q0 -8 15 -15l-5 -10q5 -8 5 -19h5l5 34q-10 0 -10 15q-12 -5 -15 -5zM90 58v-10q19 0 19 -15h5v5q-5 10 -5 20h-19zM646 53q1 -10 10 -10v10h-10zM70 14h10q0 -10 -10 -10v10zM65 -1h10v-5h-10v5zM236 -20h10l-10 -39h-10q10 30 10 39
z" />
    <glyph glyph-name="L" unicode="L" horiz-adv-x="928" 
d="M594 1361q39 -6 39 -15l10 5q61 -22 88 -78v-20q0 -6 -24 -24q-13 0 -33.5 -1.5l-49.5 -3.5q0 10 -69 49h-19q-54 0 -93 -59v-49q15 -119 15 -156q-5 0 -5 -5q5 0 5 -4q-10 -1 -10 -10q10 -1 10 -10v-15h5q0 -4 -15 -14l5 -10q0 -5 -5 -5q2 -10 5 -36t5 -71h10v-10h-10
v-20l10 -14q-10 -16 -10 -25q10 -14 10 -24q-10 -1 -10 -10v-5q1 -9 10 -9h9q0 9 -9 9q3 20 9 20l-5 29l5 49h5q10 -1 10 -10v-5l-10 -14q10 -1 10 -10q0 -10 -10 -10l10 -19q0 -5 -5 -5q10 -64 20 -64l-5 -24q4 -127 19 -127h5l-5 24l15 10q10 0 10 -14q0 -39 -20 -39
q-9 4 -15 4l-14 -156q0 -5 5 -5l-10 -102q15 0 15 -10v-5q0 -10 -20 -10l10 -14v-5q-16 -9 -34 -93q-5 0 -5 -5v-14q68 -21 156 -127l34 -5h39q17 0 88 39h39q10 0 10 10q0 6 -1.5 24t-3.5 49q0 52 44 93h5l19 -15l-5 -34v-29q0 -23 25 -69q-10 -19 -10 -34q5 -14 10 -25
t10 -19l-5 -10q6 0 14 -14h-5l5 -10v-5q0 -10 -9 -10q0 5 -5 5q0 -19 -15 -19l5 -10v-5q-6 0 -49 -58q-104 -59 -166 -59h-10q-175 0 -253 122v5l-10 -5q-27 24 -29 24l-25 -4l5 -10q-23 -27 -141 -54q0 -29 -108 -44h-78q-11 0 -19 -5q-10 5 -20 5h-24q0 25 -30 25
q0 17 -39 29q-9 19 -9 34q0 68 112 161q83 44 176 44h9v5q0 215 30 332q-5 10 -5 14h5q-5 12 -5 15q0 5 5 5q-10 44 -10 54l10 -5v9q0 3 -5 15l5 29v15h14v19h-5v-9h-9v9q1 10 9 10l10 -5q4 64 20 108q-5 8 -5 19q9 39 9 49v54q1 24 10 24q-10 21 -10 49q13 0 30 98l-5 29
v44h10v-15h9v29h10v25l-10 -5h-4q3 15 19 19l-5 25q0 10 15 10v14l10 44h4v-19l39 68q72 93 205 93zM238 1185h10v-15h-10v15zM297 1141v-15q0 -9 -10 -9h-5v5q7 19 15 19zM238 1092h10q0 -11 5 -19q0 -5 -5 -5l5 -34v-30h-15q0 15 -5 25l3.5 25t1.5 19v19zM394 1087v-14h5
v14h-5zM214 1078l5 9l-5 -39q-10 0 -10 10v10q1 10 10 10zM204 1043h10l5 -43q-11 0 -15 43zM302 1039v-10h5v10h-5zM389 1039v-5q1 -10 10 -10v5q0 10 -10 10zM394 1019l-5 -10q0 -5 5 -5q-9 -15 -9 -29l4 -24q12 5 15 5q0 4 -5 4l5 25v24q0 10 -10 10zM360 1000
q5 -58 7.5 -121.5t2.5 -132.5q0 -3 5 -15l-5 -10q0 -4 5 -14q-4 -84 -8.5 -140t-11.5 -85l5 -10v-4q0 -5 -5 -5q0 -5 5 -5l-19 -132q4 0 14 -5q1 10 10 10l5 -10v-5l-15 -19l10 -5l-5 -10v-5h10q9 0 29 122h10l-3.5 -43t-1.5 -30v-10l-5 -9q5 0 5 -5q-10 -1 -10 -10l10 -20
l10 5h5q-15 -12 -30 -63h10q5 29 25 29h5v20q0 11 -5 19l5 10q0 5 -5 5q4 49 9 49q-9 25 -9 39q10 5 14 5v4q-4 0 -14 5l5 25v44q0 4 4 4l-4 10v5h9q-4 33 -9 44q4 8 4 20v4h-9q-2 -13 -3.5 -20t-1.5 -9q0 -5 5 -5q-10 -37 -10 -92h-10v34q0 97 10 97q0 5 -5 5l5 25v14
q0 15 -5 15l5 24v142h-15l-5 -25q0 -2 5 -14l-5 -10l5 -10q0 -10 -5 -10l5 -34v-29q0 -5 -5 -5l5 -10q0 -46 -4.5 -104t-14.5 -130l5 -10q-14 -53 -20 -53q-5 10 -5 14l25 205q0 5 -5 5l5 25v87q0 11 1 24t3 30q-5 15 -9 15l5 24v10q0 11 -1.5 24l-3.5 30q0 4 5 4l-5 25v58
l-5 30q0 5 5 5l-5 24v20h-15zM419 970q10 -16 10 -29l-5 -10q5 0 5 -5q-10 -1 -10 -9h19q-5 10 -5 14l5 34q-9 0 -9 15q-10 -1 -10 -10zM214 980h10v-5h-10v5zM253 975l5 -10l-10 -5h-5v5q1 10 10 10zM253 941q5 -12 5 -15l-5 -9q5 -10 5 -20h-15v34q1 10 10 10zM389 936
v-15l5 -9q12 5 15 5v9q-10 0 -10 10h-10zM214 912h10v-10h-10v10zM389 882q5 -10 5 -14h5v10h-5l5 9v10q-10 0 -10 -15zM429 897v-5h14v5h-14zM219 892l9 5v-15h-9v10zM429 882q0 -11 -5 -19l9 -59q-9 -2 -9 -9q9 -2 9 -10q-4 -9 -4 -15q7 0 19 25q-4 30 -15 53l5 34h-9z
M258 868l5 -10l-10 -5h-5v5q1 10 10 10zM394 858v-24h5q10 0 10 9v10q-3 0 -15 5zM219 848h9v-10h-9v10zM472 843l5 -5q10 6 10 -4v-5h-5q-10 0 -10 9v5zM394 829v-10l5 -24h10v24q0 10 -10 10h-5zM224 775h9v-15h-9v15zM438 770q1 -10 10 -10v10h-10zM224 751h9v-15h-9v15z
M224 726h9v-24h-9v24zM429 712v-10q9 0 9 10h-9zM463 707q0 -10 -5 -10q0 -5 5 -5l-5 -24v-25q0 -14 -1.5 -33.5l-3.5 -44.5q5 -12 5 -14h-10v-10l5 -25h10l5 25v19h4l10 -5v5q-14 20 -14 30h4l10 -5v14h-14v10q0 10 14 10v10l-10 14v15q1 10 10 10q-12 39 -19 39zM433 677
q5 -8 5 -19h10v34q-8 0 -15 -15zM224 687h9v-10h-9v10zM224 653h9l5 -19q-5 -12 -5 -15h-5q0 17 -4 34zM185 648l4 -10q0 -9 -9 -9l-5 9q1 10 10 10zM433 638l-4 -9v-49q2 0 14 -5v5l-3.5 25t-1.5 19h10v10q-6 0 -15 4zM536 624h5v-10h-5v10zM175 604l10 10l4 -39
q0 -5 -4 -5l4 -10v-19l-9 -15l5 -10l-10 -4q0 4 -5 4l5 10l-5 10q7 0 15 15q-15 0 -15 9v5h10q0 10 -10 10zM185 502q0 -5 4 -5l-4 -29h-10v24q1 10 10 10zM458 487v-10q10 0 10 10h-10zM185 443l4 -10v-19q0 -10 -9 -10l-10 5q4 34 15 34zM189 326v-29q-11 10 -19 10v9
q8 0 19 10zM336 316v-5h14v5h-14zM341 302v-5h9v5h-9zM336 292v-29h10v24zM389 272v-9h5v9h-5zM502 268l9 4v-14h-9v10zM389 258v-10h5v10h-5zM370 253q0 -27 -5 -34h10q0 1 5 29zM175 214h10v-10h-10v10zM180 106q9 -2 9 -9h-9v9zM23 -30v-5l103 10q12 -5 15 -5
q58 25 58 58q-134 0 -176 -58zM385 -35v-10h4v10h-4zM458 -35v-10h5v10h-5zM468 -40v-15q6 0 15.5 -1t23.5 -3q0 11 -39 19zM399 -59v-10h5v10h-5zM511 -59q0 -14 30 -30v20l-10 -5q0 7 -15 15h-5zM414 -64v-5h15v5h-15zM560 -64q0 -8 15 -15h5q0 7 -15 15h-5zM594 -64v-10
h5v10h-5zM438 -69v-10q1 -10 10 -10q0 3 5 15l-10 5h-5zM463 -74v-5l24 -5v10h-24zM604 -74v-10q5 -12 5 -14q-10 -1 -10 -10h20q0 4 5 14q-12 0 -15 20h-5zM399 -89v-5h20v5h-20zM458 -89q0 -9 -10 -9v-5h10l5 9v5h-5zM516 -89q0 -11 -5 -19h10q0 11 5 19h-10zM526 -113
l10 -5h10q9 0 9 10l-9 5h-10q-10 -1 -10 -10zM433 -118v-5q10 0 20 -5v20q-11 -10 -20 -10zM555 -128q7 -19 15 -19h20q-7 19 -35 19zM536 -152v-5q1 -10 10 -10v5q0 10 -10 10zM599 -162v-5h10v5h-10z" />
    <glyph glyph-name="M" unicode="M" horiz-adv-x="1272" 
d="M190 1390h5q78 -44 78 -83q10 7 49 15q9 -25 34 -25q0 25 29 25l34 -103q120 -139 156 -346l142 -552q13 0 29 127q0 88 117 444q0 20 20 68q19 72 19 83l-5 20l25 88l-29 83l14 34l39 -10q0 5 5 5l-10 44q5 23 25 39l24 -5h15l29 5q20 -5 20 -10l9 5q5 0 74 -29
q14 10 29 10q10 -30 10 -44v-44q0 -48 9 -127h-5q16 -38 35 -132l-5 -19q19 -42 19 -279v-19q0 -318 -49 -532l5 -20l-5 -9q8 -20 15 -20h10v10h10v-20q0 -9 -15 -9v-15q0 -49 20 -49l-5 -10v-14h9v-15q0 -22 10 -39q0 -28 -29 -63l-5 -10q-7 5 -24 5q-17 -11 -20 -25
q-54 -9 -54 -19v-15l15 -19v-10q-39 0 -39 24h-24v15h4v20q-29 23 -29 34q10 0 10 9l-10 5l5 49v34q0 10 5 20q-10 14 -20 117q7 105 15 146q-5 12 -5 15h5q0 5 -5 5q5 36 7.5 64t2.5 48l-10 20q6 258 15 312q-5 8 -5 19q15 0 15 210l-10 5q0 -21 -5 -29l5 -29
q0 -46 -44 -181q-14 -56 -39 -93q-15 -17 -20 -127q-5 0 -14 -19l5 -10q-10 -49 -25 -49h-5v10q-12 0 -19 -39h-5l-10 5l15 49h-15q-7 -31 -10.5 -49t-3.5 -24l19 14v-10q-44 -90 -44 -112v-5l20 15v-10q-8 -11 -16.5 -32t-18.5 -51v-19q64 79 64 132q10 0 10 19h5
q9 0 9 -15l-19 -58l5 -10q-23 -80 -39 -98l5 -9v-5h-10v-10l10 5l4 -10q-9 -18 -9 -39q5 0 5 -5q-7 0 -20 -34h15q0 -11 -5 -19q0 -5 5 -5l-5 -34v-49q0 -10 -10 -10l5 -10q-7 -19 -15 -19h-5v14h-5q0 -17 -29 -34q-10 -21 -10 -34h-4l-20 15q0 -10 -10 -10v10l-24 -5
q-3 12 -78 39q-34 12 -34 151q5 0 5 5h-10v5l5 10l-10 5l5 9v5h-10v34h-10v15l5 10q-19 0 -19 39q9 0 9 10q-28 106 -44 107l5 10q0 21 -14 44q0 4 5 4q-13 75 -30 98q-11 46 -15.5 72.5t-6.5 39.5t-5 16.5t-12 3.5q-12 -5 -14 -5l-5 10q19 45 19 58h-5l-9 -5v10l4 25
q-7 0 -19 9q-8 -44 -34 -44v10h-5v-5q5 -8 5 -19l14 9q9 -4 15 -4l-5 -25q0 -11 5 -19q-5 -12 -5 -15h-5q-3 49 -24 49v-5q10 -49 19 -59l-9 -24q14 -42 14 -54h10v20h10v-15h5l14 10q10 -1 10 -10q-17 -83 -34 -83v-24h5l14 10q0 -5 5 -5q0 5 5 5v-5q-4 -18 -9 -31.5
t-10 -22.5q9 0 9 -15q0 -20 -9 -44l5 -9q-4 -34 -10 -34l10 -20q-5 0 -5 -5q9 -2 9 -10l-4 -9l4 -30l-4 -9l4 -10l-9 -29l5 -30q-13 -97 -20 -97l5 -10l-5 -29q5 -10 5 -20l-29 5q-41 -59 -49 -59q-18 5 -20 5q-36 -25 -44 -29q-43 22 -43 73v5h-5q0 -11 -5 -19l5 -30
q0 -9 -10 -9h-5q-10 0 -10 9v10q0 10 5 20l-10 24l5 10q-5 12 -5 14q0 10 10 30q-5 44 -15 44l10 29h-10v5q0 13 10 29q-5 12 -5 15h-24l-5 24h5q10 0 10 -19q9 0 19 34h-10q0 41 -14 58q0 10 14 10v10q-19 0 -19 10v4h10v10q-3 0 -15 5q5 8 5 29q19 -7 19 -19h5v5l-5 9v15
h-9l9 15q-19 0 -19 14l10 15q-7 0 -20 24q34 13 34 20t-14 15q-5 0 -5 -5l-10 5l-15 -10h-4v5q4 8 4 14l10 -5h5q0 9 10 25v15h14q-9 12 -9 19q0 27 9 59q-9 0 -9 9v30q0 5 5 5q-5 14 -10 14q5 8 5 29h5l9 -4v19l-9 15h4l10 -5v14q-19 0 -19 25l9 5q0 -5 5 -5v5l-9 14v5
l4 10q-9 0 -9 10v29l-5 29q4 25 10 25q0 5 -5 5l5 29l-10 15l10 14v5l-5 10l-10 -5h-10q-10 0 -10 10l20 14q1 -9 10 -9v14q0 10 -15 10l15 59l-5 9l5 10q0 5 -5 5l5 24v10q-9 0 -20 29v15h5q10 0 10 -15h5q0 16 2.5 21.5t6 8.5t8 9t7.5 25q-10 0 -10 14q0 5 5 5l-5 30l5 39
h-5v-15h-5q-9 0 -9 15h-5q0 -49 -10 -49q0 5 -5 5l-5 -10l5 -10l10 5h5v-15l-10 -14q10 -1 10 -10v-5q0 -5 -5 -5l5 -9v-5h-5q-11 0 -24 73l9 5l-5 24v29q-126 40 -126 98v5q1 10 48 39h25q41 -29 83 -29v5q0 10 -20 73l10 5q12 -5 15 -5v5q-10 19 -10 29zM336 1331h5
q10 -1 10 -9l-10 -5h-5v14zM239 1273v-5h9v5h-9zM234 1239v-5h10v14q-10 -1 -10 -9zM1024 1195q6 -92 15 -137h-10l10 -15q-5 -10 -5 -14l24 -15q-7 -19 -14 -19l5 -10l-5 -44q19 7 19 15v48l5 49q-14 0 -14 103q-10 0 -10 9q6 0 29 39v5q0 8 -19 20q-30 0 -30 -34z
M204 1204l-4 -24q1 -10 9 -10h5l-5 34h-5zM248 1204v-9h5v9h-5zM248 1185v-10h10v10h-10zM170 1161q5 -12 5 -15h5v15h-10zM268 1156v-5q1 -35 15 -49q-10 -16 -10 -29q1 -10 10 -10q0 -5 -5 -5q9 -38 9 -49h-14q-10 0 -10 10q-24 -6 -24 -15q5 0 5 -4l9 4h10v-24l-5 -10
q10 -1 10 -10l-5 -24l3.5 -18t1.5 -16l24 5q0 -5 5 -5v10l-14 19q4 15 9 15q-3 10 -9 54l9 4q1 -9 10 -9h10v14q-20 26 -20 73q5 12 5 15h-10v25q-13 34 -19 34zM175 1141v-10h5v10h-5zM224 1107l10 -5h5v20q-8 0 -15 -15zM424 1102v-10h10v10h-10zM195 1102h9v-5h-9v5z
M239 1073q1 -10 9 -10h5v10h-14zM444 1058v-5h9v5h-9zM239 1034v-10h14v10h-14zM165 1034h10v-10h-10v10zM219 1024l-5 -10v-14h5q0 9 10 9v5q0 10 -10 10zM214 990v-10h5v10h-5zM244 990q1 -10 9 -10v10h-9zM302 956l10 -5h5q0 14 9 14q-4 9 -4 15q-20 -5 -20 -24zM395 975
v-24h14l-4 24h-10zM439 975v-19l9 -5v5q-4 7 -4 19h-5zM209 970v-78l-5 -29q5 -10 5 -20h10q0 10 5 10l-5 25v19l5 34l-10 5l5 10v24h-10zM326 936q0 -6 -4 -15l9 -4v19h-5zM244 931v-10h9v10h-9zM448 926v5l10 -10v5h-10zM278 897v-15h9v15h-9zM307 897l-10 -15q5 0 25 -24
q-5 -10 -5 -20h5q9 0 9 10v15q0 8 -19 15l5 9q0 10 -10 10zM278 873q5 -35 14 -35h5v15l-5 25h-5zM165 878h5v-10h-5v10zM370 853q15 -68 25 -68q-5 -12 -5 -15h-5l-10 5q0 -24 -14 -24q-9 34 -20 34q9 -73 25 -73h4l-4 39q6 0 14 -15v-5q0 -5 -5 -5q15 -74 15 -97
q10 0 15 24q-4 67 -20 112q11 0 15 25q0 6 -20 63h-10zM209 829h10v9q-10 -1 -10 -9zM180 814h10v-10h-10v10zM209 795v-15q10 0 10 10zM248 785v-10h5v10h-5zM209 775q0 -17 -5 -39h10q0 3 5 15q-5 8 -5 24h-5zM307 760q5 -10 5 -14h5v19zM263 760v-4h10v4h-10zM248 756
q5 -12 5 -15h5v10zM268 751v-10h5v10h-5zM244 721v-19h9q-5 8 -5 19h-4zM326 716q-4 -8 -4 -14q4 -9 4 -15h5l5 25zM273 707q0 -3 -5 -15l10 -5v20h-5zM209 702v-10h5v10h-5zM239 687q1 -10 9 -10v10h-9zM209 677v-9h5v9h-5zM244 673v-10h4v10h-4zM356 668q-5 -28 -5 -30v-4
h5q1 19 14 19q-4 9 -4 15h-10zM165 668h5q12 -5 15 -5v-10q-18 -5 -20 -5v20zM268 663q1 -10 10 -10v10h-10zM273 648v-10h5v10h-5zM370 648v-24q10 0 10 10q-5 10 -5 14h-5zM165 638h10q10 -1 10 -9q0 -10 -10 -10t-10 10v9zM268 629v-5h10v5h-10zM405 624v-5h9v5h-9z
M356 599h10v10q-10 -1 -10 -10zM175 594l10 -14v-10q-10 0 -20 -5l-4 10q9 0 9 10q-5 0 -5 5zM244 585v-10h9v10h-9zM268 565v-14h10l-5 9q5 12 5 15q-10 -1 -10 -10zM463 575v-15h5v15h-5zM170 555h5q-5 -10 -5 -14q-9 0 -9 10zM234 546q1 -10 10 -10h4v10h-14zM209 531h10
v10q-10 -1 -10 -10zM268 536v-10h5v10h-5zM170 531l5 5l7.5 -7.5t2.5 -7.5q-10 -11 -10 -24h-5q0 7 -9 19q9 0 9 15zM273 512v-15h5v15h-5zM419 512h10v-5h-10v5zM912 497v10l10 -20v20q-10 -1 -10 -10zM170 497q0 -15 10 -15v-14h-5q-9 4 -14 4v15q1 10 9 10zM244 492v-5
q1 -10 9 -10h5v10q-4 0 -14 5zM229 482v-14h5v14h-5zM263 472q5 -10 5 -14h5v14h-10zM366 468v-30h9v20q0 10 -9 10zM239 458v-5h9v5h-9zM175 443h10v-14h-10v14zM161 404h19v-10q-15 -4 -19 -4v14zM248 390v-10h10q0 10 -10 10zM170 380h5v-5q-8 -20 -14 -20v15q1 10 9 10z
M244 365v-5h9v5h-9zM195 360v-10h5v10h-5zM902 316q0 -5 5 -5q-7 -19 -14 -19v15q1 9 9 9zM200 302v-10h4v10h-4zM248 292v-10h5v10h-5zM200 282q1 -10 9 -10v10h-9zM165 277q0 -11 5 -19l-9 -5l-5 10v5q1 9 9 9zM239 253v-10h5v10h-5zM161 248q9 -2 9 -10v-14q0 -10 -9 -10
l-5 10zM219 228q1 -9 10 -9v9h-10zM234 219l5 -30h5v35zM190 214v-10h5v10h-5zM209 204q0 -3 -5 -15l10 -4q10 0 10 9v10h-15zM239 170v-10h9v20q-9 -2 -9 -10zM165 175l-4 -29h-10v14q0 7 14 15zM209 155v-9h15v4q-3 0 -15 5zM180 150h10v-19h-10v19zM234 136l5 -25
q9 0 9 10h-9v5l5 10h-10zM214 126v-5q1 -10 10 -10v15h-10zM234 102l-5 -20l10 -5q0 15 5 25h-10zM195 92q9 -2 9 -10h-9v10zM146 87h10v-5h-10v5zM829 82h-5l10 -29h5q0 14 5 14q-5 12 -5 15h-10zM234 72q0 -19 -10 -19q5 -10 5 -20h5q10 36 10 39h-10zM146 72h10v-5h-10v5
zM175 28h5q10 -1 10 -9v-5h-5q-10 0 -10 10v4zM229 14v-15q5 -12 5 -15h5v5q-5 10 -5 25h-5zM151 9l5 -10v-5h-5q-10 0 -10 10zM185 -1h5l-5 -10q5 0 5 -5l-10 -4l-5 9q1 10 10 10zM244 -35v-24h4v24h-4zM185 -45l5 -10h-15q1 10 10 10zM195 -74h9v-5h-9v5zM1044 -118v39
l5 -49v10h-5zM190 -123l10 5v-15h-10v10zM170 -138h10l-5 -24q0 -8 10 -24q-6 -25 -15 -25h-5v10l5 10h-5q5 12 5 14l-5 20q5 8 5 19zM839 -162h5v-10h-5v10zM200 -177l4 5q10 -9 10 -14v-5h-14v14zM229 -191l5 -10h-5l5 -10v-24h-10v10h-5v-10h-5v15q10 0 10 9h-10v15
q3 0 15 5zM741 -196v-5q0 -10 -9 -10h-5q0 7 14 15z" />
    <glyph glyph-name="N" unicode="N" horiz-adv-x="879" 
d="M111 1473l63 -59h10l14 10h15q12 0 24 -44h-4q0 -16 39 -44l43 -73q-5 -15 -9 -15q5 -17 17.5 -37.5t31.5 -45.5l4 -19h-9v-10q9 -12 24 -68h5v10h10v-10q0 -10 -10 -10q12 -91 78 -205h-5q34 -62 78 -195q34 -50 49 -146q12 0 15 -20q-5 -12 -5 -15q7 0 24 -29l-5 -10
q10 0 25 -53q14 0 14 -20l10 5q-10 19 -10 34l10 -5q5 57 7.5 137t2.5 185v10l-34 156h5q-11 30 -15 93q5 12 5 15q-15 0 -15 68q0 29 15 29v15q0 11 5 19q0 15 -15 15v34q0 5 5 5q0 5 -5 5q0 3 5 15q-6 79 -10 83q17 68 29 68h15q0 22 10 39q-5 8 -5 19q5 12 5 15h10l9 -5
q0 6 25 25l10 -5v14h14v-5q-5 -10 -5 -14q10 -1 10 -10v-24q34 -13 34 -25q-5 0 -9.5 -4.5t-4.5 -14.5q0 -20 9 -59q-9 -2 -9 -10v-102l-5 -29q5 -10 5 -25h-5l5 -9v-40q0 -10 1 -23t3 -30l-4 -10l4 -29v-15q0 -12 -4 -19l4 -10q0 -5 -4 -5l4 -24v-20l-9 -15q9 -2 9 -9v-161
q0 -10 -9 -10h-5v14h-5v-53h5v10h10l4 -35v-24q0 -13 -9 -29q14 0 14 -108l-5 -29q5 -28 5 -49v-44q0 -11 5 -19q-8 -20 -14 -20l14 -88h-5l5 -9q0 -5 -5 -5l5 -34v-34q1 -10 10 -10l5 63h5q4 0 6.5 -12.5t4.5 -31t3.5 -39.5t4.5 -39q-10 0 -10 -14q16 -69 25 -69l-5 -10v-4
q12 0 34 -64h5l-5 -10l5 -34h-5q-4 0 -14 15l-10 -5q-10 5 -20 5v-44h-5l-14 10h-10q-10 0 -10 -15q5 -12 5 -15h-5l-10 5l-4 -9l9 -20q0 -17 -53 -34v-5h-10q0 5 5 5q-10 19 -10 29h-10v-19h-5q-22 7 -39 73v5h5q-5 8 -5 24h-9v-10h-10l5 39q0 7 -21 61.5l-62 158.5
q-19 48 -33.5 79t-25.5 48v5l5 10q-8 0 -63 126q-124 192 -171 322h-10v-4q0 -8 1.5 -19l3.5 -25l-5 -10q10 -36 10 -44h-5l5 -10l-5 -10q0 -9 5 -9l-5 -25q2 -45 3.5 -85.5t1.5 -75.5q0 -11 -5 -19q0 -5 5 -5l-10 -93q6 -143 15 -171q-10 -40 -10 -68q0 -29 15 -132v-29
q-11 -20 -15 -20q-34 4 -34 30q5 12 5 14l-10 5l-5 -24h5l-5 -10v-5l5 -10l-15 -9q-29 0 -58 146l5 10q-10 17 -10 39v156q0 16 5 24l-5 30v73q0 8 1.5 19l3.5 25q0 5 -5 5q0 4 5 14l-3.5 93t-1.5 73v30l-5 29q0 5 5 5l-5 34v112q0 35 1.5 82.5l3.5 107.5l-5 10q0 5 5 5
q0 3 -5 15q0 12 5 34q0 227 -39 278l-69 54h-4v5l9 14l10 -5l34 10q0 5 -39 44v5h10l10 -5q0 20 29 20v4l-10 15q16 10 30 10zM111 1448v-9q0 -6 34 -25v5q0 8 -30 29h-4zM701 1424q3 0 15 -5l5 10l-10 5q-10 -1 -10 -10zM67 1419v-5h9v5h-9zM745 1419h10v-10h-10v10z
M711 1405v-10h5v10h-5zM223 1302l3.5 -49.5t1.5 -33.5v-5q19 0 19 -10v-4l-10 -15q26 -26 44 -98q10 -1 10 -9v-5l-5 -10q11 0 15 -34h5v19q-9 15 -44 161l5 20l-34 73h-10zM735 1297v5l5 -15v10h-5zM325 1283l10 14v-34q-10 0 -10 10v10zM740 1219v-10h5v10h-5zM745 1200
l-5 -20v-29h5q0 13 1.5 23.5t3.5 20.5v5h-5zM281 1195v5q5 -16 10 -34t10 -44h5l5 34q-26 39 -30 39zM247 1126q15 -47 15 -48q-5 0 -5 -5q5 0 5 -5q-10 0 -10 -5q0 -44 15 -63q-10 -1 -10 -10q2 -14 3.5 -23.5t1.5 -15.5q0 -3 -5 -15l5 -10q-4 -19 -10 -19l5 -25l-5 -34
l3.5 -18t1.5 -16q0 -3 -5 -15q4 -48 15 -48v9q-2 18 -3.5 27.5t-1.5 11.5l10 5q8 -54 156 -283q32 -44 39 -44h5v5q0 14 -10 30q5 8 5 19q-19 4 -39 49v10h5q10 -5 14 -5v14l-5 10l-9 -5q-10 0 -35 54h5l-5 10v5q14 0 30 -49h5v5q-30 58 -30 68h-5v-5q5 -12 5 -15h-9
q-26 44 -39 79l4 9v15q5 0 5 5q0 2 -9 34h-5v-10q5 -12 5 -14l-10 -5q-20 29 -20 48q5 0 5 5q-10 0 -10 10h5q-10 39 -29 59v19h5q10 -1 10 -10v-4l-5 -10q4 0 14 -5v5q0 3 -24 83h-5v-5l15 -44h-10q-22 45 -34 102l10 5q0 -5 4 -5v15q-12 12 -19 68h-10zM306 1117v-15h5v15
h-5zM716 1112v5q0 -10 1.5 -15t3.5 -10l-5 -29q1 -10 9 -10v59h-9zM740 1112v-54h5v54h-5zM315 1082l5 -29h5l5 20zM657 1063v10q1 -17 3 -21t7 -4v15h-10zM681 1058l5 -34h-5l5 -10v-24q0 -15 -5 -25l5 -29v-88h5q0 30 10 39q-10 11 -10 20q10 16 10 24q-10 0 -10 10v93
l-5 24h-5zM325 1043v15q2 -19 3.5 -26.5t1.5 -12.5h5v10q-5 12 -5 14h-5zM657 1043l-5 -24q0 -11 5 -19q0 -5 -5 -5q5 -32 7.5 -51.5t2.5 -26.5h5q0 9 5 9q-6 68 -10 78q5 12 5 15l-5 24h-5zM276 1034v9l5 -19v10h-5zM725 1029q0 -29 -9 -29q5 -12 5 -15h4q0 13 10 29l10 -5
h5v10q-9 0 -20 10h-5zM281 1019v-5q5 -8 5 -19h5v9q-5 12 -5 15h-5zM315 1000v-20h5v20h-5zM345 985v-10h5v10h-5zM721 980q0 -10 -5 -10q5 -18 5 -49l9 5q-5 22 -5 54h-4zM701 975v-24h5v24h-5zM350 970v5l5 -15v10h-5zM745 965v5l5 -14v9h-5zM745 951v-15h5v15h-5z
M725 902v-59h5q0 39 10 39q1 -9 10 -9v9q-20 14 -20 20h-5zM320 897v-5q20 -45 20 -58h5v9q-20 51 -20 54h-5zM374 892v-10h5v10h-5zM701 848v-10h5v10h-5zM745 848v-44h5v44h-5zM686 843v-39h5v39h-5zM428 838v-14h5v14h-5zM413 795v-20h5v20h-5zM452 770q0 -11 25 -54h4v5
q-19 39 -19 49h-10zM374 756v-15l10 -5v5q-5 12 -5 15h-5zM735 751q5 -12 5 -15h5v20zM384 731v-5q5 -12 5 -14h5v4q-5 12 -5 15h-5zM437 731v-10h5v10h-5zM281 697v-10h5v10h-5zM725 687v-24h5v24h-5zM730 629v-5q0 -8 15 -15h5q-5 22 -5 34q-7 0 -15 -14zM540 497v-10h5
v10h-5zM520 482v-10q5 -10 5 -14h5v5q-5 8 -5 19h-5zM496 477v-9h5v9h-5zM477 463v-10q9 -12 9 -20h10l-5 30h-14zM564 443v-5q10 -16 10 -24h5v5q-10 16 -10 24h-5zM628 443h10v-10h-10v10zM545 429v-5q10 -16 10 -30h4v10q-9 16 -9 25h-5zM579 409v-10h5v10h-5zM228 399
v-14h5v14h-5zM574 355v-9h5v9h-5zM150 -11v-5h9v5h-9zM818 -79v-15h5v15h-5z" />
    <glyph glyph-name="O" unicode="O" horiz-adv-x="796" 
d="M401 1366v-5q5 0 5 5q164 0 297 -235q0 -7 25 -73h-5q39 -218 54 -249l-10 -5l10 -58q0 -3 -5 -15q2 -78 5 -129t5 -76q-48 -439 -83 -439q0 -39 -20 -39v-10l5 -10l-10 -4q0 4 -5 4q0 -38 -78 -102l-10 5q-51 -69 -92 -69v5l-10 -5l-59 5v-5q20 -22 20 -24v-15
q-8 -29 -122 -63h-44q-78 0 -181 151q-53 85 -53 274v14q0 67 44 278q0 25 8.5 90.5t25.5 173.5v19q-14 45 -23 84t-11 73q53 162 53 185h5l10 -5q0 29 15 29v35q0 80 156 190q67 15 78 15zM230 1000q5 0 5 -5q-13 0 -20 -39q5 -12 5 -15q-8 0 -19 -29q14 0 14 -10t-9 -10
l-10 5v-19h10v-93q14 0 14 -10l-9 -5q0 5 -5 5v-44q14 0 14 -10q-10 -11 -14 -53l9 -30q-13 -29 -24 -68q0 -5 5 -5l-5 -29l5 -10h-10v-10q0 -9 20 -9q-30 -21 -30 -54q5 -10 5 -24l-9 -5l4 -10q0 -5 -4 -5q0 -5 4 -5l-4 -24l4 -20h-9v-5q1 -9 9 -9q-5 -34 -9 -44
q5 -12 5 -15q-10 -1 -10 -10q5 -8 5 -19q14 0 14 29h10q0 -19 10 -19t10 14h14v-34h-10q-24 0 -24 20q-17 -8 -34 -44v-10q1 -10 10 -10v15h5q4 -23 4 -30h-4l-10 5v-9q5 -12 5 -15h5v10h4q0 -10 10 -44h-5q35 -153 78 -181q65 -58 93 -58q32 37 67.5 65t74.5 47
q60 64 122 205l-5 10l9 24q-9 0 -9 10q6 0 19 34h-5l5 10v14h-10l5 25q-10 0 -14 34h5l-5 10l5 9l-5 25q19 7 19 14q0 10 -10 10q0 -5 -4 -5l-5 10h29q10 -1 10 -10q-14 -24 -25 -24l5 -10q-5 -14 -10 -14q5 -20 15 -35q-10 -1 -10 -9l10 -5h5q15 49 15 112q-20 0 -20 39h5
q10 -1 10 -10v-5l-5 -9h5q10 0 10 9v25h4v10h-4l-15 -10h-5v5q0 5 5 5l-5 9v5h15v5q-26 0 -30 15v29h10v-24h15q0 24 5 24l-5 10v14q12 0 14 20q-7 0 -14 15v4h5l9 -4v14l-29 5v5q1 10 10 10h5v-10h10q9 0 9 10q0 11 -5 19l5 10q-9 51 -9 54q4 7 4 19q-9 0 -9 10q9 0 9 15
q-45 317 -92 317l5 10q0 9 -10 9q0 -5 -5 -5q0 7 -20 35l-9 -5q-7 11 -21.5 24t-37.5 29q-12 -5 -15 -5q0 10 -9 10h-20q-51 0 -136 -83zM513 1161q25 -60 34 -122v-10q-2 0 -8 18.5l-13.5 41.5l-14 43t-8.5 24zM538 1141q9 -2 9 -10q0 -9 -9 -9v19zM508 1126v-9l-19 -5
q0 7 19 14zM542 1112h10v-5h-10v5zM518 1107v-10h-10q1 10 10 10zM547 1102q7 0 15 -15l-5 -9l10 -5q-5 -12 -5 -15h-10q0 10 -5 20l5 9q-5 12 -5 15zM494 1092h9v-5h-9v5zM586 1078h10v-10h-10v10zM289 1068h9v-10h-9v10zM523 1063l10 -5q0 -5 -10 -5v10zM596 1058
q20 -18 20 -44h-10q0 6 -20 20v5l5 9q-5 0 -5 5zM562 1043h10q0 -11 14 -34v-5h-9q0 8 -15 25v14zM547 1029q10 -1 10 -10h-10v10zM538 1009l9 -5q0 5 5 5q29 -69 29 -127q-9 0 -34 118h-9v9zM606 990h5q12 0 14 -44h-9q-2 17 -5 28t-5 16zM254 985q10 -1 10 -10l-10 -5h-9
v5q1 10 9 10zM586 985q10 -1 10 -10q0 -10 -10 -10h-9v10q1 10 9 10zM274 980l5 -10l-10 -5l-5 10zM591 946h10v-5h-10v5zM625 936h10v-5h-10v5zM240 931h10v-5q0 -9 -10 -9v14zM557 917v-10h-10q1 10 10 10zM235 907h10q-5 -22 -5 -34h-10zM611 897q0 -5 5 -5
q-5 -12 -5 -14q-10 0 -10 9q1 10 10 10zM630 892h10v-10h-10v10zM552 887h10v-5h-10v5zM542 882q10 -1 10 -9v-10h-10v19zM245 868l9 -5h-9v5zM581 858l10 5q0 -9 2.5 -12t7.5 -3q0 -10 -10 -10h-10v20zM635 858h10v-10q-10 0 -10 10zM567 853v-5q0 -10 -10 -10h-5v10
q3 0 15 5zM606 853h5v-10h-5v10zM230 848l5 -5l-5 -19h-10v14q1 10 10 10zM650 824v-15h-10v5q1 10 10 10zM620 809l15 -19v-10h-10q0 7 -14 24zM601 804v-14h-10v5q1 9 10 9zM240 799q0 -4 5 -4l-5 -10v-25h-10v30q1 9 10 9zM611 785h9q0 -10 -9 -10v10zM635 775v-5
q0 -5 -5 -5l20 -24v-5l-10 5l-15 -10h-5l5 25l-24 -5v14q20 0 34 10zM562 765h10v-9h-10v9zM225 751l10 5v-20h-10v15zM567 736h10v-5h-10v5zM581 736h10v-20q0 -6 -14 -14q4 17 4 34zM601 736h10v-20h-10v20zM225 721l10 -5h-10v5zM630 721q12 -14 20 -14v-10h-10
q-7 0 -20 19zM616 707h4v-10h-4v10zM230 702l5 -5l-5 -29q-10 0 -10 9v15q1 10 10 10zM586 697h10v-10h-10v10zM635 692q0 -5 5 -5q-11 -23 -20 -24h-4v5q13 24 19 24zM645 682h10v-9h-10v9zM586 648h10v-34h-10v34zM620 643h10v-9h-10v9zM620 619h5q10 -1 10 -10
q0 -10 -10 -10l-5 10v10zM220 614l10 -5h-10v5zM591 599l10 10l9 -15t6 -19l-10 -5l5 -10q0 -5 -5 -5l5 -9q0 -10 -10 -10q-10 27 -10 63zM215 594h10v-19h-10v19zM664 560v-19h5v19h-5zM211 536l9 24v-34h-9v10zM601 526h5q14 0 14 -54l-9 -4q0 37 -10 58zM211 512h14v-5
q0 -3 -5 -15l5 -29l-10 -5h-4v14q0 5 4 5l-4 10v25zM196 409h10v-19h-10v19zM215 394h5v-73h-9v5q0 5 4 5l-4 24v15zM186 365h5q10 -1 10 -10h-15v10zM191 331h10v-10q-10 0 -10 10zM616 311h4q0 -2 5 -14h-9v14zM191 233l5 -9v-10q0 -10 -10 -10q0 5 -5 5l5 10l-5 9z
M581 233l10 -5v-4h-10v9zM186 194h10v-9h-10v9zM225 185l10 -15v-5q-10 -11 -10 -19h-5q-5 0 -5 4l-9 -4h-5v9q4 0 24 30zM206 126h9v-5h-9v5z" />
    <glyph glyph-name="P" unicode="P" horiz-adv-x="710" 
d="M77 1438l33 -5q16 0 50.5 1.5t88.5 3.5v-5l11 5q194 0 284 -133q121 -121 121 -259q8 -20 12 -20l-6 -24l6 -30q-5 -20 -12 -20l6 -34v-25q0 -5 -6 -5l6 -9q-20 -167 -39 -167l6 -10q0 -47 -67 -138q-28 -31 -47.5 -49.5t-33.5 -29.5t-25.5 -17.5t-21.5 -14t-22 -19
t-27 -32.5l-33 -9q0 -10 5 -20l-11 -24l-27 4q-11 -4 -17 -4q0 9 -12 9h-6q6 -57 6 -83v-118q0 -12 17 -44q-5 -10 -5 -14l11 -20q0 -24 -17 -24v-16l11 6h6v-20q0 -7 -29 -25l12 -54q-21 -5 -27 -39q4 -50 21 -64q-11 -20 -17 -20l6 -9v-10q-21 -15 -29.5 -24t-12 -13.5
t-5 -5.5t-8.5 -1q-15 1 -40 34q6 0 6 5q-20 23 -50 39l-10 -5h-34q-55 34 -55 55q5 100 7.5 160t2.5 80h6q0 5 -6 5l6 24v329q0 31 11 159t33 357q0 84 6 176q-19 126 -66 161v11q0 22 10 39q-10 0 -10 10q1 10 10 10h50v9q-50 5 -50 15q17 0 17 5zM349 1404v-5h12v5h-12z
M189 1389l10 -14q2 0 7.5 1t15.5 3q66 -9 71 -9l12 5q12 -5 23 -5l33 5v9h-29v-5h-4q0 20 -50 20q-30 0 -89 -10zM411 1379v-4q11 -24 50 -50h5v5q0 9 -55 49zM372 1375l-6 -10l39 -20h6v5q0 7 -39 25zM282 1345h-49v-6q13 -10 27 -58l-5 -25q8 0 27 -34l-4 -24
q21 -45 21 -89l12 5v-5q-6 -11 -6 -15l6 -9q-6 -11 -6 -15q0 -5 6 -15l-6 -29h11q0 -34 -11 -34l6 -10q0 -5 -6 -5q2 -4 4.5 -21t6.5 -48h-5q2 -6 5 -18t6 -31q-11 -2 -11 -10v-9q0 -5 5 -5l-5 -10v-15l5 -35q-11 -2 -11 -10v-44q0 -12 6 -19q-12 -17 -12 -29l12 5l5 -10
l-11 -5q0 5 -6 5v-20h12v-9q0 -10 -18 -10v-35l12 4q9 -4 17 -4v-5h-29q0 -5 6 -5l-6 -10v-24h12v9l-6 10h12v-24h17v10l10 -5l11 5q1 -10 12 -10v10h11q0 -15 5 -15q76 0 138 128q25 112 45 112l-5 11q5 32 10.5 85.5t11.5 130.5q-21 158 -66 205q-43 49 -72 78.5t-45 39.5
q-54 20 -62 20v-5q0 -11 23 -11v-19h-11v10h-6l-10 -5q-6 7 -6 30h-11q0 -16 -12 -16h-6v16zM272 1334l10 -14h-10q-12 0 -12 10zM482 1315l-5 -10l11 -5h6v5q0 10 -12 10zM332 1315h6q0 -10 17 -10v-10l-27 -4l-6 9v5q1 10 10 10zM505 1291v-10h6v10h-6zM332 1286l6 5v-15
q0 -5 -6 -5l6 -10v-83q11 0 11 20h17q11 -2 11 -10v-5h-5q-12 5 -17 5l6 -10l-12 -14q5 0 17 -5l-5 -11v-5l11 5h5l5 -19l-5 -10q5 -10 5 -20v-5h-10v35q-23 0 -23 24h-11v-15h-10v79l-6 49h6l-6 10q1 10 10 10zM366 1271h11v-15q0 -4 -5 -4l5 -10v-15h-5q-11 0 -11 10z
M282 1242h11v-10h-11v10zM355 1227q22 -7 22 -15v-9h-5q-10 0 -23 19q6 0 6 5zM311 1164l5 -11v-5h-5q-12 0 -12 11zM338 1124q28 -13 28 -20v-5q-28 -1 -28 -14v-5h11v-30q0 -4 -5 -4l5 -10v-20q0 -9 -11 -9l-10 4l4 20l-4 58l4 10q-4 8 -4 20zM372 1016h10v-5h-10v5z
M366 987h11v-10h-11v10zM328 982h4q10 0 17 -16l-17 -9zM355 966h17v-14h-6q-11 0 -11 10v4zM361 937h5v-10h-5v10zM332 927h12v-9h-12v9zM382 923v-5l-5 -10q-12 5 -16 5v5q-1 0 21 5zM338 913q6 -25 28 -25v-9l-28 -5l11 -15q-5 -29 -17 -29h-4v5q0 8 1 19t3 25
q-4 8 -4 14h4l-4 10q1 10 10 10zM355 908h11v-10h-11v10zM372 869v-20q0 -9 -11 -9h-6q6 29 17 29zM366 830h6q10 -1 10 -10q-16 -12 -16 -19h-11v4q0 5 6 5l-6 10q1 10 11 10zM328 796q8 0 16 -21q19 11 28 11v-6l-6 -10q11 -2 11 -9q-12 -5 -16 -5v-5q16 0 16 -10h-28
q-5 -24 -17 -24l-4 19h4l-10 20q6 25 6 40zM549 751v-5h11v5h-11zM538 721v-4h11v4h-11zM328 717l4 4q0 -9 6 -19l11 5h6v-10q-16 0 -33 -10q0 5 -6 5q12 16 12 25zM366 717h11v-25h-11v25zM328 687l16 -9q9 4 17 4l5 -9l-5 -25h11v-9h-23l6 29h-6q-10 -5 -21 -5l-6 10
q6 9 6 14zM332 648l12 -5l-6 -24v-25h-10q0 8 -23 20q0 10 23 10v10l-6 9zM361 629h11v-15h-11v15zM361 589h11v-15h-11v15zM332 579h12v-5h-12v5zM316 574h12v-10h-12v10zM477 496v-10h5v10h-5zM328 -19h10v-25q0 -10 -10 -10v35zM344 -127h11v-14h-11v14z" />
    <glyph glyph-name="Q" unicode="Q" horiz-adv-x="792" 
d="M281 1416q0 -15 20 -15q43 10 54 10q1 -10 9 -10h20q19 0 39 5q43 0 229 -93l-5 -24q20 -11 20 -25h10q0 25 9 25l5 -10q-10 -1 -10 -10v-15q16 0 40 -39q4 0 4 -4v-10q0 -5 -4 -5q8 -17 15 -36t14 -42h-5q10 -31 19.5 -68.5t19.5 -82.5v-15q-15 -50 -15 -88l5 -19
q-24 -135 -24 -142l5 -10q0 -9 -10 -39l5 -10q-10 -37 -10 -92q1 -10 10 -10q-4 -54 -10 -63l5 -10q-10 -16 -10 -29l10 -15v-5q0 -5 -5 -5q0 -5 5 -5l-5 -24v-15l5 -24h-5l5 -10v-5l-10 -14q10 0 10 -5q-5 -30 -15 -30q0 5 -5 5v-10h10v-4q-10 0 -10 -5v-15q-9 -2 -9 -10
q9 -2 9 -9q0 -10 -9 -10l9 -29q-4 -8 -4 -20h-5l-10 5v-10q1 -10 10 -10q0 -28 -35 -48q-14 -44 -34 -44l5 -10q-40 -50 -44 -78h-9v-15l4 -10h-4l-10 5l-5 -9v-10l10 5q5 -12 5 -15q-8 -20 -15 -20q0 10 -10 10v-10h-10v10l-24 -10q-10 13 -10 25h-5v-20q0 -9 15 -9v-15
q-54 -35 -54 -49q-11 -7 -19 -34q6 -63 14 -63l-4 -35v-29h-10q0 15 -10 15h-5q0 -6 -19 -34q-50 0 -69 112q-180 33 -180 68q-71 33 -117 166l-20 93q0 5 5 5l-15 131h5l-5 10v29q0 5 5 5l-5 10v15q0 5 5 5l-5 9v15q0 5 5 5q0 5 -5 5l5 58v176l10 15q-10 0 -10 14
q8 59 13 112.5t7 102.5l-5 10q0 80 93 385h-10q14 11 44 103q22 39 38.5 58t27.5 27t18.5 8h12.5zM198 1381h10v-5h-10v5zM257 1235h10v-10q-25 0 -25 -10v-9h5l20 14l5 -9q-10 -1 -10 -10q10 -1 10 -10q0 -11 -5 -19l5 -10q-10 -30 -10 -39h-5q-5 0 -5 5l-10 -5h-5v9
q-8 -4 -14 -4l14 -20q-4 0 -4 -5q14 0 14 -10v-4q-14 0 -14 -10q11 0 19 -5q0 5 5 5l5 -10q0 -11 -5 -19q5 -12 5 -15l-5 -34h-10v19l5 10q-19 7 -19 24h-5q-5 -29 -15 -29l-10 5v-15l10 5q0 -5 5 -5q0 -5 -5 -5q0 -30 44 -48v-20l-5 -34h-10v24h-5v-9q-9 0 -9 9l9 15
l-14 10q-12 -5 -15 -5l5 -10v-5l-15 -19q5 0 5 -5q-5 0 -5 -5q7 0 15 -15v-14q0 -16 -15 -34l10 -5q-5 -8 -5 -30h-10q-10 0 -14 30h-5l5 -25l-5 -29h5q0 20 19 20l10 -30q-7 0 -15 -14v-5l10 -15q0 -10 -10 -10l-9 5v-29l9 5q10 -1 10 -10q0 -5 -5 -5l5 -24v-10
q0 -7 -14 -15q5 -14 9 -14l-5 -34v-25q1 -10 10 -10q-5 -10 -5 -14v-5h5v10h10q0 -13 5 -35q-8 -4 -20 -4v-10l25 5q0 -15 -20 -15v-19q1 -10 10 -10q-5 -12 -5 -15l5 -34l10 5h5v-15q0 -10 -10 -10q0 5 -5 5v-14q15 0 15 -10q0 -5 -5 -5q0 -5 5 -5q-5 -43 -15 -53v-25
q1 -10 10 -10q0 -5 -5 -5l10 -136l-5 -10l5 -29l-5 -34q5 -10 5 -20l-5 -10q5 -10 5 -14h-5q0 -56 97 -122h10l5 9l-5 20q2 20 5 32t5 17l-5 29q1 24 10 24l-5 10q10 103 14.5 165t4.5 84h5q-5 12 -5 15l20 44l10 -5h5v10l-20 19q24 13 24 20l5 34l30 -5q-10 -16 -10 -25
q24 -29 29 -29h5l-5 25q5 0 5 4q-15 4 -15 10q5 12 5 15h5q11 0 15 -49h10q0 -10 -15 -10q0 -7 15 -14q-5 -32 -15 -171l5 -10q-11 -68 -15 -68l15 -25q0 -9 -10 -39l10 -5h5q73 86 73 93q-10 0 -10 10q14 14 24 44q-9 0 -9 10v5h9v4h-9q0 -4 -5 -4v9q13 49 24 49h5v10h-19
v24l14 -10l5 25v19h15l-5 -24h5q12 5 14 5q0 -5 5 -5v10q-19 22 -19 34l10 -5v10q-25 0 -25 14l5 10q-5 10 -5 20q0 4 5 14q-5 10 -5 20h5l10 -5q0 10 14 10q0 24 -9 24q0 49 24 49q0 8 -19 15q-10 -5 -20 -5v5q1 9 10 9q11 0 19 -5h5v5h-10v5l5 10q-27 -6 -39 -15h-5v25h5
l15 -10q0 34 24 34v10l-9 15q8 0 14 9q-5 15 -10 15l5 10v5q-9 0 -9 -15l-10 5l5 10v68l-10 -5h-5v5q0 60 39 83v5q-15 0 -15 10l5 9h-14l5 -24q0 -10 -10 -10h-5v10q0 11 5 19q-10 19 -10 39v10h10v10l-10 15v4h5q15 0 15 -19h9q0 15 10 15l5 -10q-5 0 -5 -5h10l5 19
q-5 12 -5 15q5 0 5 5q-20 0 -20 34l-14 -10l4 -9v-10h-4q-13 19 -25 19v5h10v15q-11 15 -15 34q10 0 10 10l-10 14q10 19 10 30q-11 0 -15 39h15q0 6 -20 29v10q1 10 10 10q0 -5 5 -5l-5 -10v-5l10 5h10v-5q0 -14 -10 -54q15 0 15 -9v-20l-10 -15l10 -14q0 -10 -5 -20
q5 -10 5 -14l9 5h5v-10l25 10l9 -5h5v5q-9 0 -9 9h-5l-10 -5l-5 10v5q10 11 10 20l-10 19q2 22 5 35.5t5 18.5q-5 12 -5 14h-5q0 -14 -5 -24q-12 5 -14 5v10h14l-5 9l5 10l-5 25h5l10 -5v5q-10 19 -10 34h5q0 5 -5 5q4 39 15 39q0 -5 5 -5l-20 63h-14v-5q14 0 14 -34
q0 -10 -14 -10l4 -34q-7 0 -34 -39h-10v10h10q-10 30 -10 63h-4v-9h-10l-10 34h5l-5 10l5 9l-44 44l-10 -5q-58 33 -58 44l-10 -5v5q-61 0 -73 -34q-88 -18 -88 -73zM150 1328h9v-10h-9v10zM555 1284v-10q9 0 9 10h-9zM579 1284q0 -8 15 -15v15h-15zM711 1279l5 5
q0 -6 1.5 -10.5t3.5 -9.5q-5 -8 -5 -19h-5q-10 0 -10 9v15q1 10 10 10zM564 1269v-10q7 -19 15 -19v14q0 7 -15 15zM589 1254v-9l5 -25l9 5q-6 29 -14 29zM511 1225h9v-5h-9v5zM237 1196q0 -6 -4 -15q9 0 9 -14h15v29h-20zM633 1196l-5 -29q10 -1 10 -10q0 -5 -5 -5l5 -34
v-25h9l-5 25q10 0 10 10q-10 0 -10 9l5 10l-9 49h-5zM520 1186h10v-10h-10v10zM677 1181v-5l9 -4q0 9 -9 9zM594 1172h5q0 -6 4 -15h-9v15zM672 1162v-25h9v5q-4 9 -4 15q4 0 4 5h-9zM228 1152v-10l9 -5q12 5 15 5v5h-19v5h-5zM525 1142l10 10v-15h-10v5zM247 1118h5
q7 0 15 -15q-5 -12 -5 -14h-5q0 13 -10 24v5zM696 1113l-5 -10h15q0 10 -10 10zM691 1093l10 -14q0 -10 -10 -10l5 -10l-5 -9l20 -25q0 8 1.5 16l3.5 18q-5 22 -5 34h-20zM647 1084v-5h15v10q-12 -5 -15 -5zM608 1040l5 -10v-5h-5q-9 0 -9 10zM638 1035v-15q2 0 14 -5v5
q0 7 -14 15zM667 1015v-14h5v14h-5zM237 1010l5 5v-19h-14v5q1 9 9 9zM638 996v-10h9v10h-9zM184 967h9v9q-9 -2 -9 -9zM218 976v-9h5v9h-5zM677 967v9l4 -24v15h-4zM623 957q0 -10 -5 -10q5 -8 5 -24h5v34h-5zM672 932q9 -2 9 -9q0 -10 -14 -10v-10q19 4 19 29v15
q-7 0 -14 -15zM584 918h5v-10q0 -10 -10 -10l-5 10q1 10 10 10zM228 913h5v-10h-5v10zM672 898v5q1 -12 3 -15.5t6 -3.5h5v19q-10 -5 -14 -5zM603 903l5 -10q0 -9 -9 -9h-5v9q1 10 9 10zM228 888q6 0 14 -14v-10q-7 0 -14 15v9zM662 874l5 -34l14 9q0 -4 5 -4v4l-5 10
q5 12 5 15l-9 -5h-5zM242 864q10 -1 10 -10v-5l-10 -14q10 -1 10 -10v-10h-10l-9 5q0 -14 -10 -14l-5 9q0 36 24 44v5zM618 859l-5 -19h5q10 0 10 9v10h-10zM667 825v-15q12 5 14 5v20h-4q-10 -1 -10 -10zM242 806h5v-10q0 -10 -10 -10v5l-9 -5h-15q0 6 29 20zM672 801v-15
h5v15h-5zM569 801l5 -10q0 -10 -10 -10l-5 10q1 10 10 10zM642 781q1 -10 10 -10v10h-10zM623 776v-10h5v10h-5zM237 776h10q0 -13 -1.5 -16t-3.5 -3l5 -25l-5 -19q-6 0 -14 14q0 5 5 5l-5 25v9q1 10 9 10zM179 766v-9h5v9h-5zM594 757q0 -15 -5 -25q4 -18 19 -29q12 5 15 5
q0 3 -5 15v24l-15 10h-9zM599 747h9v-24q-9 0 -9 9v15zM638 737v-5h9v5h-9zM638 723q0 -10 -5 -20l14 -10l5 10v20h-14zM218 718l10 5v-15h-10v10zM569 703l10 5q0 -9 -2.5 -12t-7.5 -3v10zM218 684q11 -10 24 -10v-30q0 -9 -9 -9l-5 9v25q-20 0 -20 10zM569 684h15
l-3.5 -25t-1.5 -19q-10 0 -10 9v35zM706 669l-5 -34h5q0 11 15 29v5h-15zM652 654v-10h5v10h-5zM638 640v-15q4 -9 4 -15h5q0 3 5 15q-10 0 -10 15h-4zM208 635q7 0 15 -15v-5h-15v20zM716 620v-5l-5 -10l-10 5v-19h5q8 0 15 19v10h-5zM569 620h10v-10l-5 -9q5 0 5 -5h-10
v24zM599 615h4q-4 -9 -4 -14h-10v4q1 10 10 10zM686 605v-24h5v24h-5zM213 605h10v-9q0 -10 -10 -10v19zM628 591v-5h10v5h-10zM228 586q9 -2 9 -10v-14h-9v24zM569 581l10 -19v4q-10 0 -10 10v5zM681 576l-4 -10q0 -6 14 -14v14q0 10 -10 10zM608 571v-9q10 0 10 9h-10z
M594 557v-10h5v10h-5zM716 557v-30h5q0 13 9 30h-14zM686 542q0 -3 -5 -15v-5h5q0 3 5 15v5h-5zM228 537l5 5v-15h-5v10zM711 522v5l5 -14v9h-5zM589 503l5 -10l-10 -5l-5 10zM228 483l5 15v-34h-5q-10 0 -10 10q1 9 10 9zM623 474v-5h10v5h-10zM642 469v-10q10 0 10 10h-10
zM599 420v-10h4v10h-4zM584 400v-14q0 -7 19 -20v15q-14 0 -14 5q5 12 5 14h-10zM623 386v-10h5v10h-5zM638 386v-15h4v15h-4zM213 381v5l5 -15v10h-5zM711 381l-10 -34q20 5 20 29v5h-10zM447 352v-10h5v10h-5zM623 347v-10h5v10h-5zM569 342h10v-5h-10v5zM623 318v-15h5
l5 24q-10 -1 -10 -9zM594 269v-5h9v5h-9zM564 235v-10h5v10h-5zM564 220l-5 -10q1 -10 10 -10l5 10q0 10 -10 10zM589 215v-5q1 -10 10 -10h4q0 7 -14 15zM574 176l10 -5v15q-10 -1 -10 -10zM398 103v-10h5v10h-5zM394 74v-15q9 0 9 10zM394 39q0 -11 -5 -19h5q9 0 9 10v9
h-9zM550 -58v-5q1 -10 9 -10l10 15h-19zM559 -97h15l-5 -44h-10v44z" />
    <glyph glyph-name="R" unicode="R" horiz-adv-x="812" 
d="M295 1375q26 -10 81.5 -22t142.5 -27q49 -16 74.5 -29.5t42 -33.5t32.5 -49.5t46 -77.5q0 -13 1.5 -23.5t3.5 -20.5h-5q6 -4 10 -83q-5 -66 -7.5 -107t-2.5 -59h-4q0 -5 4 -5l-4 -24q-5 -115 -7.5 -184t-2.5 -94q-43 -175 -98 -215q-63 -35 -63 -49q51 -73 100.5 -162.5
t99.5 -198.5q31 -37 68 -141l-10 -5q-4 0 -4 5q-12 -5 -15 -5v-10h15v-10q-35 0 -49 -29l-30 -5q-82 27 -107 64l10 14q-24 38 -49.5 101.5t-53.5 152.5q-34 47 -34 68q-26 74 -34 74v-10h-10q-14 39 -26.5 86t-22.5 104q-7 0 -14 -15q2 -31 3.5 -47.5t1.5 -20.5
q0 -10 -5 -10l5 -34v-73l5 -29q-5 -8 -5 -30l5 -19l-5 -10l5 -29q0 -15 -5 -15l5 -24v-64l9 -14q0 -4 -14 -15l9 -19q0 -6 -4 -15q2 -14 3 -25t1 -19v-10h-9q-5 0 -5 5q-12 -5 -15 -5v-39h-5q-14 15 -68 15q0 -10 -10 -10v5q-32 -4 -49 -24q-39 39 -39 63v10q0 11 15 49
l-5 29v19l10 15v10q0 10 -10 10q5 10 5 14q-10 16 -10 25h5l-5 9l10 15v15q-15 22 -15 34q12 5 15 5v9q0 10 -10 10l5 10v15q0 13 -1.5 30l-3.5 38q10 16 10 29v25q0 11 -5 19q5 10 5 20q-10 5 -19 5v34q0 98 19 171q0 4 -5 4q12 103 20 103q0 5 -5 5q13 40 19 288l-9 5
l4 48v98q0 11 5 19q0 5 -5 5l5 25v14l-5 10l-9 -5h-5v10q0 10 19 10v24h-14q-22 0 -39 10q0 -10 -10 -10l-5 10q0 11 44 19l10 -4q16 9 24 9l-5 10v5h10v10q-15 -5 -15 -10l-24 5h-34q-5 0 -5 5l-10 -5q-29 5 -29 10l-10 -5l-10 5l-9 -5q-10 5 -25 5v19q0 15 54 15l5 -10
q49 10 63 10q12 -5 15 -5q8 5 19 5q12 -5 15 -5v19l-15 20l-9 -5q-10 0 -39 10q-5 0 -5 -5q-11 0 -64 19q1 10 10 10h68l15 10h34q16 0 54 29zM12 1253v-5l9 5l25 -5v-9h-25q-4 0 -4 5l-10 -5h-5v5q1 9 10 9zM56 1244h9v-5h-9v5zM314 1165v-9h10v9h-10zM392 1126v-9l5 -25
h-5l5 -10v-43h-10v9h-4l4 -19q0 -12 -4 -20q2 -28 5.5 -47.5t8.5 -30.5q-10 -29 -10 -39q5 -12 5 -14h-5l5 -10q0 -5 -5 -5l5 -10q0 -5 -5 -5q0 -5 5 -5q-6 -107 -14 -107l5 -10q-4 -34 -10 -34q0 -5 5 -5l-5 -24l5 -20q-15 0 -15 -9q1 -10 10 -10q1 10 10 10h4v-35h-14v5
l5 10q-10 0 -20 5l5 -39h10v10h14q0 -32 -24 -54q15 0 15 -68q29 0 29 44h10q0 -15 10 -15l-5 -10v-24h9v14l5 25h10l-5 -34q15 0 15 -20h10v10l-5 10q32 13 58 117q-5 10 -5 14q12 5 15 5v5l-10 15q0 6 15 14q-10 19 -10 39l10 15v24h-10v10h10v15l5 24l-10 5q11 32 20 44
v5h-5q-12 -5 -15 -5v15q1 9 10 9l-10 20q10 16 10 29l-15 10q4 24 20 24v5q0 10 -10 10q0 -10 -10 -10l-5 74q-8 12 -14 53q-8 0 -20 20v34q-13 0 -93 19zM383 668h9v-5h-9v5zM539 629v-10h5v10h-5zM490 487v-10h5v10h-5zM627 370h9v10q-9 -2 -9 -10zM334 194v-39h5l5 30
q0 9 -10 9zM290 106v-9h10v9h-10z" />
    <glyph glyph-name="S" unicode="S" horiz-adv-x="583" 
d="M333 1458q3 -19 9 -19q21 0 44 9q0 -4 11 -5.5t23.5 -4.5t23.5 -8.5t11 -15.5h29q23 -29 34 -29q27 -98 44 -112q0 -5 -5 -5q6 -6 10 -59h-5l5 -9v-5q0 -10 -5 -20q0 -5 5 -5l-5 -24v-78q0 -10 -15 -10l5 -10v-14q0 -10 -10 -10q-10 5 -14 5q0 -5 -5 -5l5 -10l-10 -14
l5 -10l-5 -25h-10l-5 20l-14 -10q0 5 -5 5l5 10v10h-5v-15h-5l-10 5l5 19v20h-5q0 -29 -10 -29q-9 15 -9 29h-10q0 -13 -10 -34h-10v5q0 4 1.5 18.5t3.5 39.5q-5 12 -5 15h15q0 -15 15 -15q0 10 5 20q-5 0 -5 4l-10 -4q-10 0 -20 39h10v9l-5 25h5l-5 10v19h5l10 -5v10
l-20 24v10q0 5 5 5l-5 10q0 8 1.5 19l3.5 25l-5 9l10 20q-18 59 -68 59l-83 -25v-34q10 0 10 -15q-5 -40 -7.5 -62t-2.5 -26h5l-5 -9l10 -15q-16 0 -20 -24l5 -10v-15h-10q0 -5 5 -5l-5 -24v-10l5 -24q-10 -1 -10 -10q5 -45 7.5 -82t2.5 -69v-108q3 -12 93 -43v-5l-10 -5
l-19 10v-5q1 -14 39 -39v-5l-5 -10q27 0 63 -59q8 0 25 -14q0 24 9 24l25 -14l9 4q0 -12 25 -34q-5 -29 -10 -29l5 -10v-5q0 -5 -5 -5q0 -4 5 -4l-5 -25q5 -29 15 -29q0 -11 -10 -34q15 0 15 -10q-5 -12 -5 -15q10 -16 10 -24q-10 -1 -10 -10v-5h14v-19q0 -10 5 -20
q0 -5 -5 -5l15 -87l-10 -25q10 -1 10 -10v-9q0 -10 -5 -20l5 -10q-4 -98 -10 -102q0 -5 5 -5q-34 -199 -58 -220q0 5 -5 5q0 -21 -20 -29h-14q-20 -29 -39 -29q0 9 -10 9q-11 -23 -54 -48q-8 5 -19 5q0 -5 -5 -5v14q-10 0 -49 -9l-34 4v-4l9 -15l10 5q5 0 5 -5l10 5h5v-10
q-98 0 -98 34l-14 -10q-30 25 -30 39l10 5h10q5 -4 44 -24v10q-11 0 -34 19h-30v-10h-14q0 8 -44 49q-20 54 -30 54l5 24q-6 0 -19 30v9q1 10 10 10l-5 10q0 5 5 5l-5 10q0 9 14 9v5q-20 0 -24 88q-5 0 -5 15t1.5 33l3.5 40q-10 44 -10 54h5q12 -5 15 -5q14 20 14 34
q17 -9 59 -15l10 5q5 0 34 -54h14v-5q0 -6 -14 -14q0 -12 19 -34h-14v-10q14 0 14 -10q-9 -2 -9 -10q4 0 4 -4l10 4q15 0 15 -19h5l9 5q0 -5 5 -5l-9 -25q-20 0 -20 30h-15v-5q9 -20 20 -20v-9h-10v-10l15 10q0 -15 10 -15q0 -8 -15 -15l3.5 -18t1.5 -16l10 5h4q5 -28 5 -29
q-5 0 -5 -5q5 0 5 -5q-14 -2 -14 -39h14v-5l-5 -10q9 0 12 -4t6.5 -9.5t12 -11.5t28.5 -9q0 20 63 49q0 15 20 15v4q0 10 -10 10q0 -5 -5 -5v10h25v5q0 13 -10 29q15 4 15 30l-5 19h5l-5 10v5h5q9 -2 9 -10q0 -5 -5 -5q5 -20 5 -39h5q0 10 5 10q0 5 -5 5l5 24v20
q-19 0 -19 14q4 9 4 15q-9 0 -9 15l5 9v5h-5v-10q-10 0 -10 10v5q0 5 5 5l-5 10v39q1 9 10 9v-9h9v9q-9 0 -9 5q5 12 5 15q-8 0 -15 15l10 5q19 -19 19 -35l10 5h5v-5l-10 -14q10 -1 10 -10q-10 -1 -10 -10h15v39q0 5 5 5l-5 10v29h-10q0 -14 -10 -14l-19 24q5 12 5 15
q-10 0 -10 9l5 10l19 -10v20h-10l-9 -5l-5 10v5q10 0 10 9h9v-9h10l-5 34l-10 -5h-4v10q1 9 9 9q0 -4 5 -4v87q0 29 -34 69v9q5 0 5 5h-10v-9q-10 0 -10 9v5h15q-65 111 -107 122q0 -10 -10 -10q-12 0 -20 35q-9 0 -9 -15h-5q-17 20 -49 24q-54 48 -54 137
q-12 73 -19.5 137.5t-9.5 121.5h5l-5 9q0 5 5 5l-5 10v20l34 107q19 61 78 132q0 -5 5 -5q0 23 117 58zM347 1395v-5q19 0 39 -5v10l-24 5q-12 -5 -15 -5zM181 1307h5q0 35 108 73q4 0 4 5l-14 10q-72 -19 -103 -73v-15zM235 1322l-5 -10v-5l5 -10l10 5h9v-10q12 5 15 5v5
h-10v10l5 10h-5q-8 -5 -19 -5q0 5 -5 5zM274 1297v-14h5v14h-5zM254 1283v-10h5v10h-5zM430 1268v-5q1 -10 10 -10v15h-10zM250 1229v-5h9v5h-9zM450 1224v5l9 -10v5h-9zM245 1195v-5h9v5h-9zM459 1175v-14h5v14h-5zM450 1156v-10h5v10h-5zM459 1146v-10h10v10h-10z
M445 1141v-34h5q0 10 5 10q-5 8 -5 24h-5zM445 1097v-5h10v5h-10zM498 1004v-9h5v9h-5zM450 975h9v-5h-9v5zM489 960h9v-4h-9v4zM230 878v-5h10v5h-10zM235 868l-10 -39q5 -12 5 -15q10 0 10 10v44h-5zM245 712l-5 -5q14 0 14 -10h10q0 7 -14 15h-5zM425 697q15 -24 30 -24
v-10h-5q-34 21 -34 29zM372 507l4 -10q0 -10 -9 -10l-5 10q1 10 10 10zM333 482h9v-14h-9v14zM372 468l4 -10l-9 -5l-5 10zM376 448v-15q-9 0 -9 10zM313 433h10v-4h-10v4zM376 424h5q0 -10 -9 -10h-5q1 10 9 10zM376 311q5 -8 5 -19h5v19h-10zM157 311h15v-4q-3 0 -15 -5v9
zM333 311h9v-14h-9v14zM333 287h9v-15h-9v15zM59 277v-5h10v5h-10zM74 272v-14h5q0 4 5 14h-10zM89 272q0 -14 -5 -24h14q0 5 -5 5l5 10q0 9 -9 9zM172 268h4q0 -7 -14 -15v5q1 10 10 10zM391 268q10 -1 10 -10v-5q-10 0 -10 10v5zM333 253h9v-15h-9v15zM367 214
q0 -3 -5 -15v-5h5q0 10 19 10v5q-11 0 -19 5zM376 194v-5q6 0 25 -14l5 10l-25 9h-5zM381 170v-10h5v10h-5zM396 170v-24h5v24h-5zM196 165l10 5v-15h-10v10zM376 150v-14h5v14h-5zM162 141v-10h5v10h-5zM381 131q1 -10 10 -10v10h-10zM328 121l5 -10v-5h-5q-10 0 -10 10z
M352 106h10v-9q0 -10 -10 -10q0 5 -5 5q5 12 5 14zM176 77v-5h15v10q-12 -5 -15 -5zM50 72v-5q4 -7 4 -19h5v10q-5 10 -5 14h-4zM152 72q1 -9 10 -9v9h-10zM318 77l5 -5q10 6 10 -5h-5q-10 0 -10 10zM347 63h10l5 -25h-15v25zM313 53h15q0 -10 -10 -10h-5v10zM186 28l-5 -9
q0 -9 25 -15v20zM308 19l10 5v-10h-10v5zM372 -20v-10h4v10h-4zM298 -35h10v-5h-10v5zM264 -64h10v-5h-10v5zM162 -89v-14h10v14h-10zM254 -157v-5h5q7 0 15 15h-10q-10 -1 -10 -10zM430 -162v-10h5v10h-5zM240 -201v-5l34 -5v10h-34zM230 -216v-9h5v9h-5zM308 -225h10
q0 -10 -10 -10v10z" />
    <glyph glyph-name="T" unicode="T" horiz-adv-x="637" 
d="M102 1414l98 -14q69 9 97 9h5q20 0 20 -4l34 4h127l29 -4q7 3 58 9q88 -24 88 -68v-5q0 -13 -9 -29q0 -15 14 -15v-5q0 -34 -14 -39h-20q-22 0 -46 1.5t-52 3.5q-67 -19 -131 -19h-5v-15l10 5l4 -10h-19v-5q15 0 15 -10v-9q0 -25 -10 -25l5 -9v-49q-15 0 -15 -5l10 -20
l-10 -19q21 0 29 -59h-9q0 10 -15 49h-5v-39l10 -15v-9l-10 5l-3.5 -49.5t-1.5 -33.5v-5h10v14h5l10 -5q0 5 4 5l5 -9q-19 -4 -19 -25h-5l-15 10v-20l10 5q7 0 20 -19q-35 -32 -35 -83q10 -1 10 -10v-19h-10v-10q0 -15 5 -25l-5 -29v-15l20 -19l-10 -5q0 5 -5 5l-5 -20
q30 0 30 -44h-10q-10 0 -10 30h-5q0 -10 -5 -10l5 -10l-5 -19l5 -10q-5 -12 -5 -15q7 0 15 -14q0 -5 -24 -20l5 -10v-4q0 -10 -15 -10l5 -10l-5 -10q6 0 19 -34q-4 0 -4 -5q9 -2 9 -10l-9 -4q0 4 -5 4q0 -46 -5 -48v-15q-6 0 -10 -24l10 -5h5v19h9v-19l-4 -10l-10 5h-5v-29
l10 4q0 -23 5 -43q-19 0 -25 -74h-5q4 -51 20 -63l-10 -15l10 -5q3 35 14 35h5l-5 -10v-15l5 -34l-14 -10l5 -29h-10q0 19 -15 19l-5 -9v-10l5 -34h5q0 14 10 14h5v-4l-10 -15v-25h10v-4q-20 -23 -20 -25q0 -3 2.5 -16.5t7.5 -36.5q-25 0 -25 -59q5 -12 5 -15q-5 0 -5 -5
q10 -1 10 -9v-20q0 -5 -5 -5l5 -9v-10h-5q-5 0 -5 5q-19 -4 -34 -15l-9 5l-25 -5q-35 29 -54 122l-9 59q5 0 5 4q-10 0 -15 74h5l-5 9v83q0 5 5 5l-5 10q4 61 10 68l-3.5 25t-1.5 19v49q0 10 5 20q0 4 -5 4l5 25v24q0 17 8.5 95.5t25.5 221.5v10q0 5 5 5l-5 10
q15 259 15 341q20 108 48 215q0 10 -9 10q0 -10 -10 -10l-15 10l-5 -10v-5q15 0 15 -9v-5h-5q-44 20 -44 39l-24 -5v-5h14v-15q-2 0 -53 -9q-5 10 -5 14h-5l-10 -5l-5 10q10 5 20 5v5q-15 0 -25 5q0 -5 -4 -5l4 -10q0 -10 -9 -10h-39v10q2 0 14 5q10 -5 20 -5q0 7 -15 15
l-10 -5l-5 10l25 14l15 -10h9q7 0 15 15q-15 18 -15 24h-5v-4q5 -12 5 -15l-9 -5q-5 10 -12.5 18.5l-16 18.5t-18 23t-17.5 33q22 19 44 19zM0 1312h4v-10h-4v10zM161 1297v-5q7 0 19 -9v14h-19zM161 1278q0 -3 -5 -15h9v15h-4zM170 1268h10v10q-10 -1 -10 -10zM405 1092h9
v-14h-9v14zM400 960l5 -9h-15q1 9 10 9zM409 946v-10h-9q1 10 9 10zM400 824h9v-15h-9v15zM390 819h5v-15h-15v5q1 10 10 10zM400 799l5 -9v-10l-25 5q0 6 20 14zM395 760l5 -19h-5q10 -17 10 -39v-5q0 -10 -10 -10h-5q0 9 -10 20q10 0 10 14q-5 12 -5 15h5l-10 20q6 0 15 4
zM385 526h5v-10h-10l5 -9v-10h-5q-10 0 -10 10q7 19 15 19zM380 433h10l-10 -68h-10q0 2 1.5 9t3.5 20l-5 25q10 0 10 14zM351 224h10v-10h-10v10zM375 209q0 -5 5 -5q-5 -12 -5 -15h-5q-4 0 -4 5l-10 -5h-5v15zM346 165h10l5 -19h-15v19zM341 92v-10h5v10h-5zM351 -50h5v-9
h-5v9zM336 -84v-10h5v10h-5zM336 -108q10 -1 10 -10v-5h-10v15zM244 -147v-5h9v5h-9z" />
    <glyph glyph-name="U" unicode="U" horiz-adv-x="646" 
d="M628 1424v-15q-21 -58 -34 -58v-161l5 -34h-5l5 -10l-5 -10l9 -5q16 42 25 49h10v-10q0 -5 -5 -5l5 -9v-10l-10 -15q6 0 14 -14v-69q0 -112 -9 -166l5 -9q-4 -64 -15 -64q10 -20 10 -78v-24l-10 -15v-39h-15v-44q0 -11 5 -19l-14 -35q4 -8 4 -14q-14 -5 -14 -29
q0 -5 5 -5q-8 -24 -25 -196l5 -9l-5 -10q5 -12 5 -15q-10 -1 -10 -9v-20l10 -15v-9q0 -5 -5 -5q5 -12 5 -15q-7 -19 -15 -19q0 9 -9 9l-5 -24l10 -5l9 5v-24q-29 -26 -29 -49h-10v24h-19q-49 -201 -83 -210v-14q0 -14 -10 -30h5q-7 -19 -15 -19l-9 5q0 -37 -108 -88
q0 -5 -5 -5q-164 35 -195 83q5 0 5 5h-15v5l5 9q-14 0 -14 10q4 0 4 5q-2 0 -14 5l5 10q-6 6 -15 49l5 9v5h-15v10l5 10q-5 0 -5 5h10v-10h5v14q-15 18 -15 88q0 13 15 34q-15 0 -15 10v30q0 4 5 4q-2 5 -5 21.5t-5 42.5q10 5 20 5l-10 14v10l10 15l-10 14v54q0 5 5 5l-5 10
v24q0 5 5 5l-5 10q10 34 10 39h-5q6 29 15 29l-5 10v24q0 5 5 5l-5 10q5 39 7.5 63t2.5 34l-5 10l5 10q0 5 -5 5l9 73q0 5 -4 5q6 66 9 83q-5 8 -5 19q0 5 5 5q-5 12 -5 15q0 40 2.5 74t7.5 63q-5 14 -10 14q15 147 25 181l-5 49v107q0 7 20 19l39 -4q0 19 9 19q54 0 54 -97
h-5q10 -24 10 -40l-10 -4q4 -15 10 -15q-10 -46 -10 -142v-48q0 -5 -5 -5q0 -5 5 -5l-5 -25q0 -4 5 -4l-10 -54l10 -68q-5 -10 -5 -20q0 -3 5 -15l-5 -29v-10l5 -9h-5l5 -10l-5 -10l5 -10q-5 -39 -10 -39l10 -19q-5 -10 -5 -20l10 -14l-10 -5q5 -12 5 -15l-5 -19
q5 -10 5 -20h-5q0 -5 5 -5l-5 -58v-88q0 -5 -5 -5q0 -5 5 -5l-3.5 -43t-1.5 -30v-190q0 -5 -5 -5q0 -5 5 -5l-5 -73q0 -5 -4 -5l9 -25l-5 -9q31 -162 79 -162q0 -4 53 -39q56 47 83 108q-5 0 -5 5l20 14l-5 10q1 10 10 10l-5 10v4h10v5h-5l-10 -5q-12 5 -15 5l-9 -5
q-12 5 -15 5v5q13 0 29 10q7 -5 29 -5q10 30 10 39q-10 0 -10 15l5 10l-5 9l5 20l-5 10l5 9l-9 54q12 0 19 10l-5 10v4q0 5 5 5l-5 10v5q10 11 10 19q0 5 -5 5l5 25l-5 24q4 49 15 49v-20q0 -4 -5 -4q10 -16 10 -25h9v25q0 24 20 24v5h-15q0 -5 -5 -5v15l20 4v49l-5 10
q5 0 5 5h-5l5 10v19l-10 15q10 0 10 10q0 2 -5 14l5 44l-5 34q10 19 10 39q-5 12 -5 15l10 5q0 -5 5 -5l-5 -10v-10h9v44q0 10 -9 10l5 10q-5 8 -5 19h9l-4 10v10q0 5 4 5q-9 19 -9 34t14 15v48q0 10 5 20q0 5 -5 5l10 97q-5 22 -5 39l5 25h5l5 -25q12 5 14 5v5l-9 15
q0 14 3.5 47t10.5 85l-9 5q0 -18 -20 -93h-10q10 49 15 161q0 11 -5 19l3.5 44.5t1.5 33.5v88q1 10 10 10h24q10 -1 10 -10q6 0 10.5 7.5t9 17t10 17t14.5 7.5zM623 1351q10 -1 10 -10v-5q0 -16 -5 -24l5 -29v-30q-9 0 -15 -14q5 -12 5 -15l-5 -34h-5l-5 24v88q0 10 -5 20
q11 29 20 29zM520 1004h10v-14h-10v14zM550 951q0 -10 -10 -10l5 -24q0 -5 -5 -5q5 -12 5 -15h10l4 39q-4 9 -4 15h-5zM545 892l-5 -24q10 0 10 -15h5v39h-10zM550 848v-10h5v10h-5zM540 834l-3.5 -63t-1.5 -40v-24h5l10 58v69h-10zM140 760v-24h10q9 31 9 39h-5
q-7 0 -14 -15zM193 643v-9h5v9h-5zM467 648l10 -5q0 -7 -2.5 -18.5t-7.5 -25.5q5 0 5 -5h-10v5zM618 648q10 -1 10 -10v-9h-10v19zM545 604v-10h5v10h-5zM511 585v-10h5v10h-5zM511 570v-10h5v10h-5zM457 570h10q10 -1 10 -10q-4 -34 -15 -34l5 -10q0 -4 -5 -4q5 -44 10 -44
l-5 -35v-92h-10v9q0 5 5 5l-5 10q0 5 5 5l-10 34l5 10q-5 12 -5 15l5 24l-5 10l3.5 18t1.5 16q0 5 -5 5l5 24v44zM535 560v-19h5v19h-5zM86 541v19l10 -24v5h-10zM530 526q-4 -110 -14 -156q10 5 14 5v58q0 10 5 20q0 5 -5 5l5 24v44h-5zM599 526h4v-10h-4v10zM125 512v4
l5 -14v10h-5zM486 429h10v-10h-10v10zM125 370v-10h5v10h-5zM486 365l5 5v-15h-5v10zM550 360v-10h5v10h-5zM525 297v-10h15v10h-15zM516 258v-5h9v5h-9zM86 209v-5h10v5h-10zM559 204v5l5 -15v10h-5zM42 175l10 29v-19q-10 -1 -10 -10zM125 175l10 -5v15q-10 -1 -10 -10z
M125 116v-10q5 -10 5 -14h5v14q0 10 -10 10zM447 111v-9h5v9h-5zM428 87h5v-10h-5v10zM384 67h10v-4h-10v4zM428 38v-14q-10 0 -10 9zM86 14v-20h5v20h-5zM130 -11v-5h10v5h-10zM86 -30v-10h5v10h-5zM394 -30h4v-15h-14v5q1 10 10 10zM164 -64v-5q0 -26 29 -44v10
q-26 39 -29 39zM384 -59h10v-10q-10 0 -10 10zM193 -196v-5q13 0 40 -15v5q0 10 -35 15h-5z" />
    <glyph glyph-name="V" unicode="V" horiz-adv-x="667" 
d="M606 1434q19 -22 19 -25l-9 -24q9 -2 9 -10l-5 -9q36 -15 54 -59q15 -5 15 -29q0 -23 -25 -54v-15l5 -24q-13 0 -19 -54l5 -9q0 -5 -5 -5l5 -10q-13 -7 -25 -103q5 0 5 -4q-12 0 -24 -88q-9 -20 -39 -171q-65 -233 -132 -420q0 -95 -142 -449q-4 -17 -4 -34l4 -24
q-8 -4 -21 -13l-26.5 -18t-25.5 -16t-19 -7q-39 31 -39 39q19 57 19 68q-58 49 -88 430h5q-10 24 -10 112v10q0 26 1.5 48t3.5 40q0 73 -63 702q0 3 -2.5 41l-7.5 111q0 26 20 34q53 -17 53 -54l59 -322q13 0 49 -229v-93l5 -29l-5 -10q5 -35 9.5 -88.5t9.5 -126.5
q-10 -1 -10 -10q20 0 25 -131h-5q5 -5 5 -39q10 0 10 9v54q0 25 19 54l-10 19q29 111 55 198.5t48 153.5q0 26 24 53q10 32 22.5 87t26.5 133l10 5l-5 10q7 0 13.5 27l17.5 75t30 113t51 141h-5q0 16 59 39z" />
    <glyph glyph-name="W" unicode="W" horiz-adv-x="1450" 
d="M273 1429h10v-5h-10v5zM1381 1429l4 -5q-17 -36 -25.5 -58.5t-8.5 -29.5q39 64 44 64h10v-5l-10 -20v-5h5q29 59 39 59l20 -24q0 -3 -44 -93v-5q9 -2 9 -10q-24 -29 -24 -78h5v-5l-5 -10q6 0 15 -4q-8 -13 -32 -85.5l-66 -207.5h-5l5 -10q-29 -102 -44 -102l5 -20
l-239 -878l-10 -5h-5v14q-22 -28 -34 -83q-11 0 -39 -48q0 9 -10 9l-44 -24q-17 29 -29 29v20h-5q0 -20 -14 -20h-5q0 25 -10 25q0 -10 -10 -10q0 5 -5 5q20 35 20 63l-10 5l5 25v14q-21 112 -34 112l5 25q-69 193 -69 258q-12 47 -19.5 91.5t-9.5 89.5h10l15 -98h4v10
l-9 49l5 10l-15 88h-5v-20h-10q-5 35 -7.5 60.5t-2.5 42.5h5q-7 19 -24 200h-5q0 -19 -29 -108q-171 -644 -249 -805l-34 -24q-12 5 -15 5v29h-5q0 -20 -14 -20l-15 10q0 -15 -10 -15h-5q0 20 -9 20h-5q0 -15 -20 -24q0 4 -5 4l5 10v20q-10 13 -19 53h-5l-15 -9v9
q0 14 10 30q-12 5 -15 5v14l5 10q-15 0 -15 15q15 25 15 48v15q0 5 -5 5l5 10v14q-15 0 -15 10h10q-5 36 -7.5 64t-2.5 48l-9 -5l-15 10v-10h-5q-7 0 -14 15v5l24 -5q0 20 15 34q-4 64 -10 64h-15q0 9 15 9v15l-10 -5l-5 10q12 5 15 5q-10 59 -10 73l-10 -5h-5v5l10 15v24
q-19 16 -19 29q9 0 9 10v5q0 5 -4 5l4 10q0 44 -34 44l-9 14v5h14l-5 -10q19 -9 30 -9v24h-5v-10h-10v10q0 5 5 5l-5 10l10 14q-9 0 -15 15q-12 -5 -15 -5l5 -10v-5h-5q-9 0 -9 10v15l29 5q0 -5 5 -5v9q-15 0 -15 10l5 10q-10 0 -10 5l-9 -5h-5q0 6 -15 20q0 4 5 4l-5 10
q1 10 10 10l10 -5l-5 -10v-9q1 -10 9 -10h5q0 19 15 19v5q-20 0 -20 15q5 12 5 14l-34 59q11 10 20 10v5q-17 0 -20 39q-5 0 -5 5q20 2 20 43h-20l10 15q-10 0 -10 10v10h5l20 -25l-5 34h5l9 -4v24q0 28 -24 49l15 19v5l-15 20v14q0 5 5 5q-5 12 -5 15l5 10q0 24 -25 24
q0 -15 -9 -15l-5 10q5 10 5 20h9l10 -5q0 4 5 14q-15 0 -15 5l-9 -5h-5q5 44 14 44l-4 10v5h14v-29h5q0 11 5 19l-3.5 30t-1.5 24v24q0 7 20 15q19 0 19 -25h5q2 20 15 20q9 0 9 -20h5v15q-5 12 -5 15h5l-5 10q0 6 15 14q18 0 29 -54q-5 0 -5 -4l10 -5q0 29 25 29l5 -10
l-10 -14v-5l19 -5q0 -10 -9 -29l19 -5v-10h-10v-5q1 -10 10 -10h5q0 25 15 25l-5 9v5q6 0 14 -14q-5 -12 -5 -15q7 0 15 -15v-4q0 -16 -5 -44q5 -10 10 -24.5t10 -34.5q0 -11 -10 -34q5 -10 5 -20v-9h-10v-5q15 0 15 -10v-10h-10v10h-5v-20q20 0 20 -14q0 -12 -15 -34
q7 0 15 -15v-5h-15q0 2 -1.5 9t-3.5 20q5 0 5 5l-10 5l-10 -5q10 -27 10 -63q15 0 15 19h14q2 -13 3.5 -20t1.5 -9q-5 0 -5 -5l10 -5q-7 -19 -14 -19q0 5 -5 5l5 9v15h-10v-5l5 -10q-5 -8 -5 -19v-5l10 5l14 -20v-19h-10v15q-6 0 -14 -20q16 0 19 -29q10 -1 10 -10v-20
q0 -9 -10 -9v29h-19v19h-5v-14l5 -25q-5 -28 -5 -48q10 -16 10 -25q-10 -1 -10 -10q10 0 10 -24q5 0 5 5l9 -5q10 0 10 20h5q10 -1 10 -10v-10h-10v-5l10 -14v-5h-10v9h-5v-19h10v-15h-5l-10 5q-10 -16 -10 -24h5l-5 -10v-5l25 -5q0 -5 -5 -5l5 -9v-5h-5q-12 5 -15 5v-10
q3 0 15 -5q0 5 5 5l5 -10q0 -6 -25 -24q20 0 20 -10q-10 -1 -10 -10l10 -19q-10 -1 -10 -10v-15l5 -10l-10 -4l30 -54q0 34 9 34q0 5 -5 5q5 59 15 59l-5 9v15l5 10q-10 0 -10 9v5q0 10 15 10q12 -5 15 -5v59q0 5 4 5l-4 9q1 10 9 10l10 -5q0 30 5 30l-5 9v5l10 15l-5 10
l10 4q1 -9 9 -9h10l10 34q-10 0 -10 10q9 58 20 58l10 -5q0 12 9 44q-9 0 -9 10q9 54 29 54l112 366q0 1 4.5 10t10.5 19.5l11.5 19.5t7.5 9q10 0 10 -19h5q0 28 24 39h10l10 -5q0 15 10 15q25 -30 34 -30v-5l9 5q6 0 20 -29q-5 0 -5 -5h15v-19l-5 -10q9 -17 16 -22t12.5 -8
t8 -9t2.5 -25q-7 0 -15 -14v-20h10l-5 -19q0 -39 15 -39q0 -10 -5 -20v-5h5q3 25 14 25l25 -20l-5 -10q7 0 19 -24q-2 -10 -3 -18.5t-1 -15.5l-15 10v-5l10 -15l-10 -15v-9l10 5h14q0 -25 10 -35v-63l15 -29l-5 -10q10 -16 10 -29q-5 0 -5 -5q9 -2 9 -10q-4 -8 -4 -20
q4 0 4 -4q-9 -2 -9 -10q8 0 19 -29l-10 -20v-15h-4q1 -9 9 -9l10 4v-9q0 -10 -15 -10v-10q20 0 20 -29q-5 0 -5 -5q10 -1 10 -10v-9q0 -10 -15 -10v-5q1 -10 10 -10q0 5 5 5l5 -10v-5q0 -7 -15 -14q0 -5 20 -34q-16 -10 -30 -10v-5q35 -5 35 -15v-24q0 -10 -10 -10
q17 -68 24 -68l15 19q-8 0 -15 15q15 17 39 137h5l-5 9q25 69 58.5 180.5l78.5 268.5q11 32 17 45.5t10.5 20t8.5 10t10.5 15.5t17.5 36.5t29 72.5q13 25 19 25h5q-23 -63 -34 -78v-10q13 6 53 112q65 131 79 132zM244 1409h4v-9h-4v9zM273 1400h10v-5h-10v5zM253 1390v-20
h-9v10q1 10 9 10zM214 1385h10l5 -24l-10 -5l-5 10v19zM1317 1361l5 5l-34 -79h-10q33 74 39 74zM1381 1346q0 -3 -5 -15v-5h5q0 6 4 15v5h-4zM287 1346q0 -15 10 -34q-5 -12 -5 -15h-14l5 29q-10 0 -10 10zM1337 1322v-10q9 0 9 10h-9zM214 1307v-10h5v10h-5zM1332 1302v5
l5 -15v10h-5zM844 1302h10q9 -2 9 -10v-5q0 -7 -19 -14v5l5 9q-5 12 -5 15zM73 1287h9v-4h-9v4zM824 1287l5 -4v-5h-5v9zM63 1268l5 10l-10 -25l-5 10zM849 1268l9 -5h-9v5zM849 1253h14v-9h-14v9zM849 1239h5v-10h-5v10zM24 1229h10v-34h-10v34zM48 1224h10q0 -10 -10 -10
v10zM824 1219v-10h5v10h-5zM858 1224h10l-5 -29h-9v5zM278 1204v-4l5 -5v9h-5zM829 1200l15 4v-9q0 -10 -10 -10l-5 10v5zM1395 1195l5 -10v10h-5zM287 1180v15l5 -25v10h-5zM78 1170q9 -2 9 -9v-15q0 -10 -9 -10q-20 8 -20 15v10q20 0 20 9zM863 1170h5q10 -1 10 -9
q0 -10 -10 -10l-5 10v9zM29 1165l5 -4v-5h-5v9zM68 1151v-5h10v5h-10zM844 1156l5 -5v-10h-15v5q1 10 10 10zM131 1136v-5q1 -9 10 -9v14h-10zM858 1141l5 -5q2 4 3.5 3t1.5 -3l10 5h5v-24h-10q0 7 -15 24zM58 1131h15q0 -6 -20 -14l-5 9zM854 1131l4 -5l-9 -9h-5v5
q1 9 10 9zM34 1117q9 -2 9 -10v-5q0 -10 -9 -10v25zM78 1117h9l5 -30q0 -9 -10 -9q0 22 -4 39zM136 1107v-15q1 -10 10 -10v10q-5 12 -5 15h-5zM68 1107h5v-20h-5q-10 0 -10 10q1 10 10 10zM785 1097v-10h10q0 10 -10 10zM863 1087v-9h10q0 9 -10 9zM141 1078q0 -3 -5 -15
h10v15h-5zM790 1078l5 -10v10h-5zM844 1078v-5h10v5h-10zM68 1078h10v-10h-10v10zM34 1073h9l5 -25q-7 0 -14 15v10zM863 1058l10 -5v15q-10 -1 -10 -10zM278 1063v-20q1 -9 9 -9v19q0 10 -9 10zM73 1058h9q10 -1 10 -10v-5l-14 10v-5q4 -7 4 -19l10 5l5 -10
q-16 -10 -24 -10v5q0 5 5 5l-15 29zM146 1053q0 -29 -5 -29q5 -10 5 -20h5v49h-5zM790 1043l-5 10v-39q0 -27 15 -73q0 -3 -5 -15q15 -88 34 -88q5 0 5 5l5 10h-10v5q10 10 10 34h10v-39q0 -11 -5 -19q2 -7 4 -21.5t6 -37.5h4l5 44l-3.5 98t-1.5 63l-9 5h-5l-25 -20
q-13 16 -19 74zM814 1029v-15l5 -24h10l-5 39h-10zM92 1014q10 -1 10 -10l-10 -4v14zM146 1000v-15l5 -20h5v15l-5 20h-5zM727 990v10l5 -20v10h-5zM68 990h5q6 0 14 -15v-10q-7 0 -19 20v5zM58 980l5 -10v-14h-10q0 11 -5 19zM727 970v-14h9v14h-9zM151 951l5 -34h5v43
q-10 -1 -10 -9zM517 960h10v-9h-10v9zM92 951q10 -1 10 -10l-20 -20l-4 10v5q0 7 14 15zM732 946v-10h4v10h-4zM878 936v-5h10v5h-10zM53 931l15 5v-10q0 -9 -10 -9l-5 9v5zM117 921v-4h9v4h-9zM834 926l15 -5v-4h-15v9zM107 897l10 20v-10q-10 -1 -10 -10zM68 907h5v-25
h-10q0 10 -5 20zM507 892q0 -9 -10 -29v-5h5q0 10 10 29v5h-5zM741 878v-10h10v10h-10zM68 873q6 0 14 -15v-5h-4q-10 0 -10 10v10zM297 848h10v10q-10 -1 -10 -10zM746 858v-10h10v10h-10zM73 838l9 20l-4 -29q9 0 9 -15l-5 -10q5 -8 5 -19v-5h-9l-5 24v34zM107 814h10v-5
h-10v5zM829 804v5l5 -14v9h-5zM136 799v5l10 -9v4h-10zM356 799h14q0 -9 -9 -9zM97 795h10v-5h-10v5zM326 795q20 -31 20 -54v-5q0 -10 -10 -10q0 5 -5 5l5 10v5l-14 19q4 9 4 15l-9 -5h-5v5q0 7 14 15zM829 785v-25h10l-5 25h-5zM473 780v5l5 -15v10h-5zM87 726h10v-19
q-10 0 -10 9v10zM478 721v-14h5v14h-5zM331 721v-14h-9v5q1 9 9 9zM380 721q10 -1 10 -9h-10v9zM473 702l-5 -29h5l5 29h-5zM97 692l5 10v-39h-10l-5 24zM312 682v5l10 -10v5h-10zM702 677v5l5 -14v9h-5zM322 673v4l4 -14v10h-4zM122 673h9v-10h-9v10zM395 673q19 -7 19 -15
l-14 -10l-10 20q5 0 5 5zM97 643h10v-9q-10 0 -10 9zM707 629v-35q1 -9 10 -9l-5 44h-5zM897 614l-4 -20h9v20h-5zM141 594l5 20v-39l5 -24h-5l5 -10v-5q0 -10 -10 -10q-10 21 -10 64zM370 594h10v-19q-10 0 -10 10v9zM439 585v-10h5v10h-5zM932 585q4 -8 4 -20q10 0 10 10
t-10 10h-4zM112 575l5 -10v-19h-5q-10 0 -10 9v10q1 10 10 10zM936 560q0 -6 -4 -14v-5h4q0 4 5 14v5h-5zM400 555v5l5 -19v14h-5zM419 531q0 -11 -5 -19v-5h5q0 4 5 14v10h-5zM112 516l10 15v-24h-10v9zM941 507l5 -10v10h-5zM146 492l10 15v-35q-10 0 -10 10v10zM112 487
h10l4 -34h-9q0 8 -1.5 16zM161 468v-15h-10v5q1 10 10 10zM156 433h5q5 -44 14 -53l-5 -25l10 5l5 -10v-9h-5l-10 5v-10h-9l-5 19q9 0 9 10q-4 6 -7 15.5t-7 23.5q5 10 5 20l-10 -5v5q1 9 10 9zM927 429v-10h5v10h-5zM971 419v-20h5q9 0 9 10v5q-4 0 -14 5zM995 419v-10h5
v10h-5zM380 414l-10 -34v-5h5l10 34v5h-5zM912 404v10q5 -15 7.5 -15t2.5 5h-10zM326 385h10v9q-10 -1 -10 -9zM912 390v-10h10q0 10 -10 10zM336 380v-10h5v10h-5zM736 380l5 -44h5v14l-5 30h-5zM956 355v-14h5v14h-5zM927 336h5q9 0 9 10h-5q-9 -2 -9 -10zM131 331
q10 -1 10 -10v-19h-10v29zM175 326h5v-5q0 -7 -19 -19q-10 0 -10 9v10h10v-10h4q0 15 10 15zM195 307q0 -10 -5 -10q5 -12 5 -15h5v25h-5zM751 287v20l5 -30v10h-5zM224 272v15l5 -24v9h-5zM756 268v4l5 -14v10h-5zM170 258l10 10q0 -13 -1.5 -19t-3.5 -11q5 -12 5 -14h10
l-5 24l10 5l5 -10v-15q0 -7 -15 -14h-5q-5 0 -5 5l-10 -5h-4v5l9 14v25zM190 204h10v-10h-10v10zM175 199h10v-10l-20 -4v4q1 10 10 10zM234 194v-19h5v19h-5zM185 185h10q0 -8 9 -20h-9q-10 0 -10 10v10zM190 155h10v-9q0 -10 -10 -10h-5v5q5 10 5 14zM312 -64v-10h5v10h-5
zM351 -84v-10h5v10h-5zM283 -103h4q-4 -9 -4 -15h-10v5q1 10 10 10z" />
    <glyph glyph-name="X" unicode="X" horiz-adv-x="1048" 
d="M367 1370l5 -9h-15q1 9 10 9zM435 1370q20 0 44 -68q-5 0 -5 -5q14 0 24 -34q10 -1 10 -10q-5 0 -5 -5q10 0 10 -14h10q-10 30 -10 44v9h15v-14l10 5q9 -2 9 -10h-14l57 -197.5t35 -134.5h15q0 10 -5 20q5 8 5 19l-10 15l5 19q-5 15 -10 15l5 10l-14 24h9q9 0 25 -34
q0 -5 -5 -5q10 -17 10 -39q-5 0 -5 -5h19q60 110 83 112l-5 10q19 37 30 39h5v-5l-5 -9h9q91 124 98 126v-9q-44 -60 -54 -83v-5h5q81 114 122 161l15 10q10 0 10 -20l14 10l10 -5q0 6 24 24l15 -19q-8 -23 -34 -54q0 5 -5 5q0 -39 -44 -63v-25q0 -12 -34 -73q10 -1 10 -10
l9 5h5v-10l15 10q0 -15 19 -15v-9l-122 -200q-117 -203 -117 -215q22 -96 41.5 -168.5t36.5 -124.5q-4 0 -4 -5q7 0 24 -44l-5 -9q10 -1 10 -10l-5 -10q10 -1 10 -10q0 -5 -5 -5q25 -70 43.5 -116t29.5 -69q0 -5 -5 -5l5 -10v-9h-5q-5 0 -5 4q-8 -4 -14 -4q8 -20 14 -20
q0 5 5 5q17 -29 49 -117h-5q-14 0 -15 24h-4v-10l24 -63l-10 -5q-5 12 -5 15h-5l10 -54h-10l5 -24v-15q-9 -12 -9 -24l-30 5q0 -10 -9 -10q0 10 -10 10l-15 -20q-15 4 -15 10l-9 -5h-5l-15 10q0 -5 -5 -5q-36 37 -102 224q-6 5 -49 98q0 5 5 5l-5 9v5h10v10q-10 0 -20 5
l5 10v5h-10l10 14v5q0 12 -19 15v5l5 9h-15v15h10v5h-15v5l5 10q-15 0 -15 9q10 0 10 10q-8 0 -18.5 10.5t-10.5 33.5q9 0 9 10h-9v5l5 9q-20 0 -20 10q0 5 5 5l-5 10v5l5 9q-6 0 -24 25q0 -3 -5 -15q5 -12 5 -14l-10 -5l5 -10v-5h-5l-15 10h-5q-55 -103 -95 -186t-66 -146
l-10 -5l-34 20l5 9v5h-5l-14 -9l-5 9q14 5 14 10q-4 9 -4 15q9 0 9 9v5h-5l-19 -24q0 5 -5 5q10 19 10 34h-5q-11 0 -20 -39h-9l5 34v10h-5l-74 -98q0 -32 -73 -78q-18 -17 -29 -49l-10 -5h-5q0 15 -14 15q-12 -5 -15 -5v15l10 15h-10q0 -20 -24 -35q-5 10 -5 20l-10 -5h-5
q0 27 20 59v4h-5q0 -14 -10 -14h-10q-10 0 -10 10q30 43 35 43l9 -4q0 15 6 30t19 36l32.5 51.5t45.5 77.5q12 0 29 29q-5 10 -5 20q2 0 25 24h5l-5 -10v-5h5q0 10 14 30l-10 5q11 29 20 29v-15q5 0 59 83v5h-5q-13 -34 -25 -34l-5 10q7 1 69 102q5 -12 5 -15q0 -4 -30 -43
v-5h10q14 29 36.5 63t51.5 73h15v15h-10q-59 -83 -64 -83h-9v5l87 112l15 -10h5v10q-20 0 -20 15q13 1 39 44v5q0 16 -4 24l4 34q-45 153 -72.5 220.5t-34.5 67.5v5l5 10q-12 0 -49 112h10q34 -78 34 -83h5v10q-34 74 -34 83l10 5q1 -10 9 -10q-5 13 -5 53h5l-14 59h14
q15 -44 20 -44q12 5 14 5q40 -64 40 -78h14v15q-11 19 -24 24l5 34v15q-40 131 -49 146v5q1 10 10 10h4q9 0 30 -64h5v10q-15 33 -15 54h5l19 -20h5v25q1 9 10 9zM562 1307v-15q-10 0 -10 10zM923 1297v-5q0 -9 -10 -9v4q1 10 10 10zM542 1263h10v-15q-10 0 -10 10v5z
M938 1258v-10h5v10h-5zM572 1239l9 19q5 -15 7.5 -20t2.5 -9q0 -10 -10 -10q-9 0 -9 10v10zM586 1209l5 -9v-5h-5q-9 0 -9 9zM591 1180h10v-5q0 -10 -10 -10t-10 10zM606 1161q5 -15 9.5 -26t9.5 -18q0 -5 -5 -5l5 -10v-20q0 -9 -9 -9h-10q0 13 -10 24l10 15v14l-10 15v10
q1 10 10 10zM791 1102v-10h5v10h-5zM362 1014v-5q10 -19 10 -29h4v5q-9 19 -9 29h-5zM416 951q4 -9 4 -15h5v15h-9zM489 624q0 -10 -5 -10q8 -20 14 -20v5q0 10 -9 10l5 10v5h-5zM469 599q1 -9 10 -9l5 9h-15zM459 585q0 -20 -14 -20v-14h24v4l-5 10l10 5q0 -5 5 -5v5
q-5 12 -5 15h-15zM557 575h15v10h-5q-10 -1 -10 -10zM508 575v-5h10v5h-10zM733 570v-10h5v10h-5zM416 560l-5 -19q8 5 19 5v5q0 9 -10 9h-4zM498 560q1 -9 10 -9h5v9h-15zM542 551l-4 -10h14q0 10 -10 10zM440 541q-15 -23 -15 -34q15 0 34 34h-19zM474 541v-10l5 -24h5
q0 8 10 19q0 7 -20 15zM513 507v-5h20l-5 10q-12 -5 -15 -5zM411 492h14v10h-5q-9 -2 -9 -10zM401 482v-14h5q10 0 10 9v5h-15zM367 463v-5q14 0 14 -29h10q0 13 10 24v5q0 7 -20 19q-6 0 -14 -14zM435 472q-2 -13 -3.5 -20t-1.5 -9l10 -5l10 15v5q0 6 -15 14zM494 472
q1 -9 9 -9h5v9h-14zM489 458v-10h5v10h-5zM357 453l5 -10v-5l-29 -48v-10h19q0 7 20 39v24q0 10 -10 10h-5zM416 433q1 -9 9 -9h5q-5 8 -5 19q-9 -2 -9 -10zM450 404q1 -10 9 -10q0 9 10 20v10q-7 0 -19 -20zM401 414v-10h5v10h-5zM386 390v-5h15v5h-15zM440 385
q1 -10 10 -10v10h-10zM630 116h10v-14h-10v14zM-4 -55h10q0 -9 -10 -9v9zM977 -113h5q9 -2 9 -10v-5h-5q-9 0 -9 10v5z" />
    <glyph glyph-name="Y" unicode="Y" horiz-adv-x="594" 
d="M81 1346q98 -24 98 -59l-5 -34q45 -65 73 -229q0 -5 -5 -5q10 -45 15 -93l-10 -5q0 15 -5 25l-9 -5h-10v15h-10l-24 -20h-5v5l5 10l-5 9q9 25 9 35l-24 5q0 -25 -15 -25q10 -58 15 -58q23 0 34 -35l-10 -34q5 -8 5 -19h20v44h5q0 -15 10 -15h9q0 20 10 20l-5 9v5
q23 0 29 -93v-19q0 -5 -4 -5l4 -10q-9 -92 -29 -92h-5v-15h10l-29 -98q0 -35 117 -83q18 0 39 171h5l-5 10v10q0 5 5 5q0 4 -5 4q10 36 10 49l-5 10q10 66 20.5 123t23.5 106l-5 10q5 11 8.5 29t5.5 44l-4 25q6 0 14 14v5q0 77 -24 103v5q1 9 10 9q31 -9 44 -9h9q8 0 15 19
l-5 25q0 18 54 24q42 -20 49 -20v-9q0 -12 -20 -54q5 -10 5 -20h-5l5 -9v-15q0 -5 -5 -5l5 -10v-53q-15 -274 -29 -274q0 -4 4 -4l-29 -249l5 -10q-23 -93 -29 -93q0 -5 5 -5q-10 -37 -10 -92v-10q0 -5 -5 -5q4 -12 10 -59q-18 -248 -39 -248q5 -12 5 -15q-26 -113 -59 -132
q0 -12 -29 -29q-16 10 -29 10h-5q-30 -32 -30 -39v-5h-14q0 12 9 53q-4 0 -4 5q-19 -10 -39 -10l-5 25h-39q-16 19 -39 19v5q0 7 92 78q19 31 39 117l-5 10v5q11 20 15 20l-5 9q5 78 15 103q-5 8 -5 19v10q0 5 5 5l-5 10v5q0 9 15 9v10q0 10 -10 10l5 19l-5 20q5 12 5 15
q-10 34 -20 34q-47 -15 -58 -15h-5q-114 0 -220 93q-34 64 -34 107l24 249q-9 156 -9 215v5q13 268 53 268q5 0 5 5zM506 1239v-15h5v15h-5zM150 1151v-29h14l-5 9q10 0 10 10q-8 0 -19 10zM159 1087l-5 -19q5 -12 5 -15l15 10q0 -5 5 -5l5 10q-10 0 -25 19zM125 1063
q1 -10 10 -10v10h-10zM218 1043v-9h5v9h-5zM159 1039v-10l30 -5v5q-5 -1 -12 2zM208 1019v-5q3 0 15 -5v10h-15zM213 1004l-10 -14v-30l25 5q-5 39 -15 39zM120 995q0 -5 5 -5l-5 -25v-9q0 -10 5 -20l-10 -24l5 -10l-5 -10q5 -12 5 -14q-9 -2 -9 -10v-25h14v44q0 10 5 20
l-5 10q5 14 10 14l-5 10v54h-10zM237 960v-4h10v4h-10zM189 931h4v-10h-4v10zM169 902q0 -3 -5 -15h5q10 5 20 5v10h-20zM247 912h10q0 -10 -10 -10v10zM140 892v-19h5v19h-5zM164 868q5 -12 5 -15l-10 -5q5 -8 5 -24h15l-5 10q10 0 10 9q-10 19 -10 35q-10 -1 -10 -10z
M52 858v-5h10v5h-10zM252 853v-10h10v10h-10zM233 848v-10h9v10h-9zM140 843v-5h14v5h-14zM111 834q1 -10 9 -10v10h-9zM135 829l-5 -20q10 -1 10 -10l-5 -9q15 0 15 -5l9 5l10 -5v10l-5 9h10v5q0 10 -10 10l-14 -10h-5v5l5 10l-10 5h-5zM47 819v-5h10v5h-10zM198 819v-10
h15v10h-15zM189 790l4 -10q0 -6 -4 -15l4 -29h10l5 24q0 10 -5 20q5 8 5 19h-5zM115 795v-10h5v10h-5zM228 795v-10h9v10h-9zM247 785l-5 -34h15v34h-10zM140 780v-5h10v5h-10zM106 775q1 -10 9 -10h5q0 10 -9 10h-5zM81 765v-14h10v14h-10zM130 765q0 -9 -5 -9q5 -12 5 -15
h5q0 16 5 24h-10zM154 751q5 -10 5 -20h10q0 15 5 25h-10zM223 756v-10h10v10h-10zM81 741q1 -10 10 -10v10h-10zM218 736l5 -10q-5 -8 -5 -19h15v29h-15zM154 726v-10h10v10h-10zM189 726v-5l4 -9q-4 -8 -4 -20l14 10l-5 10q5 10 5 14h-14zM106 716v-9h9v9h-9zM247 716v-9
h5v9h-5zM145 712v-5q9 0 9 -10h10v10q-4 0 -14 5h-5zM218 697v-5h10v5h-10zM145 692v-10q4 0 14 -5v5q0 10 -9 10h-5zM242 692v-10h10v10h-10zM125 687v-19h5v19h-5zM189 682v-9h9v9h-9zM150 673q1 -10 9 -10v10h-9zM184 663v-29h9l5 29h-14zM145 634v-5h9v5h-9zM379 -162
l5 -10l29 5l5 -24h10l-5 10l19 9q3 0 35 -9q0 4 4 4l5 -9l-5 -10l-24 5h-15l10 -15v-5h-15l-14 10v-10l10 -14h-5q-12 5 -15 5q-5 -12 -5 -15h-5q-9 0 -9 10q0 9 19 9v5q-29 10 -39 10l-10 -5q-8 5 -19 5h-15v15h49q10 -1 10 -10q8 5 19 5v5q-24 0 -24 9l-10 -4q-9 4 -15 4
v10q2 0 20 5zM481 -201h5v-10h-5v10zM335 -206l5 -5q0 -14 -10 -14t-10 9zM389 -211l5 -9q-10 0 -30 -20h-14v5l9 15q-4 0 -4 4q27 0 34 5zM433 -225h14q0 -10 -10 -10h-4v10z" />
    <glyph glyph-name="Z" unicode="Z" horiz-adv-x="677" 
d="M386 1317q5 0 5 -5l10 5h5q10 -1 10 -10q10 5 14 5q103 -25 103 -59l29 -39v-5l-10 -14q20 -20 29 -20q16 10 30 10q36 -49 73 -49q0 -19 10 -29q0 -2 -12 -24.5l-27.5 -52.5l-30 -59.5t-18.5 -44.5v-5q14 0 14 -9q-4 -25 -19 -25v-29q0 -11 -24 -15v-5q9 0 9 -4l10 4h5
v-4q0 -10 -10 -10q0 5 -5 5l5 -20q0 -16 -39 -73h10v-10h-10v-14q-10 -46 -10 -54v-15l10 -14q0 -5 -5 -5l5 -10l-19 -20q4 0 24 -24v-5h-10l5 -10q-53 -18 -73 -78q-26 -64 -40.5 -110t-23 -76t-14.5 -44t-15 -14h-5q0 -11 5 -19q-51 -143 -78 -181q-6 0 -18 -14.5
l-36 -43.5v-20q10 0 20 5l10 -5l10 5q39 -12 39 -19q-12 -5 -15 -5q1 -10 10 -10q69 0 97 34h-9v10h29v-15h10q0 15 9 15h15l5 -25h14v20h10l15 -10h10l9 5q0 -18 35 -29v-15l-5 -24q5 0 5 -5h-10q-12 5 -15 5v-10l20 -5v-19q0 -6 -64 -49q0 -7 -24 -20q0 15 -25 15h-19
q-44 0 -117 -15l-20 5q-23 -2 -45 -3.5t-43 -1.5h-4q0 -29 -10 -29q-134 0 -191 73v29q0 25 3.5 37t6.5 12l-5 10q0 12 103 205q0 21 34 93q0 15 107 273v5h-39q0 12 -9 24v20h14q0 5 -53 19q0 15 -25 30q0 8 29 19v5q-20 0 -29 20q20 0 20 9v25q8 5 19 5h25q12 0 18 -3.5
t6 -6.5l34 5h44q55 84 88 175q34 47 34 69q14 11 44 68q-6 22 -20 24q0 -4 -4 -4v9q34 109 34 117q-6 0 -220 78h-10l-9 -4q9 -17 9 -30h-9q9 -53 9 -78q15 0 15 -10v-4q0 -5 -5 -5l5 -10v-15q-11 0 -20 -44h-14q0 15 -15 15q0 -44 -14 -44q-14 10 -25 22.5t-19 26.5l5 24
v88q0 89 68 127q0 24 54 24l19 -4q33 14 49 29h5l9 -5q1 10 10 10zM630 1126v-9h5v9h-5zM484 917h10q24 75 34 87v10q-23 -14 -44 -97zM455 1000v-10q-20 -23 -20 -34h-10v4q4 16 30 40zM455 858v-44q12 0 39 98q-35 -29 -35 -54h-4zM455 897v-5h9v5h-9zM572 829
q0 -9 -10 -25v-9h5q0 13 10 29v5h-5zM445 804q-17 -38 -28.5 -58t-18.5 -31t-9.5 -16t-2.5 -12q5 -12 5 -14q-10 -1 -10 -10h20v-5l-5 -10h15q9 0 9 29h10v-14h10q0 24 -15 24q30 79 30 117h-10zM411 785q1 -10 9 -10v10h-9zM459 780v-20h5v20h-5zM533 731l-5 -19h10v19h-5z
M523 697v-10h5v10h-5zM518 677v-9h5v9h-5zM523 580v-5h15v5h-15zM313 477l5 -9v-5q0 -10 -10 -10l-10 5v-5l5 -10q-5 -12 -5 -14q0 -5 5 -5q-3 -64 -34 -64l10 -14q-16 -25 -29 -25q4 -9 4 -14q0 -14 -29 -25q1 -10 10 -10q-20 -68 -44 -68h-5v-5q15 0 15 -10v-4
q-44 -55 -44 -79q10 -1 10 -9q-4 -19 -35 -44l5 -10q0 -7 -14 -15v10h-20q0 -24 -5 -24l5 -10v-20l-19 -34v-14h14v-25q10 0 20 -5q18 35 28 49.5t15 22.5t8 17t7 33q14 0 44 59v-10h10v10q-15 0 -15 10q66 67 93 161q14 32 26.5 63.5t22.5 63.5q-10 0 -10 14l39 78v30h-10
q0 -20 -9 -20v10l5 24q-30 -14 -49 -44h-10zM254 399v-5h10v5h-10zM367 375q0 -3 -5 -15v-5h5q0 3 5 15v5h-5zM357 350v-9h5v9h-5zM342 272v-9h5l5 24q-10 0 -10 -15zM323 277v-9h10v9h-10zM337 258v-10h5v10h-5zM313 209q5 -10 5 -20h5l5 30zM298 165v-24h5l10 29
q-12 -5 -15 -5zM264 92q0 -39 -14 -39l4 -10q-8 -29 -24 -29v-10l20 -5q34 87 34 93h-20zM220 67q0 -8 -9 -39h4q4 0 15 20q-5 8 -5 19h-5zM162 -74v-5h5q39 45 39 83v5q-15 -14 -44 -83zM298 -50l-9 -14v-5q8 5 19 5v5q0 9 -10 9zM572 -50h9v-5h-9v5zM298 -79v-10h5v10h-5z
M54 -89v-9h5v9h-5zM128 -138q4 -8 4 -14h5l15 49q-7 0 -24 -35zM89 -162v-10q0 -14 43 -24l5 19l-19 15h-5v-5q5 -12 5 -14h-5zM503 -162v-19l10 9v10h-10zM191 -172v10l10 -19v9h-10zM137 -211v-5h10v5h-10z" />
    <glyph glyph-name="bracketleft" unicode="[" horiz-adv-x="758" 
 />
    <glyph glyph-name="backslash" unicode="\" horiz-adv-x="569" 
 />
    <glyph glyph-name="bracketright" unicode="]" horiz-adv-x="758" 
 />
    <glyph glyph-name="asciicircum" unicode="^" 
 />
    <glyph glyph-name="a.001" horiz-adv-x="922" 
 />
    <glyph glyph-name="b.001" horiz-adv-x="995" 
 />
    <glyph glyph-name="c.001" horiz-adv-x="905" 
 />
    <glyph glyph-name="d.001" horiz-adv-x="1040" 
 />
    <glyph glyph-name="e.001" horiz-adv-x="909" 
 />
    <glyph glyph-name="f.001" horiz-adv-x="559" 
 />
    <glyph glyph-name="g.001" horiz-adv-x="899" 
 />
    <glyph glyph-name="h.001" horiz-adv-x="1104" 
 />
    <glyph glyph-name="i.001" horiz-adv-x="514" 
 />
    <glyph glyph-name="j.001" horiz-adv-x="510" 
 />
    <glyph glyph-name="k.001" horiz-adv-x="1026" 
 />
    <glyph glyph-name="l.001" horiz-adv-x="522" 
 />
    <glyph glyph-name="m.001" horiz-adv-x="1569" 
 />
    <glyph glyph-name="n.001" horiz-adv-x="1108" 
 />
    <glyph glyph-name="o.001" horiz-adv-x="1010" 
 />
    <glyph glyph-name="p.001" horiz-adv-x="1010" 
 />
    <glyph glyph-name="q.001" horiz-adv-x="1024" 
 />
    <glyph glyph-name="r.001" horiz-adv-x="692" 
 />
    <glyph glyph-name="s.001" horiz-adv-x="702" 
 />
    <glyph glyph-name="t.001" horiz-adv-x="674" 
 />
    <glyph glyph-name="u.001" horiz-adv-x="1059" 
 />
    <glyph glyph-name="v.001" horiz-adv-x="993" 
 />
    <glyph glyph-name="w.001" horiz-adv-x="1415" 
 />
    <glyph glyph-name="x.001" horiz-adv-x="1010" 
 />
    <glyph glyph-name="y.001" horiz-adv-x="868" 
 />
    <glyph glyph-name="z.001" horiz-adv-x="727" 
 />
    <glyph glyph-name="braceleft" unicode="{" 
d="M240 698q172 4 223 71q51 66 51 133v468q0 36 21 73t56.5 67.5t83 49.5t101.5 19h108v-50h-90q-29 0 -56.5 -8.5t-49 -24.5t-34.5 -39t-14 -53v-500q0 -39 -16 -80.5t-43.5 -75.5t-64.5 -56t-79 -23v-2q41 -1 78 -22.5t65 -55t44.5 -75t16.5 -81.5l-1 -500q1 -30 14 -53
t34.5 -39t49 -24.5t56.5 -8.5h90v-50h-108q-54 0 -101 19t-82.5 49t-56.5 67.5t-22 73.5v468q0 66 -51 132q-51 67 -223 71v60z" />
    <glyph glyph-name="bar" unicode="|" 
d="M427 1577h160v-1995h-160v1995z" />
    <glyph glyph-name="braceright" unicode="}" 
d="M774 638q-172 -4 -223 -71q-51 -66 -51 -132v-468q-1 -36 -22 -73t-56.5 -67.5t-83 -49.5t-100.5 -19h-108v50h90q29 0 56.5 8.5t49 24.5t34.5 39t14 53l-1 500q0 40 16.5 81.5t44.5 75t65 55t79 22.5v2q-42 1 -79 22.5t-65 55t-44 75t-16 82.5v500q-1 30 -14 53
t-34.5 39t-49 24.5t-56.5 8.5h-90v50h108q54 0 101.5 -19t83 -49.5t56.5 -67.5t21 -73v-468q0 -67 51 -133q51 -67 223 -71v-60z" />
    <glyph glyph-name="asciitilde" unicode="~" 
d="M923 878v-156q-63 -72 -122 -97.5t-116 -25.5q-30 0 -74.5 11.5t-103.5 36.5q-117 49 -176 49q-26 0 -52 -6t-54.5 -21.5t-61 -42.5t-69.5 -70v156q32 36 62.5 60.5t60.5 38.5t58.5 20t55.5 6q63 0 181 -50q117 -49 173 -49q27 0 53.5 6t55.5 22t60.5 43t68.5 69z" />
    <glyph glyph-name="periodcentered" unicode="&#xb7;" horiz-adv-x="508" 
d="M145 740l82 84q7 7 14.5 10t14.5 4q15 0 31 -16l80 -86q12 -17 12 -29q-2 -17 -14 -31l-80 -88q-20 -22 -29 -20q-18 0 -29 14l-88 101q-10 13 -10 26q0 15 16 31z" />
    <glyph glyph-name="periodcentered" unicode="&#x2219;" horiz-adv-x="508" 
d="M145 740l82 84q7 7 14.5 10t14.5 4q15 0 31 -16l80 -86q12 -17 12 -29q-2 -17 -14 -31l-80 -88q-20 -22 -29 -20q-18 0 -29 14l-88 101q-10 13 -10 26q0 15 16 31z" />
    <glyph glyph-name="cedilla" unicode="&#xb8;" horiz-adv-x="1024" 
d="M401 -274q68 -41 121 -41q54 0 76.5 17t22.5 53q0 33 -33 48.5t-88 15.5q-7 0 -13.5 -0.5t-13.5 -1.5l38 141h51l-30 -83q13 2 25.5 3t24.5 1q69 0 107 -32.5t38 -90.5q0 -61 -46.5 -96.5t-128.5 -35.5q-88 0 -151 25v77z" />
    <glyph glyph-name="uni00B9" unicode="&#xb9;" 
 />
    <glyph glyph-name="ordmasculine" unicode="&#xba;" horiz-adv-x="718" 
 />
    <glyph glyph-name="guillemotright" unicode="&#xbb;" horiz-adv-x="944" 
d="M115 176h-14v37l205 266l-205 266v37h14l342 -303zM428 176h-14v37l205 266l-205 266v37h14l342 -303z" />
    <glyph glyph-name="onequarter" unicode="&#xbc;" horiz-adv-x="1708" 
 />
    <glyph glyph-name="onehalf" unicode="&#xbd;" horiz-adv-x="1964" 
 />
    <glyph glyph-name="threequarters" unicode="&#xbe;" horiz-adv-x="1708" 
 />
    <glyph glyph-name="questiondown" unicode="&#xbf;" horiz-adv-x="748" 
 />
    <glyph glyph-name="dotlessi" unicode="&#x131;" horiz-adv-x="514" 
d="M328 223q0 -173 100 -173h46v-50h-442v50h46q100 0 100 173v432q0 77 -111 77h-48v44q222 69 261 182h48v-735z" />
    <glyph glyph-name="circumflex" unicode="&#x2c6;" horiz-adv-x="1024" 
d="M221 1079l232 355h118l232 -355h-58l-233 216l-233 -216h-58z" />
    <glyph glyph-name="caron" unicode="&#x2c7;" horiz-adv-x="1024" 
d="M221 1434h58l233 -214l233 214h58l-232 -356h-118z" />
    <glyph glyph-name="uni02C9" unicode="&#x2c9;" horiz-adv-x="1024" 
d="M254 1195v125h516v-125h-516z" />
    <glyph glyph-name="breve" unicode="&#x2d8;" horiz-adv-x="1024" 
d="M219 1349h51q17 -73 75 -107t167 -34t166 33t74 108h51q-20 -134 -93.5 -202t-197.5 -68q-123 0 -197.5 68.5t-95.5 201.5z" />
    <glyph glyph-name="dotaccent" unicode="&#x2d9;" horiz-adv-x="1024" 
d="M422 1289l69 72q12 12 27 12q13 0 25 -12l71 -76q9 -6 9 -24q-1 -9 -3 -15t-8 -12l-71 -76q-12 -11 -16 -13.5t-7 -2.5q-20 0 -27 11l-75 87q-8 8 -8 23q0 6 3 12.5t11 13.5z" />
    <glyph glyph-name="ring" unicode="&#x2da;" horiz-adv-x="1024" 
d="M411 1257q0 -21 7.5 -39.5t21 -32t32 -21t39.5 -7.5t39 7.5t31.5 21t21.5 32t8 39.5q0 20 -8 38t-22 31.5t-32 21.5t-38 8t-38 -7.5t-31.5 -21t-22 -31.5t-8.5 -39zM335 1257q0 37 13.5 69.5t37.5 56.5t56 37.5t69 13.5t70 -14t57 -38t38 -56.5t14 -68.5t-13.5 -68.5
t-37.5 -57t-56.5 -38.5t-71.5 -14q-37 0 -69 14t-56 38t-37.5 56.5t-13.5 69.5z" />
    <glyph glyph-name="ogonek" unicode="&#x2db;" horiz-adv-x="1024" 
d="M640 0q-72 -63 -111 -120t-39 -112q0 -48 27 -75.5t73 -27.5q80 0 119 64l28 -16q-36 -63 -90 -97t-120 -34q-35 0 -64 9.5t-50 26t-32.5 40t-11.5 50.5q0 38 16 78t45 78.5t70 73t91 62.5h49z" />
    <glyph glyph-name="hungarumlaut" unicode="&#x2dd;" horiz-adv-x="1024" 
d="M217 1079l144 273q23 45 45 63.5t47 18.5q28 0 48 -20t20 -47q-1 -16 -11 -35.5t-30 -40.5l-205 -212h-58zM502 1079l144 273q23 45 45 63.5t47 18.5q28 0 48 -20t20 -47q-1 -16 -11 -35.5t-30 -40.5l-205 -212h-58z" />
    <glyph glyph-name="quotesinglbase" unicode="&#x201a;" horiz-adv-x="557" 
d="M238 281q21 0 44.5 -18t43 -48.5t32.5 -69.5t13 -81q0 -52 -20 -112.5t-51 -112t-68 -85.5t-71 -34v43q74 44 87 190q0 119 -129 161v42z" />
    <glyph glyph-name="quotedblbase" unicode="&#x201e;" horiz-adv-x="910" 
d="M238 281q21 0 44.5 -18t43 -48.5t32.5 -69.5t13 -81q0 -52 -20 -112.5t-51 -112t-68 -85.5t-71 -34v43q74 44 87 190q0 119 -129 161v42zM591 281q21 0 44.5 -18t43 -48.5t32.5 -69.5t13 -81q0 -52 -20 -112.5t-51 -112t-68 -85.5t-71 -34v43q74 44 87 190
q0 119 -129 161v42z" />
    <glyph glyph-name="dagger" unicode="&#x2020;" 
d="M486 1022q-7 97 -54 178q-57 100 -57 129q0 49 36 78.5t96 29.5q57 0 94.5 -27t37.5 -72q0 -34 -55 -137q-46 -85 -55 -179q96 7 177 54q100 57 129 57q49 0 79 -36t30 -96q0 -57 -27.5 -94.5t-72.5 -37.5q-33 0 -136 55q-86 47 -179 57q8 -176 110 -277
q-106 -458 -112 -974h-38q-6 513 -114 974q102 100 111 277q-98 -11 -178 -55q-102 -57 -129 -57q-49 0 -78.5 36t-29.5 96q0 57 27 94.5t72 37.5q31 0 137 -56q85 -46 179 -55z" />
    <glyph glyph-name="daggerdbl" unicode="&#x2021;" 
d="M528 186q93 10 179 57q103 55 136 55q45 0 72.5 -37.5t27.5 -94.5q0 -60 -30 -96t-79 -36q-29 0 -129 57q-81 46 -177 54q9 -94 55 -179q28 -53 41.5 -87.5t13.5 -49.5q0 -45 -37.5 -72t-94.5 -27q-60 0 -96 29.5t-36 78.5q0 28 57 129q47 81 54 178q-94 -9 -179 -55
q-106 -56 -137 -56q-45 0 -72 37.5t-27 94.5q0 60 29.5 96t78.5 36q27 0 129 -57q42 -23 86 -36.5t92 -18.5q-9 225 -111 398q102 171 111 397q-98 -11 -178 -55q-102 -57 -129 -57q-49 0 -78.5 36t-29.5 96q0 57 27 94.5t72 37.5q31 0 137 -56q85 -46 179 -55
q-7 97 -54 178q-57 100 -57 129q0 49 36 78.5t96 29.5q57 0 94.5 -27t37.5 -72q0 -34 -55 -137q-46 -85 -55 -179q96 7 177 54q100 57 129 57q49 0 79 -36t30 -96q0 -57 -27.5 -94.5t-72.5 -37.5q-33 0 -136 55q-86 47 -179 57q7 -225 110 -397q-103 -173 -110 -398z" />
    <glyph glyph-name="ellipsis" unicode="&#x2026;" horiz-adv-x="2048" 
d="M145 167l82 84q7 7 14.5 10t14.5 4q14 0 31 -16l80 -86q12 -17 12 -29q-2 -17 -14 -31l-80 -88q-9 -11 -17 -15.5t-12 -4.5q-18 0 -29 14l-88 101q-10 13 -10 26q0 15 16 31zM828 167l82 84q7 7 14.5 10t14.5 4q14 0 31 -16l80 -86q12 -17 12 -29q-2 -17 -14 -31l-80 -88
q-9 -11 -17 -15.5t-12 -4.5q-18 0 -29 14l-88 101q-10 13 -10 26q0 15 16 31zM1511 167l82 84q7 7 14.5 10t14.5 4q14 0 31 -16l80 -86q12 -17 12 -29q-2 -17 -14 -31l-80 -88q-9 -11 -17 -15.5t-12 -4.5q-18 0 -29 14l-88 101q-10 13 -10 26q0 15 16 31z" />
    <glyph glyph-name="guilsinglleft" unicode="&#x2039;" horiz-adv-x="631" 
d="M174 479l342 303h14v-37l-205 -266l205 -266v-37h-14z" />
    <glyph glyph-name="fraction" unicode="&#x2044;" horiz-adv-x="342" 
d="M-342 -29l940 1461h84l-938 -1461h-86z" />
    <glyph glyph-name="fraction" unicode="&#x2215;" horiz-adv-x="342" 
d="M-342 -29l940 1461h84l-938 -1461h-86z" />
    <glyph glyph-name="franc" unicode="&#x20a3;" 
d="M247 357h-194v60h194v732q0 235 -103 235h-96v50h915l103 -231h-49q-59 182 -190 182l-316 -1q-102 0 -102 -235v-352h361q100 0 100 63v58h50v-342h-50v60q0 62 -100 62h-361v-281h194v-60h-194v-72q0 -235 102 -235h97v-50h-560v50h96q103 0 103 235v72z" />
    <glyph glyph-name="lira" unicode="&#x20a4;" 
d="M748 1347q-71 31 -160 31h-2q-46 0 -94.5 -24.5t-88.5 -69.5t-65.5 -108t-25.5 -140q0 -62 7.5 -121.5t26.5 -121.5h380v-60h-360l12.5 -30l13.5 -30h352v-60h-321q35 -64 35 -138q0 -161 -162 -375h402q130 0 189 132l49 -1l-103 -231h-719l1 50q187 238 187 418
q0 78 -34 143l-2 2h-172v60h143l-13.5 31l-12.5 29h-135v60h113q-36 106 -36 193q0 114 33 201.5t91.5 146.5t138 89.5t171.5 30.5q22 0 52.5 -1.5t63.5 -5t65 -7.5t57.5 -9.5t41.5 -11.5t16 -13v-161h-58q-4 61 -77 102z" />
    <glyph glyph-name="peseta" unicode="&#x20a7;" horiz-adv-x="2028" 
d="M409 1384v-662q17 -51 43 -91t57 -67.5t65 -41.5t66 -14q49 0 95.5 31.5t81.5 88.5t56.5 136.5t21.5 175.5q0 90 -19.5 170.5t-55.5 141.5t-86 97t-110 36h-10.5t-10.5 -1h-194zM1496 908h-179v-685q0 -75 28 -112t87 -44l-71 192l49 1q28 -65 56 -107.5t57.5 -67t61 -34
t66.5 -9.5h7q46 0 84.5 14t66.5 38.5t43.5 59t15.5 76.5q0 102 -259 226q-51 26 -86.5 53.5t-58 58.5t-32.5 67t-10 78q0 121 73 194zM1039 910q-6 -87 -37 -165.5t-81 -138.5t-116.5 -95.5t-144.5 -35.5q-66 0 -131.5 29t-119.5 86v-305q0 -235 102 -235h97v-50h-560v50h96
q103 0 103 235v864q0 235 -103 235h-96v50h618q69 -1 135.5 -35.5t119.5 -97t85.5 -150t34.5 -193.5h10q216 0 216 355h50v-355h259q40 18 110 20h2q23 0 59.5 -3.5t70.5 -10t58.5 -15t24.5 -18.5v-159h-42q-2 33 -20.5 60.5t-46.5 47.5t-62.5 31t-69.5 11
q-64 0 -102.5 -36.5t-38.5 -96.5q0 -108 235 -220q61 -28 102 -57t65.5 -61t35 -69.5t10.5 -83.5q0 -139 -83 -231q-51 -42 -108 -64t-120 -22q-48 0 -86 8.5t-75 8.5q-24 0 -46.5 -4t-48.5 -4q-63 0 -105.5 14t-69 43t-39.5 73t-17 103l-1 687h-129z" />
    <glyph glyph-name="Euro" unicode="&#x20ac;" 
d="M140 372q-31 68 -50 138t-26 143h-108l17 60h87v29v15.5t1 15.5h-71l17 60h58q12 135 64 253.5t132.5 207t184 139.5t219.5 51q44 0 84.5 -8.5t84.5 -28.5q7 -6 16 -6q20 0 34 45h41l84 -281l-40 -1q-18 50 -41 85t-50.5 59.5t-59.5 40t-68 25.5v3q-48 16 -101 16
q-81 0 -158.5 -41.5t-140.5 -119t-105 -189t-52 -250.5h706l-17 -60h-692q0 -15 0.5 -30t1.5 -30h674l-17 -60h-652q13 -123 55 -232t106.5 -191t148.5 -130.5t182 -49.5q186 3 256 91q74 92 74 185h48v-143q0 -34 -28.5 -66.5t-78.5 -58t-119.5 -41.5t-151.5 -17
q-90 0 -172.5 25t-153 73t-127 117t-96.5 157z" />
    <glyph glyph-name="afii61352" unicode="&#x2116;" horiz-adv-x="2271" 
 />
    <glyph glyph-name="partialdiff" unicode="&#x2202;" 
d="M232 537q0 -65 11.5 -129.5t32.5 -123t50 -108.5t63.5 -87t74 -58t81.5 -21q49 0 92 28.5t75.5 81t51 126.5t18.5 164q0 64 -11 128.5t-31.5 123.5t-49.5 110t-64 89t-75 59.5t-84 21.5h-11q-46 -3 -86.5 -33t-71 -83t-48.5 -126.5t-18 -162.5zM937 477
q0 -96 -31.5 -186.5t-88.5 -160.5t-136 -112.5t-174 -42.5q-83 0 -160.5 36.5t-137.5 103t-96 159t-36 203.5q0 97 32.5 187t90 160t136 112t171.5 42q69 0 137 -26t129 -80q-42 116 -101.5 211t-132 164t-155.5 109.5t-171 47.5v55q306 0 515 -285q209 -286 209 -697z" />
    <glyph glyph-name="Delta" unicode="&#x2206;" horiz-adv-x="1081" 
d="M514 1195l-406 -1072h801zM547 1434l526 -1434h-1067z" />
    <glyph glyph-name="product" unicode="&#x220f;" horiz-adv-x="1515" 
d="M511 1384q-102 0 -102 -235v-1281q0 -235 102 -235h97v-51h-560v51h96q103 0 103 235v1281q0 235 -103 235h-96v50h1419v-50h-97q-102 0 -102 -235v-1281q0 -235 102 -235h97v-50h-560v50h96q103 0 103 235v1281q0 235 -103 235h-492z" />
    <glyph glyph-name="summation" unicode="&#x2211;" horiz-adv-x="1206" 
d="M1059 548l-788 -914h635q130 0 189 182h49l-103 -232h-921v50q61 0 106 53l663 781l-663 859q-44 57 -106 57v50h921l103 -232h-49q-59 182 -189 182h-485z" />
    <glyph glyph-name="minus" unicode="&#x2212;" 
d="M87 647v140h840v-140h-840z" />
    <glyph glyph-name="radical" unicode="&#x221a;" 
d="M181 0l-164 359l74 35l85 -185l728 1470h150v-60h-72z" />
    <glyph glyph-name="infinity" unicode="&#x221e;" 
d="M439 755q-7 47 -24 77t-39 47.5t-47 24t-48 6.5q-40 0 -76.5 -19.5t-64 -50.5t-44 -71t-16.5 -80v-8q1 -32 12.5 -60.5t32 -50t49.5 -34.5t66 -13q65 0 123 46q45 35 76 186zM466 687q5 -44 28.5 -80.5t55 -63.5t67.5 -42t66 -15q49 0 94.5 24t79.5 62t54.5 85t20.5 92
v11q-2 39 -17 73.5t-41 60.5t-63 41t-82 15q-39 0 -78.5 -10.5t-74.5 -39t-63.5 -80t-46.5 -133.5zM450 827q31 119 95.5 187t148.5 68q50 0 96.5 -27.5t82 -76t57 -115.5t21.5 -146q0 -80 -21.5 -147t-57.5 -115.5t-82.5 -75.5t-95.5 -27q-85 0 -149 68t-95 187
q-10 -46 -29.5 -82t-44.5 -61t-54 -38t-57 -13q-41 0 -77 23.5t-63 64.5t-43 96.5t-16 119.5q0 66 16.5 121.5t44 96t63.5 63.5t75 23q28 0 57 -13.5t54 -38.5t44.5 -61t29.5 -81z" />
    <glyph glyph-name="integral" unicode="&#x222b;" horiz-adv-x="665" 
d="M-12 -281q-60 0 -60 29v159h36q1 -22 11 -38t24.5 -26.5t31.5 -16t31 -5.5h1q82 0 115 162q16 81 25.5 159.5t14.5 156.5l70 734l8 62q9 77 28 153t46 145t60.5 128t71.5 102.5t79.5 68t83.5 24.5q60 0 60 -29v-159h-36q-1 22 -11.5 38.5t-25.5 27t-31.5 15.5t-29.5 5
q-36 0 -65.5 -43t-51 -115t-34 -166t-14.5 -195l-73 -767q-19 -230 -131 -420q-110 -189 -234 -189z" />
    <glyph glyph-name="approxequal" unicode="&#x2248;" 
d="M923 1053v-156q-63 -72 -122 -97.5t-116 -25.5q-30 0 -74.5 11.5t-103.5 36.5q-117 49 -176 49q-26 0 -52 -6t-54.5 -21.5t-61 -42.5t-69.5 -70v156q32 36 62.5 60.5t60.5 38.5t58.5 20t55.5 6q63 0 181 -50q117 -49 173 -49q27 0 53.5 6t55.5 22t60.5 43t68.5 69z
M923 705v-156q-63 -72 -122 -97.5t-116 -25.5q-30 0 -74.5 11.5t-103.5 36.5q-117 49 -176 49q-26 0 -52 -6t-54.5 -21.5t-61 -42.5t-69.5 -70v156q32 36 62.5 60.5t60.5 38.5t58.5 20t55.5 6q63 0 181 -50q117 -49 173 -49q27 0 53.5 6t55.5 22t60.5 43t68.5 69z" />
    <glyph glyph-name="lessequal" unicode="&#x2264;" 
d="M927 1074l-625 -359l625 -355v-167l-840 481v83l840 484v-167zM87 1v140h840v-140h-840z" />
    <glyph glyph-name="greaterequal" unicode="&#x2265;" 
d="M87 1241l840 -484v-83l-840 -481v167l625 355l-625 359v167zM87 2v140h840v-140h-840z" />
    <glyph glyph-name="uniF001" unicode="&#xf001;" horiz-adv-x="1073" 
 />
    <glyph glyph-name="uniF001" unicode="&#xfb01;" horiz-adv-x="1073" 
 />
    <glyph glyph-name="uniF002" unicode="&#xf002;" horiz-adv-x="1081" 
 />
    <glyph glyph-name="uniF002" unicode="&#xfb02;" horiz-adv-x="1081" 
 />
    <glyph glyph-name="a" unicode="a" horiz-adv-x="721" 
d="M399 1392q13 0 37.5 -1.5t60.5 -3.5q10 5 14 5q166 -142 166 -161v-5q0 -23 -24 -39q2 -35 3.5 -54.5t1.5 -23.5q-2 -85 -3.5 -138t-1.5 -76h-5q0 -5 5 -5l-5 -25v-68q0 -16 5 -24l-5 -30v-9q0 -24 5 -44l-10 -108q5 -10 5 -14l-10 -44q10 -1 10 -10v-5q0 -10 -15 -10v-5
q15 0 15 -9q-39 -20 -39 -117l5 -44h-5l5 -10v-10q0 -5 -5 -5l5 -10v-29l5 -34h-5q5 -5 5 -44l9 5h5q10 -1 10 -10l-5 -19q5 -12 5 -15q-11 -10 -20 -10v-5q15 0 15 -9q0 -10 -15 -10v-5q15 0 15 -10q0 -9 -5 -9l10 -103v-15h5v-29q15 -18 15 -44v-14q0 -7 -44 -25l4 -10
q0 -6 -14 -14v5l-10 -5h-34v10h-5q0 -20 -10 -20h-19q-5 0 -5 5q-12 -5 -15 -5q-51 9 -92 59v4q0 12 4 20q-9 25 -9 39l5 10q-11 49 -15 102h5l-5 10v5q0 11 5 19q-11 74 -20 74h-39q-63 20 -127 24q0 -15 -9 -15q0 -5 4 -5q-4 -34 -14 -34l5 -9v-5q0 -10 -10 -10q0 5 -5 5
l-5 -29l10 -5q-4 -37 -29 -54q5 -20 14 -34l-14 -10q0 10 -10 10q0 -13 -10 -39v-15h-10l20 -19q-8 -42 -20 -54v-5q15 0 15 -10q0 -23 -24 -39q9 -18 9 -39l-9 -14v-49q-9 0 -20 -10q-5 12 -5 15h-10l-14 -10q-10 11 -10 19q0 16 10 39q-10 0 -10 10h5l-5 10q1 10 10 10h10
q14 0 14 -20h5v5q0 23 -39 44v15h10q0 6 -15 14l5 10v15q0 24 -10 24l5 24v20q0 10 -5 20q10 17 10 39q-5 10 -5 14q15 0 25 166l-25 -5q-5 10 -5 20q-8 0 -44 -10v5l20 19l-15 10v-10h-10v5q4 16 30 30q-20 20 -20 39h15v4q-5 0 -25 10h-4v-5h9v-5l-9 -14v-5q14 0 14 -10
q-5 0 -5 -5l-9 5h-5v-14h-5q-10 0 -10 9q5 0 5 5l-10 5q-12 -5 -14 -5v-5h14v-5q0 -9 -10 -9q-14 24 -43 24l-10 -5q-10 0 -10 10v5q15 0 15 14q9 -2 9 -9q-4 0 -4 -5l9 -5q15 19 25 19v5q-30 0 -30 10q15 0 15 10l-10 15q5 0 5 4q-10 0 -10 10l-9 -5h-5v10q16 0 24 5
l20 -10v10h9v-10h5l15 10l24 -5q1 10 10 10h5l10 -5q0 10 14 10q15 -5 15 -10l10 5q10 -1 10 -10l-5 -10v-9h5q0 14 9 14l-5 10l10 5q0 -5 5 -5q0 15 29 146l-9 -5q0 5 -5 5l24 74v4h-10v10l10 -5q5 32 7.5 52.5t2.5 30.5h-5v10h10q1 73 10 73h4l-4 10q3 19 9 19l-5 10v10
l15 20q0 9 -10 9l5 10q0 5 -5 5l5 10l-5 9l15 49q-10 24 -10 34l10 -4q7 0 15 14v5q-15 0 -15 10q6 24 15 24l-5 10l5 10q-5 0 -5 5l9 4l-4 10l9 15q-9 0 -9 10v5q14 0 14 19q-10 0 -10 10q6 0 20 39l-5 10v4h5q15 0 15 -19h4q0 15 5 15l-5 9v5q15 0 15 10h-5l-19 -15
q-10 0 -10 10q10 0 10 20h9v-10h10q10 0 10 10h-10q0 35 30 58q-5 12 -5 15q9 16 9 29q-52 31 -73 88l15 19l39 -9q42 7 71 10.5t46 3.5zM204 1275h10v-10h-10v10zM306 1270v-5l5 -4v9h-5zM360 1246q0 -3 -5 -15h10q0 3 5 15h-10zM199 1246h10v-15h-10v15zM419 1231v-24h-5
q-5 0 -5 5l-10 -5h-5v10h-10l5 -30q-18 -34 -29 -34l-5 -10v-14l5 -29q-8 -31 -20 -44v-5q10 0 10 14h15q10 -1 10 -9v-10l-15 -20v-19q0 -10 -2.5 -26t-7.5 -38q10 -1 10 -9l-10 -20l10 -5q0 5 5 5l5 -10q-5 0 -5 -5l10 -4q0 -139 -44 -210l5 -25q-46 -212 -54 -229l10 -5
q0 -29 -15 -29v-15q0 -7 15 -14l78 4l-10 -14q1 -10 10 -10q0 7 14 15v-5q0 -5 -5 -5l5 -10l-5 -10q6 0 15 -4v4q-5 10 -5 20q5 0 5 5h-5q5 12 5 14q0 25 -15 25v5q20 0 20 44q5 58 7.5 97t2.5 59q-10 0 -10 10v14q0 79 29 171q0 5 -5 5l10 73l-14 29v20q0 5 4 5
q-9 22 -9 44h-5q-10 -1 -10 -10q10 -1 10 -10h-15v-5q0 -11 5 -19q-10 -24 -10 -39h-10q0 7 -1 15.5t-3 18.5h9v5q0 10 -19 10q0 9 24 9v30q20 0 20 4l10 -4h9v4h-14q0 10 14 10q0 10 -5 10l5 49v29l20 34v5q-9 0 -25 15v-20q15 0 15 -10q-17 -14 -24 -14l5 -10v-29
q0 -10 -10 -10q-11 20 -15 20l5 24l-5 34q10 0 10 10v44q5 29 15 29q0 -5 4 -5l5 29zM297 1212v-10h4v10h-4zM453 1212l-5 -10v-5h14v5q0 10 -9 10zM170 1212v-5l-15 -54h-5l-10 5q4 34 15 34l-5 10v5q2 0 20 5zM326 1197v-14h5v14h-5zM345 1197v-14h5v14h-5zM292 1183
q1 -10 9 -10v19q-9 -2 -9 -9zM443 1187l-5 -24l10 -5h5l-5 10q5 8 5 19h-10zM87 1178h9v-5h-9v5zM189 1178l10 -5v-10h-10v15zM321 1153v-14h5l5 24q-10 -1 -10 -10zM184 1158h10v-5q0 -10 -10 -10v15zM82 1148h10v-5h-10v5zM150 1148l5 -5l-10 -9l-5 9zM448 1143
q0 -2 -5 -14h10v14h-5zM375 1143h9l10 -4q-11 -30 -19 -30h-5zM297 1134q0 -8 -1.5 -16l-3.5 -18h5l-5 -10v-5q14 0 29 -20h5v59l-10 10q-12 -5 -15 -5q0 5 -4 5zM179 1129h10v-10q0 -5 -5 -5l5 -10l-10 -14q5 0 5 -5l-9 -5v10q0 2 1 12t3 27zM248 1119v-5h9v5h-9zM262 1119
v-5q0 -11 -1.5 -24l-3.5 -29q5 -12 5 -15q-5 -12 -5 -15l5 -29q30 7 30 34l-15 -10l-5 10v83h-10zM145 1114q0 -5 5 -5q-5 -10 -5 -14l5 -10l-24 -117l-10 -5h-5q0 16 15 34q-10 0 -10 10v10q0 36 15 39l-5 9q7 49 19 49zM545 1104v-9h5v9h-5zM248 1100v-20h5v20h-5z
M233 1095v-5h10v5h-10zM516 1090v5l10 -15v10h-10zM541 1090v-15h9v15h-9zM516 1070l-5 -9v-5q15 0 25 -5q-4 -34 -15 -34q0 4 -5 4l-5 -9v-5h10l10 5q6 -30 14 -30h5v88l-24 -5zM404 1065l10 -4v4h-10zM316 1056q0 -17 -5 -39h5q10 0 10 9l-5 30h-5zM389 1046q4 -15 10 -15
h15q0 -16 5 -24l-10 -5q0 5 -5 5v-15h-5q-11 0 -20 49zM238 1036v-24h5v24h-5zM233 1007v-10h5v10h-5zM301 997v-10q10 0 10 10v10q-10 -1 -10 -10zM223 992v-10h5v10h-5zM511 992l5 -10v10h-5zM155 992h15v-5q-5 -10 -5 -14q5 0 5 -5q-10 0 -10 -15h-10v5q0 5 5 5l-5 10
q5 8 5 19zM287 968v-20h10q0 4 9 30h-9q-10 -1 -10 -10zM541 973v-10h9v10h-9zM116 958q10 -1 10 -10h-5l5 -9v-5h-5q-8 0 -15 19zM536 943h14v10h-5q-9 -2 -9 -10zM541 924q1 -10 9 -10v20q-9 -2 -9 -10zM155 929v-10q0 -5 -5 -5q0 -5 5 -5q-5 -44 -15 -44l5 -9q0 -5 -5 -5
l5 -10l-5 -10h10v-10q-6 0 -15 -4q0 4 -4 4q6 44 9 59l-5 10q13 39 20 39zM101 919h15v-10h-15v10zM96 899h15v-4q0 -5 -5 -5l5 -10v-10h-15v10q0 5 5 5l-5 10v4zM379 865h5v-9h-5v9zM175 851l4 5v-15h-4v10zM96 841h10v-5h-10v5zM101 826h5q-1 -49 -14 -49q0 5 -5 5
q9 19 9 35q-4 0 -4 4zM375 826h9v-5h-9v5zM121 797h14q0 -7 10 -20v-4q-14 -11 -14 -64h4v-10l-9 5v-19h-10v24q0 5 5 5q-5 12 -5 15q10 43 10 53q-5 12 -5 15zM82 753q10 -1 10 -10l-10 -14q14 0 14 -10l-9 -5h-5q-10 0 -10 10l5 10q-5 10 -5 14zM384 753l5 -10l-10 -5
l-4 10zM384 734v-10h-9q1 10 9 10zM384 714l5 -10l-10 -5l-4 10zM135 685v-15h-14l10 -15v-9l-10 5h-5v-15h-10v5q0 5 5 5q0 5 -5 5q0 34 29 34zM82 660l5 -9l-10 -5l-5 9zM389 660v-5q0 -9 -10 -9v5q1 9 10 9zM145 612h5v-20h-5q-10 0 -10 10q1 10 10 10zM72 597h5v-29
q0 -10 -10 -10q5 -12 5 -15v-5h-5q0 9 -10 20q0 36 15 39zM384 597q0 -5 5 -5l-5 -10q5 -10 5 -14h-14v5q4 8 4 14q-4 0 -4 5zM101 582h5l10 -5q-5 -10 -5 -14q5 -12 5 -15h-10l-10 5zM111 543v-5q-5 -10 -5 -14h-10v5q0 6 15 14zM140 529l-5 -25h10v25h-5zM57 514h10v-10
h-10v10zM96 494h5q0 -11 5 -19q-5 -10 -5 -20h-9v5zM67 490v-59h-10l-4 44q0 7 14 15zM379 446q10 -1 10 -10h-10v10zM633 441q10 -1 10 -10v-5q0 -10 -10 -10t-10 10v5q1 10 10 10zM628 411h5q10 -1 10 -9v-5q0 -10 -10 -10q-7 0 -14 15q1 9 9 9zM628 382h5q10 -1 10 -10
t-10 -9h-5q-9 0 -9 9q1 10 9 10zM297 353v5q-16 -10 -25 -10v-10q41 7 59 20l24 -34q10 5 20 5v9q-3 0 -15 5q-12 -5 -15 -5v15l5 10h-10q-9 0 -43 -10zM-104 353h5v-10h-5v10zM-21 329h10v9q-10 -1 -10 -9zM9 338l-5 -9q6 0 14 -15q-5 0 -5 -5h5q10 0 10 10q0 7 -19 19z
M321 338v-19l10 5l9 -5v5q0 6 -14 14h-5zM-50 333v-4h15v4h-15zM67 333v-9h5v9h-5zM297 329v4q2 -7 5.5 -9.5t8.5 -4.5v10h-14zM-40 324v-20h5q0 3 5 15zM-16 314v-15h5v15h-5zM62 314q1 -10 10 -10v10h-10zM375 314l14 -5v5h-14zM311 289h15l5 20q-15 -4 -20 -20zM336 309
v-10h9q0 10 -9 10zM355 309v-5q1 -10 10 -10h5v10q-3 0 -15 5zM375 299q1 -10 9 -10h5q0 10 -10 10h-4zM340 294l-4 -9h14q0 9 -10 9zM628 299h5q10 -1 10 -10l-5 -19q5 -12 5 -15l-15 -9q-9 0 -9 9q0 12 4 20q-4 7 -4 19zM287 289v-4h10v4h-10zM62 285q1 -10 10 -10l5 10
h-15zM28 275v-5h15v5h-15zM-94 255h20v-9h-20v9zM48 226l-5 -10q1 -9 10 -9h14v9q-8 0 -19 10zM77 221v-5q0 -7 15 -14v9q0 10 -10 10h-5zM-11 216h5v-9h-5v9zM28 182h15v-5q0 -11 -49 -24h-5v10q17 0 39 19zM-26 177h5q0 -10 -9 -10h-5q1 10 9 10zM619 167v-9h4v9h-4z
M48 163l5 4v-9q0 -10 -10 -10h-5v5q1 10 10 10zM-21 158l5 -10l-24 -15h-5v10q1 10 10 10q0 -5 5 -5q1 10 9 10zM384 158l5 -30h-14v5q0 5 4 5l-4 10q1 10 9 10zM18 148h5q0 -7 -14 -15v5q1 10 9 10zM-55 133h10q-17 -29 -24 -29h-5v10q0 7 19 19zM-6 133v-5l-24 -19l9 -15
v-14l-19 24q0 -15 -10 -15h-5v10q25 34 49 34zM-94 99h10q0 -10 -10 -10v10zM-74 80h14q0 -10 -9 -10h-5v10zM-45 70q10 -1 10 -10v-5q-10 0 -10 10v5zM-6 70h5q0 -10 -10 -10h-5q1 10 10 10zM-1 65h10v-10q-10 0 -10 10zM-30 41h4q12 -5 15 -5v-10q-8 5 -19 5v10zM18 41h5
v-5q0 -10 -10 -10h-4v5q1 10 9 10zM638 -47v-10h5v10h-5zM131 -96q0 -3 -5 -15h9v15h-4zM57 -116h10v-14h-10v14zM101 -145v-10q12 5 15 5v5h-15zM53 -145h9v-24l5 -10q-10 -1 -10 -10q20 -2 20 -14v-5q-8 0 -15 -10l5 -10v-73h-14l-10 34q6 0 14 20q-9 0 -9 9q0 35 19 35
q0 9 -10 9h-24v5q18 17 20 44zM116 -159v-10h5v10h-5zM96 -174v-5h10v5h-10zM23 -213h5q10 -1 10 -10v-5h-5q-10 0 -10 10v5zM82 -228v-5h10v5h-10zM87 -257v-10q1 -10 9 -10l5 10zM111 -257v-5h10v5h-10z" />
    <glyph glyph-name="b" unicode="b" horiz-adv-x="794" 
d="M230 1409q1 -9 10 -9q1 9 10 9h4v-19h20q10 0 20 5q29 -5 29 -20l34 20q34 0 34 -20h5q0 15 15 15q5 -10 5 -20h4q0 15 10 15h5q10 -1 10 -10h-5l-10 5v-5q0 -5 20 -14q16 9 24 9l-5 -9l34 -20q1 10 10 10h5q19 -15 29 -15v-10l-9 -14q19 0 29 -25q44 -9 44 -34h5
q0 15 9 15q20 -22 25 -59h5v15h9q0 -16 30 -59l-5 -43l5 -25h-20v-19l10 4h5q9 0 19 -34h-5l-9 5q0 -11 -5 -19h5l9 5v-5l-4 -10h9v-10q-7 0 -19 -14q0 24 -10 34l5 24l-10 5q-20 -20 -29 -20v-4l5 -10l10 5q9 -2 9 -10q-5 -12 -5 -15q5 0 5 -5h-5l-9 5q-6 -44 -25 -44
q0 -5 5 -5q0 -28 -63 -175v-10h9q0 22 20 34v-5q-5 -8 -5 -19l10 5q7 0 19 -20h-19q0 -14 -5 -14q5 -10 5 -20h5v24h9q0 -18 15 -34q10 0 10 10q-10 0 -10 10v5h5q22 -25 44 -25q0 5 5 5l5 -10q-10 -1 -10 -9h10v9q9 -2 9 -9q-4 0 -4 -5q18 -25 29 -25l24 -58q-5 -10 -5 -20
v-5q20 0 20 -9l-10 -5v5q-12 -5 -15 -5q7 -6 15 -59q-10 -21 -10 -58l15 9q0 -5 5 -5l-5 -9q5 -10 5 -20q-10 -1 -10 -10v-4q0 -14 10 -30q-10 -16 -10 -24h-5v15l5 9h-5q-15 0 -19 -49q14 0 14 -9h-5l-9 5l-5 -25h-10v10h-5v-20h5q12 5 15 5v-9q-20 0 -20 -54h-10l10 49h-5
q-5 -16 -16 -74t-28 -161h-4q9 -15 9 -29v-5q-12 0 -19 -19h5l14 10q0 -9 10 -20v-5q-17 0 -29 -44h-10v20h-10q0 -15 -10 -15q0 5 -4 5q0 -3 -5 -15q14 0 14 -9q0 -2 -9 -7l-20 -11t-20 -11.5t-9 -9.5v-5h-10v9q-33 -12 -34 -24l5 -24q-11 0 -54 -25h-15q0 10 15 10v5h-5
q-16 0 -34 -44q15 0 15 -24h-15q-8 0 -15 24l-9 -5q-14 0 -15 24h-5q-22 -14 -39 -14q0 10 -10 10h-5v-5l10 -15q0 -10 -10 -10l-34 5v-29h-9q-13 10 -20 10v9q0 10 15 10v5h-20q0 -17 -19 -24h-10l-34 19q0 -10 -10 -10h-10q-5 0 -34 35q0 -5 -5 -5v24l5 10l-10 5
q0 -15 -10 -15h-24q-10 0 -10 10q39 10 54 10v4l-5 10l-10 -5h-9v10h14v5q-33 0 -83 107q0 30 59 30l-5 9l10 15l39 -10l5 34v15l-5 29l10 30q-5 8 -5 19q0 5 5 5q0 5 -5 5l5 34v29h14q-10 16 -10 30q0 8 10 24h-10v10q0 10 15 10l-5 48h5l-5 10l10 15v19h-10l-5 -19h-9
q0 36 19 112h-10q-18 -15 -29 -15v5q0 8 29 25l10 14l-15 10l5 10v19l7.5 53.5t2.5 20.5v14h-5l-5 -44h-9l4 49q15 0 15 5v15h5v4q-15 22 -15 35l10 -5q5 10 5 14q-20 55 -20 88q5 0 5 5h-5q-8 -5 -19 -5v20q0 11 5 19q-5 12 -5 15h5q-10 16 -10 24q10 0 10 15l-5 10
q5 10 5 14l-30 34v10h15v-10h5v64l-10 15v4h5q5 0 5 -4q16 3 20 19h-10q-12 -5 -15 -5v5q13 34 20 34q-6 30 -15 30l-5 -10q5 -10 5 -20h-5q-10 0 -10 10v34l-5 34l10 5l5 -44l15 10l-5 10l5 34q-5 8 -5 19q5 12 5 15l-5 10q5 12 5 15q-51 39 -54 39q0 -5 -5 -5q0 8 -10 19
l10 5q-5 15 -10 15h-14q0 6 -20 29q0 5 5 5l-5 10v5l25 4v-4l9 4l10 -4q0 4 5 4q0 -4 5 -4v4q-5 12 -5 15h15l-5 -10q10 0 10 -5l9 5l10 -5v5l-5 10q5 0 5 5q36 -10 44 -10v10l-10 15q3 0 15 1t34 3zM93 1395h10q0 -10 -10 -10v10zM435 1361v-10h5v10h-5zM89 1356
q1 -10 9 -10h5v10h-14zM123 1351v-5h19v5h-19zM347 1341v-5q10 0 10 10v5q-10 -1 -10 -10zM552 1346h10v-5h-10v5zM518 1307v-5h15v5h-15zM542 1283v-5h10v5h-10zM103 1263l10 20v-25h-10v5zM128 1248h4q9 0 20 -29q-10 0 -10 -29h-10v10zM323 1219q0 10 -10 10h-5v-5
q10 -24 15 -24l-5 -10v-44l19 10v-15l-9 -15q7 0 24 -107q12 0 24 -39q0 -13 -24 -44q-5 -8 -5 -24v-117q0 -60 -19 -88q5 -10 5 -20h4q0 12 20 20q0 14 15 14l-5 10v5q117 151 117 200q-5 12 -5 15q0 29 15 58q-5 12 -5 15h5q0 5 -5 5l5 24v29l-20 40q10 44 10 58l-49 44
h-10l-19 -5l-10 15q-16 -10 -29 -10h-5v20q-20 -5 -39 -25zM328 1180h9v-15h-9v15zM376 1165h5v-9h-5v9zM123 1131h9v-5h-9v5zM655 1102v24l9 -29v5h-9zM655 1087v-9h5v9h-5zM645 1063q1 -10 10 -10v10h-10zM376 1053q10 -1 10 -10t-10 -9q-9 0 -9 9q1 10 9 10zM123 1048
q9 -2 9 -9q0 -10 -9 -10q-10 0 -10 10q1 9 10 9zM674 995q5 -12 5 -15l-5 -10l5 -10l-5 -9q5 -10 5 -20v-5h-10q-9 0 -9 10v10q0 21 9 39q-5 0 -5 5zM689 980h5q7 0 19 -20l-10 -4h-9l5 9q-10 0 -10 10v5zM176 960v-9h5v9h-5zM372 956l9 4v-14q-9 0 -9 10zM172 941v-5h9v5
h-9zM118 941h14v-10h-14v10zM713 941l5 -10h-5v10zM137 931h10v-14h-10v14zM372 931l14 -14q0 5 -2.5 4.5t-7.5 -0.5zM713 921l5 -9v-15h-10q-6 0 -14 20q12 0 19 4zM381 912v-10h-9q1 10 9 10zM669 912q10 -1 10 -10v-10q0 -10 -10 -10h-5v5zM703 897v-10q0 -6 -14 -14
l-5 9zM669 873l5 -10q0 -10 -10 -10l-4 10q1 10 9 10zM372 868h4q10 -1 10 -10v-10h-5q-9 0 -9 10v10zM172 848q1 -10 9 -10h5q0 10 -10 10h-4zM381 838l5 -9h-14q1 9 9 9zM440 814v-5h10v5h-10zM391 804v-14h-10v5q1 9 10 9zM172 799l4 -9l-9 -5h-5v5q1 9 10 9zM416 780
v-10h14v15q-12 -5 -14 -5zM162 770q10 -1 10 -10v-4q0 -10 -10 -10h-10v14q1 10 10 10zM406 765v-5h10v5h-10zM381 731v-10h15l10 30q-15 -20 -25 -20zM162 736h5v-10q0 -7 -15 -14v14q1 10 10 10zM123 721h9v-9h-9v9zM679 702v10l5 -20v10h-5zM357 697v5l10 -10v5h-10z
M391 687v-10h5v10h-5zM333 677v-9h4v9h-4zM152 643h10v-5q-7 -19 -15 -19h-10v5q15 12 15 19zM440 507l5 -25q-7 0 -20 -39q-53 -44 -53 -49q9 -2 9 -9q0 -10 -9 -10l-20 15h-10q0 -20 -9 -20q-5 0 -25 29h-10q-9 -2 -9 -9l5 -30h-5q0 -5 5 -5l-5 -34v-29h14q0 15 10 15
q0 -10 5 -10q12 5 15 5q9 -26 24 -30q-12 -48 -15 -48q5 -14 15 -64h-5l5 -10v-14q10 -1 10 -10q-4 -34 -10 -34q0 -49 44 -49l49 -5q68 14 68 59q53 71 93 385h-10v15q15 18 15 34v5h-10v5q0 22 10 39q-26 24 -39 24v20h9v5h-5q-78 -20 -78 -54q-12 0 -63 -68zM123 604h9
v-14h-9v14zM152 604h5v-10q0 -25 -15 -29l-5 10q1 10 10 10l-5 9q1 10 10 10zM503 575h10v-5h-10v5zM616 555v-9h4v9h-4zM142 555h10v-9h-10v9zM494 555l9 -9q0 2 -2 1t-7 -1v9zM132 551l5 -10v-5h-5q-9 0 -9 10zM469 526h5v-5q0 -7 -19 -19h-5q13 24 19 24zM123 502h14v-5
q0 -10 -9 -10h-5v15zM123 482h9v-14h-9v14zM742 453v15q0 -20 3.5 -25t6.5 -5v15h-10zM128 438l4 15q0 -14 1.5 -19t3.5 -10l-9 -5q0 5 -5 5q5 10 5 14zM767 433h10v-14h-10v14zM318 370h10v-15h-10v15zM172 365h9v-5h-9v5zM372 321v-14q-10 0 -10 9zM328 316h9v-9
q-9 0 -9 9zM118 311h14v-9q0 -10 -9 -10l-5 10v9zM367 302q9 -2 9 -10q0 -10 -9 -10q-12 5 -15 5q0 7 15 15zM318 282v-5h10v5h-10zM362 272q10 -1 10 -9l-10 -5v14zM367 204l5 -10q0 -9 -10 -9l-5 9q1 10 10 10zM113 180h15v-5q0 -10 -10 -10h-5v15zM630 -1v-5h10v5h-10z
M625 -11v-9h5v9h-5zM547 -108l5 -10q0 -10 -10 -10q0 6 -4 15zM498 -123q5 -12 5 -15h10v15h-15zM557 -133h5v-9h-5v9zM484 -142v-5h10v5h-10zM562 -147h5v-10h-5v10zM489 -167h24v-5q0 -9 -10 -9h-14v14zM191 -186v5l15 -15v10h-15zM308 -186q1 -10 10 -10v10h-10z
M225 -191l-5 -10q34 0 39 -5v10h-24zM528 -186l5 -10l-20 -20l-5 10v5q8 0 20 15zM464 -211v-9h-9q1 9 9 9zM328 -225q9 -2 9 -10v-5h-9q-10 0 -10 10z" />
    <glyph glyph-name="c" unicode="c" horiz-adv-x="671" 
d="M440 1273q76 0 180 -117l35 -64q-15 -97 -35 -97v-25q0 -5 -29 -19q-23 74 -78 146l-24 -5l-34 5l-10 -5l-44 20q-12 -5 -15 -5q-14 14 -14 29h-10l-10 -5l5 -9q-29 -20 -29 -59q10 -5 14 -5v-5h-9v-14h4l15 9l5 -9l-24 -20q4 -9 4 -15l20 20h5v-10l-10 -14l5 -25
q-10 -29 -10 -34l10 -5l24 5l5 -10q-6 -24 -14 -24q0 10 -10 10h-5q5 -10 5 -20l10 5l4 -10q-11 -10 -24 -10v-4h20v-5q-10 0 -10 -5q5 -12 5 -15q-9 0 -20 -29h15v-10l-25 -5v-5h5q10 5 20 5l5 -10q-6 -19 -30 -19l10 -15v-19q0 -5 -5 -5l5 -10q-5 -12 -5 -15q10 -1 10 -9
q-12 -5 -15 -5v-5q15 0 15 -10q-5 -24 -19 -24v-5q14 0 14 -10q-10 0 -19 -73q-5 0 -5 -5q10 -1 10 -10v-9q0 -59 -10 -59l5 -10v-5q0 -14 -5 -14l5 -25v-48q0 -10 5 -20q-10 -23 -10 -34q-10 0 -10 14h-10v-9q30 -20 30 -25q-3 0 -15 -5l5 -9q-8 -11 -15 -39q0 -35 20 -35
v-4q-15 0 -15 -20q0 -11 10 -34l-5 -29q10 -1 10 -10l-5 -10q10 -1 10 -10q0 -14 -20 -14v-15h5q0 15 10 15h9v-5l-19 -20q16 -117 29 -117h34q31 0 108 -24v5q23 53 34 53h5q0 -24 14 -44q-4 -8 -4 -14q9 -2 9 -10q-9 -2 -9 -10v-5q9 -14 14 -34q-8 -5 -19 -5v-5q6 0 14 -4
q-5 -35 -14 -35q0 10 -10 10q-5 -8 -5 -19h-5l-10 5q0 -10 -9 -10q0 5 -5 5q-56 -54 -98 -54q0 10 -15 10l-9 -5q-30 4 -30 10l-9 -5h-20q-16 19 -34 19h-5q0 -9 15 -9v-10q-108 13 -108 44l-34 39l5 9q-33 0 -63 274v5h-10v9l10 -4v9q-14 0 -15 25q10 0 10 9q-20 0 -20 35
h5l-5 9v10h10v-10h5v10h-5q9 32 15 127q-5 12 -5 15q10 0 10 9q-10 0 -10 10l19 39q0 5 -5 5q4 34 10 34l-5 10l5 10h-5q-10 -5 -14 -5l-5 10q5 10 5 14l14 -9h5q0 9 5 19q-15 0 -15 10q12 5 15 5v5l-10 14v20q25 19 25 49l-10 -5q-7 0 -15 14v5h30v39l-10 -5l-5 10l10 5
q0 -5 5 -5l4 29l-9 -5q-10 0 -10 10l10 5l9 -5v5q0 5 -4 5q8 18 14 54h-10v-25q0 -9 -9 -9h-10v14h10l-5 10v10h10l-5 24l19 -15v15h-14v5l19 19h-15v15q25 0 25 64q67 327 102 327q0 19 25 19q17 0 73 -15h5q7 1 26.5 6t51.5 19zM172 1161h14v-10h-14v10zM176 1141
q10 -1 10 -10t-10 -9q-9 0 -9 9q1 10 9 10zM162 1087h5q9 -2 9 -9v-5h-14v14zM352 1087q10 -1 10 -9l-10 -5v14zM74 995h10v-5h-10v5zM152 960h5v-14h-5q-10 0 -10 10zM69 912h10v-25h-10v25zM406 892q0 -5 5 -5l-5 -9l5 -10q-5 -10 -5 -25h-15v5l5 10l-5 10q6 24 15 24z
M337 838v-9h5v9h-5zM69 824l5 14v-34h-5v20zM347 795v-10h5v10h-5zM89 785l9 10l5 -44q-6 -25 -14 -25l4 34q-4 8 -4 25zM118 751q10 -1 10 -10h-10v10zM113 712h10v-5h-10v5zM79 673l24 -5q12 5 15 5l5 -10l-25 -5v5l-9 -5q-10 0 -10 10v5zM79 653h10v-5q0 -5 -5 -5l5 -9
v-20h-10v39zM45 648h9v-19h-9v19zM367 614l5 15v-25h-5v10zM113 585v-15h5v15h-5zM69 585h10v-5h-10v5zM303 365v-5h10v5h-10zM50 297h9v-10h-9v10zM328 272l5 15v-24h-5v9zM54 268l10 -5v-10q-10 0 -10 10v5zM74 72q10 -1 10 -9l-10 -5q-10 0 -10 9zM328 72h9v-9h-9v9z
M79 -59h10v-10h-10v10zM523 -147v-10h5v10h-5zM152 -181v-10h-10q1 10 10 10z" />
    <glyph glyph-name="d" unicode="d" horiz-adv-x="737" 
d="M150 1346q14 -5 14 -10l10 5h10q19 -34 214 -34h44q181 -49 181 -103q88 -82 88 -331v-117q-33 -408 -69 -537q-32 -128 -87 -230h4l-29 -53q-29 -20 -29 -49l-24 -10v-5l4 -10l-29 -9q0 5 -5 5q0 -8 -10 -15l-9 5q-32 -39 -83 -39l5 -10v-5h-5q-12 5 -15 5
q-15 -22 -88 -34v-5q-41 10 -63 10q0 -5 -5 -5q-15 34 -24 34q0 -10 -10 -10q-5 10 -5 20h-29l-20 -15h-10q0 15 -5 25q0 37 69 117q19 400 39 585l-5 10l5 24q-2 33 -3.5 61.5t-1.5 51.5v14q0 10 -5 20q5 8 5 19v15l-5 29l5 10l-15 54q4 19 10 19l-5 10l5 10l-5 24
q5 12 5 15q-10 19 -10 29q4 54 10 54q-5 14 -10 14l5 25v44q-39 0 -39 63q5 10 5 20q-34 0 -59 39q16 9 30 9v5h-25l-9 -5l-5 10q34 12 34 20l-5 10l-10 -5h-14q-10 0 -10 9q39 15 49 15h24v10l-49 -5v15h30l9 -5l10 14q-6 0 -24 25q0 23 44 29zM62 1278h5v-10h-5v10z
M267 1170q14 -36 14 -44q-5 0 -5 -4l10 -5l10 5l-5 24v19h10q0 -15 5 -43q-5 -15 -10 -15q-12 5 -15 5v-15q0 -11 5 -19l-5 -10q16 -45 20 -98h5v5q-5 10 -5 20h5l-5 9v10h10l4 -44l-4 -19q9 -2 9 -10v-10h-14v-14h14v-5q0 -10 -9 -10h-5v10h-5v-15q10 -1 19 -24q-5 0 -5 -5
l-9 5h-5v-25l10 5h9q0 -27 5 -34q-3 -73 -19 -73l-5 10q10 0 10 9l-10 5l5 10l-5 10q4 19 10 19l-5 10v5l5 10l-10 4q-15 -72 -15 -102v-15q15 0 15 -19q-10 0 -10 14q-10 0 -10 -14q0 -8 1.5 -19l3.5 -25l-5 -44q11 -98 25 -98v-14h-10v-10q0 -8 15 -15h4v10h10v-15
q0 -9 -29 -14v-5q15 0 15 -10q-10 -19 -15 -19q0 -5 5 -5l-5 -25v-24q-13 0 -29 -34q5 0 5 -5q-10 -1 -10 -10l10 -5h4l10 30h10q-10 -46 -10 -54h15v-5q-20 -32 -20 -49v-5l10 5h5v-5l-5 -9q5 0 5 -5q-20 -3 -20 -15v-10l5 -24h-5q0 -5 5 -5q-9 -35 -9 -59l4 -9
q-9 -2 -9 -10q0 -5 5 -5q-5 -35 -7.5 -59.5t-2.5 -38.5h5q17 4 88 103q0 17 53 141q17 72 25.5 111t8.5 46h5q10 0 10 -15h15l14 59l-24 4v-9h10v-10l-20 -5v5q0 23 20 49h5l9 -5v5q0 13 -19 14v20l5 10l9 -5h10v14q-19 0 -19 15q7 118 39 244l-5 24q2 28 3.5 52t1.5 46v5
q0 15 -5 15l5 24v68q0 11 1.5 24l3.5 30q-36 112 -147 112q-27 0 -68 10h-15v5h-5q-5 0 -14 -20zM91 1185v-5h20v5h-20zM150 1146v-15h4v15h-4zM315 1112h10v-20h-10v20zM315 1073h10v-5h-10v5zM140 1063l10 5v-15h-10v10zM301 1063l10 -10v-5h-10v15zM325 1043h5v-9h-5v9z
M135 1039l10 -5l5 -15h-5q-10 0 -10 10v10zM311 1029h9v-10h-9v10zM135 970h10l5 -24h-5q-10 0 -10 10v14zM301 965v-9h5v9h-5zM301 951v-10h5v10h-5zM140 897q10 -1 10 -10l-10 -5v15zM335 882h10v-9h-10v9zM140 868l10 5v-30h-15zM340 795h10v-5h-10v5zM325 741v-5
q0 -3 -5 -15q5 -8 5 -19l-10 -5h-9v5q1 10 9 10q-4 5 -4 24q10 5 14 5zM340 682h10v-9q0 -10 -10 -10v19zM315 673l5 -10l-9 -5h-5v5q1 10 9 10zM301 658q12 -5 14 -5l-4 -34q9 -2 9 -10q-9 -15 -9 -39h-10l5 10q0 5 -5 5l5 24q0 8 -10 44q5 0 5 5zM325 565q12 -5 15 -5v-9
q-15 0 -15 -15h-10v15zM516 560v-9q9 0 9 9h-9zM481 546l10 -5h5v14h-5q-10 -1 -10 -9zM272 546q0 -3 -5 -15q5 -12 5 -15q-5 -10 -5 -14h9l5 34v10h-9zM325 526h15v-10h-5q-10 0 -10 10zM574 521v-9h10v9h-10zM574 502q0 -10 -5 -20l5 -10q-5 -10 -5 -14l10 -5h5q0 16 5 24
q-5 10 -5 25h-10zM267 492q0 -13 -10 -24v-5h5q8 0 14 29h-9zM545 482v-5h14v5h-14zM603 477v-9h5v9h-5zM511 472v-14l-10 5v-5q5 -7 5 -25h-5v-4q1 -10 10 -10q3 15 19 19l-5 10q5 10 5 20l-10 4h-9zM559 458v-10h5v10h-5zM257 453q-15 -32 -15 -39q-5 0 -5 -29
q10 -1 10 -10q-10 -1 -10 -10l5 -10q-9 -2 -9 -9l9 -5h10q0 23 10 44l-5 9q5 10 5 20q-5 0 -5 5q10 0 10 10v24h-10zM477 448v-10h9v10h-9zM276 433v-9h10v9h-10zM569 433q1 -9 10 -9v9h-10zM555 429l-5 -25l9 -5q0 15 5 15q-5 12 -5 15h-4zM516 414h9v10q-9 -2 -9 -10z
M530 409v-10h5v10h-5zM486 394v-4q10 0 10 9v5q-10 -1 -10 -10zM501 390h15v14q-7 0 -15 -14zM447 404h15v-10h-15v10zM589 399v-5l10 -4q0 9 -10 9zM525 390v-10h10v10h-10zM564 385v-5h10v5h-10zM584 370h10v10q-10 -1 -10 -10zM311 380h9v-10h-9v10zM486 375
q1 -10 10 -10v10h-10zM520 370q0 -17 -4 -34l9 -5q0 5 5 5l5 -10v-24h15q0 11 5 19q-5 12 -5 15v10h5v-15h4l5 19l-34 20h-10zM555 370q1 -10 9 -10h5v10h-14zM477 350v-4q1 -10 9 -10h5v19q-12 -5 -14 -5zM447 350v-9h20q0 9 -10 9h-10zM530 350h5v-9h-5v9zM223 331
q0 -8 -1.5 -16l-3.5 -18l10 -5h5v5q-5 12 -5 14q10 5 14 5v10q-11 0 -19 5zM486 326v-10h5v10h-5zM511 326v-29h5q0 7 9 24l-9 5h-5zM315 326h10q0 -10 -10 -10v10zM437 297v-10h10v10h-10zM296 277h5q10 -1 10 -9v-5h-5q-10 0 -10 9v5zM296 248h19v-20h-9q0 10 -10 10v10z
M291 204h10v-10h-10v10zM296 185h15v-5q0 -10 -10 -10h-5v15zM286 126h15v-10h-15v10zM286 92h10l-15 -83h-9v24q8 10 14 59z" />
    <glyph glyph-name="e" unicode="e" horiz-adv-x="689" 
d="M570 1361q49 0 98 -64q12 0 20 -39q-1 -15 -49 -63l-20 14q-30 0 -136 -34q-10 0 -10 10q10 0 10 10v5q-30 0 -30 -39h10v-10q-8 0 -19 -10v5l4 10q-4 7 -4 19h-15q0 -16 -24 -44q-30 -45 -30 -63h-9v5q4 8 4 14l-9 5l-5 -19q5 0 5 -5q-9 0 -15 -44h-15q10 -11 10 -20
q0 -4 -5 -4l5 -20q0 -6 -2.5 -21t-7.5 -38q5 -20 5 -39q-10 -1 -10 -9l5 -10l-5 -34h5q10 0 10 14h5l10 -5v5q-5 23 -5 35q5 0 5 4q0 22 -10 59l15 10q9 -2 9 -10q-9 -2 -9 -10q9 -2 9 -10q5 -97 7.5 -150.5t2.5 -63.5h5q5 0 112 9q14 0 83 -29v-14q-7 0 -19 -20
q0 10 -10 10h-15q-68 -5 -68 -20q23 -9 24 -19q-9 -33 -131 -98q-29 -52 -49 -141h-15v-5h10v-10q0 -21 -34 -73h5q10 5 14 5l-29 -152q5 -10 5 -14h-5l10 -25l-5 -24l24 -107q0 -29 88 -54q0 -3 29 -20h10q31 28 73 161l-4 10q23 83 68 83h29q10 0 10 -14q-5 -17 -5 -40h15
q-15 -82 -20 -82l5 -10q-9 -33 -117 -161q-7 0 -59 -64l-78 -29l-24 10q-5 0 -5 -5q-211 27 -229 112q-20 22 -44 112q0 5 5 5l-5 30q0 4 5 4l-5 10l5 20q0 5 -5 5l5 24v102q0 99 92 269q0 16 122 136q-6 21 -92 59q-20 30 -35 59q33 405 64 405q11 41 36.5 71.5t65.5 55.5
q91 57 160 87t118 30zM522 1209v-5l18 3.5t16 1.5v5q-10 0 -10 5q-16 -10 -24 -10zM492 1200v-5h10q10 0 10 9l-10 5q-10 -1 -10 -9zM419 1136h5v-10h-5v10zM366 1112v-10q9 0 9 10h-9zM326 1068v-10h5v10h-5zM370 1058h5v-5q0 -10 -9 -10h-5v5q1 10 9 10zM322 1014v-19h9v9
q0 10 -9 10zM263 985v-10h5v10h-5zM351 985h5q10 -1 10 -10l-10 -5h-5v15zM283 946h9v10q-9 -2 -9 -10zM253 936v-10h5v10h-5zM283 936v-19h9v4q-5 12 -5 15h-4zM302 902l20 -5v24l4 10h-9q-9 0 -15 -29zM283 907v-10h4v10h-4zM248 902v-15h5v15h-5zM302 892q0 -27 -5 -34
l10 -5h10v34q-3 0 -15 5zM283 843v-9h4v9h-4zM248 838v-9h5v9h-5zM268 838v-4h10v4h-10zM302 838v-9h5v9h-5zM287 824q0 -7 -9 -20q11 0 19 -5v5q-5 10 -5 20h-5zM322 819q1 -10 9 -10v10h-9zM351 799v-19q10 -11 10 -20h5v5q-10 19 -10 34h-5zM283 795v-10h9v10h-9z
M302 785v-5h10v15q-10 -1 -10 -10zM336 780v-10h5v10h-5zM287 765v-5l15 -19q-5 0 -5 -5h10q0 3 5 15zM336 746v-10h5v10h-5zM307 731v-5h10v5h-10zM317 721v-14l9 -5v5q-4 8 -4 14h-5zM273 282q0 -11 -5 -19h10v19h-5zM224 199v-10h5v10h-5zM239 136v-5h9v5h-9zM73 -6v-10
h5v10h-5z" />
    <glyph glyph-name="f" unicode="f" horiz-adv-x="663" 
d="M181 1409q48 -14 54 -14h44q27 0 34 -5l25 3.5t19 1.5h24q113 0 113 -15l9 5h44q97 -13 152 -73v-25l-10 -14q10 -1 10 -10v-5q0 -10 -15 -10q-27 21 -229 64q-46 -2 -74 -5t-39 -5v5l-9 -5h-5q-5 0 -5 5l-10 -5h-29v-19q19 -25 34 -98q10 -1 10 -10v-24q0 -5 -5 -5
l5 -10v-39q0 -8 1.5 -19l3.5 -25q0 -14 -20 -14v-69l-5 -10l10 -4l5 24v29h10v-92l4 -49h-4l-10 5v-15l5 -10l9 5h5l5 -24v-30h-5l-9 5l-5 -9q2 -22 3.5 -35.5t1.5 -18.5h4l5 19h10v-24h10q71 63 205 107h10v-5q-4 -31 -118 -63l-4 -10v-5h4l142 54q15 -18 15 -29
q-25 -36 -83 -54h-15q-102 -61 -166 -171l-5 -9q0 -8 15 -15l-5 -24v-35h10l-15 -19l5 -34l-5 -10l15 -93q-10 -1 -10 -10q5 -8 5 -19h-5q10 -23 10 -34h-5l5 -10q0 -3 -20 -88l5 -10v-9q0 -5 -5 -5q0 -5 5 -5q-12 -98 -19 -98l4 -9v-15q0 -12 -4 -20q4 -8 4 -14
q-9 -2 -9 -10l5 -10q0 -21 -35 -29q-2 -39 -14 -39h-5q0 15 -10 15q0 -10 -24 -20v-5h-10v10h-10q-39 -14 -39 -20v-14q20 2 20 14h9q19 -24 25 -24l-20 -59h-9v15h-5l-10 -29q-7 0 -20 34h5q0 7 -19 29q6 0 14 20q-5 14 -9 14l-10 -5q-12 5 -15 5l5 30q-29 44 -29 63h10v24
q0 10 -5 20q5 12 5 15h-5l5 9v20h-5v-10h-10v5q19 10 19 122h5l-5 10v14l5 10q-9 0 -9 20h-10l5 -39l-10 -5h-5v10q0 4 5 4q-5 10 -5 20l-10 -5h-5l-4 24l9 5h5v-5l-5 -9h5q25 6 25 14v5l-10 -5h-10v10h15v20h-20v-15h-14v15q0 11 -5 19q9 25 9 34q-9 0 -9 10v5q1 10 9 10
l10 -5v5l-14 24l4 10q-8 5 -19 5q1 10 10 10q0 -5 5 -5q0 5 4 5l-4 9v5h9v10q-24 0 -24 34q5 10 5 20q-10 0 -10 9v5q1 10 10 10h5l-5 -10q0 -6 14 -14h5q0 21 5 29l-10 5l5 10v24h-9q0 -15 -10 -15l-5 10v49q1 10 10 10q9 -2 9 -10v-10h-9v-5l5 -10q-10 -1 -10 -9h19v14h-9
q0 10 24 10q0 10 -10 29q5 10 5 20t-10 10q-10 -5 -14 -5v5l5 9q-10 0 -10 15q3 54 19 54q5 -10 5 -25q10 0 10 10q0 27 -24 44v49h4l15 -10q0 7 10 20q-5 0 -5 4q16 10 24 10v15l-19 -15q-6 0 -25 25v48q0 7 15 15h5q0 -5 -5 -5q5 -18 5 -63h5q0 34 5 39q-5 12 -5 14
q5 12 5 15h-5l10 34h-10q0 -24 -15 -24q-10 0 -10 10v4q0 14 25 15v5h-10q-12 -5 -15 -5v5q10 19 10 29q-5 12 -5 15l10 5q15 -17 15 -30h9q0 6 -4 15l4 29v15q-14 -10 -29 -10l-5 10v5q15 16 15 29q10 0 10 -14q5 0 19 39l-10 4l5 30l-14 -10q-9 34 -30 34q1 10 10 10
l29 -15q0 23 10 44q-10 24 -10 39q5 0 5 5q-5 0 -5 5q10 5 20 5v10h-5l-10 -5l-5 10q9 4 15 4l-10 15q16 39 25 39h5v-24l9 -5l5 24q-5 0 -5 5q12 5 15 5v5q-15 19 -15 29h5l-5 10v49zM103 1326h10v-4h-10v4zM191 1292v-9h5v9h-5zM186 1268v-10h10q0 10 -10 10zM108 1258h5
v-10h-5v10zM162 1239v-15h10v5q0 10 -10 10zM191 1229v-10h5v10h-5zM113 1200h10v-10q-10 0 -10 10zM172 1117v-10h4v10h-4zM98 1102h5q10 -1 10 -10v-5h-5q-10 0 -10 10v5zM98 1068q10 -1 10 -10h-10v10zM157 1034v-5h10v5h-10zM98 1004h10q0 -9 -10 -9v9zM108 960v-4h10v4
h-10zM235 936q0 -6 -1.5 -15.5t-3.5 -23.5q15 0 15 -10h5v49h-15zM240 868q5 -8 5 -30h9v35h-4zM250 814v-10h4v10h-4zM103 741h10v10q-10 -1 -10 -10zM123 741v-5h19v5h-19zM254 741v-10h5v10h-5zM284 736q0 -3 -5 -15q10 -16 10 -24l-10 -5q11 -23 19 -24v29q0 37 -14 39z
M430 736v-10q12 5 15 5v5h-15zM137 707v-15q10 0 10 10v5h-10zM142 687v-10h5v10h-5zM93 673q0 -10 -4 -10q4 -9 4 -15h20v15q0 10 -10 10h-10zM79 614h14v-5q0 -10 -9 -10l-5 10v5zM142 580v-10h5v10h-5zM108 541v-10h10v10h-10zM113 512v-15h5q10 0 10 10q-3 0 -15 5z
M337 487l-4 -19h9v19h-5zM89 429v-5h9v5h-9zM98 394v-9h10v9h-10zM74 380v-15h-10v5q1 10 10 10zM113 375v-10h5q12 5 14 5q0 -5 5 -5v10h-24zM118 346v-5h10v5h-10zM103 326v-5h10v5h-10zM128 321v-10h4v10h-4zM108 297q0 -3 -5 -15h10v15h-5zM54 214h10v-10h-10v10z
M54 189h10q-5 -10 -5 -14h-5v14zM89 150q9 -2 9 -9q0 -10 -9 -10q-10 0 -10 10q1 9 10 9zM54 146h10v-20q0 -10 -10 -10l-4 10q4 8 4 20zM108 126h10v-5h-10v5zM108 92h10v-15h-10v15zM54 77h10v-10h-10v10zM59 53h10v-10h-10v10zM93 53h10v-10h-10v10zM64 28h10v-9h-10v9z
M69 -6h10v-10h-10v10zM113 -94h10v-4h-10v4zM186 -157v-10h5v10h-5zM215 -167q0 -17 -4 -24q13 1 19 24h-15zM123 -167h9v-10h-9v10zM211 -225l4 -10l-9 -5h-5v5q1 10 10 10zM181 -230h10q0 -10 -10 -10v10z" />
    <glyph glyph-name="g" unicode="g" horiz-adv-x="746" 
d="M524 1312h10q7 0 24 -29q-10 -5 -14 -5l5 -25v-14q0 -10 -113 -30q-60 0 -117 -190v-15h5l5 25h15q-5 -66 -15 -73h34v-20q0 -11 -5 -19q5 -12 5 -15q-10 -1 -10 -10l5 -24q10 5 20 5l-5 9l5 10h-10v10q19 0 19 10v9h-4v-14h-5q-10 0 -10 10v9q1 10 10 10l9 -5v10
q-14 0 -14 10q10 0 10 9l-5 10q9 0 9 15h10q0 -25 5 -25q-6 -44 -10 -53l5 -10q0 -24 -10 -24l5 -10v-5q0 -5 -5 -5l5 -10q0 -29 -19 -29v-5q14 0 14 -10v-4q0 -12 -4 -20q4 -8 4 -19v-5q0 -10 -14 -10q10 -19 10 -29q-8 -108 -15 -108l5 -10v-14q0 -16 -15 -64l5 -9
l-10 -83l5 -10q-7 -34 -19 -34h-5v10h-5v-10q23 -11 24 -20v-10q0 -9 -14 -9q3 -20 9 -20l-9 -53l5 -10l-10 -25l5 -9q-4 -25 -10 -25l5 -10v-4h-10l5 -10l-10 -64q5 -10 5 -14q-5 -20 -10 -20l5 -10q0 -4 -5 -4q22 -201 54 -201q29 -29 73 -29q31 15 52.5 40t35 53.5
t19 56.5t5.5 50v44q0 5 5 5l-5 10q0 11 15 34v10h-10q0 11 2.5 33.5t7.5 54.5l-5 9l5 59q0 11 -1.5 39t-3.5 73h10v-10h5l5 64l-25 5h-9q-5 0 -5 -5q-12 5 -15 5q-12 -5 -15 -5q0 12 -78 68l-5 10l5 10l25 -5q9 0 9 5l25 -5q21 0 49 5q20 -5 44 -5h4q0 24 20 24q7 -5 24 -5
q1 10 10 10q33 -10 39 -10h15v-24l-10 -15q5 -14 10 -73.5t10 -165.5l9 -10l-5 -24l20 -98l-5 -9q5 -12 5 -15t-5 -15l5 -29v-29q0 -5 -5 -5l5 -10v-14q0 -5 -5 -5l5 -10v-59l-5 -29q5 -10 5 -24l-5 -10q10 0 10 -15q-5 -14 -10 -14q5 -12 5 -15q0 -24 -10 -24l5 -10
q-24 -49 -29 -49l-25 5l-24 -5q-12 5 -15 5l-9 -5q-48 0 -88 63h-5q-71 -30 -88 -43l-29 4q-71 -24 -73 -24q-152 0 -249 171q-13 28 -23.5 90t-20.5 159h5l-5 9v49l-5 25h5q-5 10 -5 14l5 25h10q0 -15 -5 -15l9 -63q-4 -9 -4 -15l9 -5q10 0 10 15q-5 10 -5 14q5 0 5 5
l-10 5l10 29q-5 10 -5 20l10 5q10 -1 10 -10l-5 -10q5 -8 5 -24l9 5h5v-10h-9v-10h14v-10q0 -9 -14 -9v-25q19 0 19 -9v-5l-10 5h-14v-10q19 0 29 -10l15 10l-5 10l5 9q-10 0 -10 15l5 10q-5 10 -5 14v5h5v-10h14v10h-14q14 20 14 30q-9 0 -9 29h-5q0 -25 -5 -25
q-12 5 -15 5v10h10l-5 10v10q24 0 24 9v25q-7 0 -14 -15q5 0 5 -5l-10 -5q0 10 -10 10q-12 -5 -14 -5v5q4 8 4 20l-9 4l-5 -24v-19h-10q0 24 -10 24q-8 -5 -19 -5v78h5l14 -10q0 18 10 64v10q-15 0 -15 19v34q5 0 5 5q-9 16 -9 25q12 9 24 9v15q0 27 44 161q0 14 10 44h-5
q-30 -23 -30 -54q5 0 5 -5l-14 -9l5 -10q-10 -11 -10 -20q5 -10 5 -14q-20 3 -20 9q5 36 16 75t28 82l-10 4q10 30 15 30l-5 10v4h15v15h-15q0 74 88 254q91 136 220 136h87q0 25 10 25zM241 1102h10q0 -10 -10 -10l5 -10v-4h-5q-9 4 -15 4l-4 -9q6 0 14 -15q-19 0 -19 -5
v-14q-25 -10 -25 -30l25 -14q0 48 39 48v-9h-10l5 -10q-11 -10 -25 -10q10 -16 10 -29q-7 0 -19 -39q5 0 5 -5h-10v-5q0 -7 14 -15q-6 -42 -19 -58l5 -10q-10 -1 -10 -10h10l-10 -14q15 -15 15 -34h9q0 12 15 29q-7 0 -15 14q25 4 25 30h-5l5 10v4h-10v-9h-10q19 73 30 73
l-5 -29h9q9 3 54 141q5 0 10 15q-5 0 -5 5l-10 -5l-9 5q-12 -5 -15 -5l-5 9q-9 -4 -15 -4v-10q16 -25 25 -25v-9q-10 0 -17 -7.5t-11.5 -17l-8 -17t-7.5 -7.5l-5 10l29 53v5h-14l-10 -5v5q0 5 5 5l-10 20q7 0 15 9l-5 10l9 15q0 10 -9 10l5 9v5h-5q-15 0 -15 -34zM295 1097
v-10h5v10h-5zM163 995q0 -3 -5 -15h10v15h-5zM319 995v-15h5v15h-5zM373 1000h10v-10h-10v10zM246 980h5v-10h-5v10zM270 970v-14h-9v4q1 10 9 10zM153 960l-5 -19q10 0 10 15v4h-5zM183 951q-30 -44 -30 -49l5 -10l-24 -49q9 -2 9 -9l-9 -20l5 -10q-5 -10 -5 -14h9l49 146
q-5 12 -5 15h-4zM139 936v-10h14q0 10 -10 10h-4zM334 907v-15q10 0 10 10v5h-10zM246 897q1 -10 10 -10h5v10h-15zM192 887v-14h5v14h-5zM373 868v-15h10v5q0 10 -10 10zM358 863q-2 -25 -3.5 -39.5t-1.5 -19.5q10 0 15 44q-5 12 -5 15h-5zM183 858v-5h9v5h-9zM309 858v-15
h5v15h-5zM324 853q-10 -20 -10 -34q20 5 20 29zM173 829v-5h10v5h-10zM192 814v-10h5v10h-5zM187 799v-9h5v9h-5zM348 795v-10h5v10h-5zM314 785v-10h5v10h-5zM353 780q-5 -28 -5 -29h10q0 21 5 29h-10zM192 736l5 -10q-5 -8 -5 -19q3 0 15 -5q0 29 10 29l-5 10v15q0 4 5 4
q-5 12 -5 15q-11 0 -15 -39h-5zM368 775v-10h5v10h-5zM153 770l-5 -10v-4h15v4q0 10 -10 10zM314 751v-10h10v10h-10zM148 746v5l10 -10v5h-10zM173 746v-10h5v10h-5zM344 736q4 -9 4 -15h5q0 15 5 25h-5q-9 -2 -9 -10zM143 736q-14 -39 -14 -49h10l14 49h-10zM163 731v-15
h15v5q0 10 -10 10h-5zM314 716h10v10q-10 -1 -10 -10zM344 716v-24l9 5q-5 8 -5 19h-4zM124 677v-4h10v4h-10zM148 673v-10h10v10h-10zM314 673l15 -5v5h-15zM344 673v-10h4v10h-4zM119 663q-10 -33 -10 -39v-5h10l10 44h-10zM143 658v-10q10 0 10 10h-10zM70 658h15
q0 -10 -10 -10h-5v10zM168 643v-9h5v9h-5zM339 643q0 -24 -10 -24l-10 5v-15q10 0 20 -5q0 20 9 20q-4 7 -4 19h-5zM148 634v-10h5v10h-5zM309 634l10 -5v5h-10zM134 624q0 -12 -10 -25v-5h19q-4 9 -4 15q4 9 4 15h-9zM65 619h10v-29h-10v29zM104 594q0 -7 -9 -19v-15h5
q9 0 9 10v24h-5zM129 585v-5h10v5h-10zM153 575v-5h10v5h-10zM329 551v-5h5q0 9 10 9v15q-8 0 -15 -19zM305 565l-5 -19q12 9 19 9q0 10 -10 10h-4zM114 551v-10h10v10h-10zM344 546v-10q9 0 9 10h-9zM90 541q0 -10 -5 -20h10l5 20h-10zM324 516h10v10q-10 -1 -10 -10z
M295 521v-5q12 0 34 -34q0 15 10 15q0 -5 5 -5v5q0 7 -20 15q0 -5 -5 -5q-5 10 -5 14h-19zM109 516v-9h10v9h-10zM139 497v-20l-5 -24l9 -5l5 24v25h-9zM309 463l-9 5l-5 -10q22 -34 29 -34h5l-5 9q0 10 15 10q-15 16 -15 29zM300 424v-10h5v10h-5zM314 419v-20h5v20h-5z
M61 390q0 -5 -5 -5q5 -10 5 -25q9 0 9 10v10q0 10 -9 10zM305 365v-10q1 -9 9 -9v19h-9zM61 355v-19h9v5q-5 10 -5 14h-4zM305 341v-10h24v15q-10 -5 -24 -5zM305 321v-14h9v14h-9zM61 175q1 -10 9 -10v10h-9zM95 165v-10h9q0 10 -9 10zM124 160l-5 -10v-4h15v4q0 10 -10 10
zM124 131v-5q1 -10 10 -10v15h-10z" />
    <glyph glyph-name="h" unicode="h" horiz-adv-x="718" 
d="M69 1307l34 -5h34q18 -5 26.5 -11t16 -18l19 -31.5t36.5 -51.5q-5 0 -5 -5h10v10q34 -52 34 -132q-5 0 -5 -5l10 -5q0 -5 -5 -5q6 -81 10 -88l-10 -29q5 -8 5 -19q0 -30 -10 -30l5 -9v-10q-49 -42 -49 -112v-64q6 0 29 78h5l5 -24q-7 0 -14 -15v-5h9q-3 -29 -9 -29l4 -10
v-14h-9v9h-5v-63q177 -39 234 -39v49h10q0 -25 24 -25q0 25 10 25q10 -10 10 -30h10v30l9 -5h5v5h-10v14q0 10 15 10q0 25 -15 25v9q15 0 15 15q-19 0 -19 24h-10l5 -9v-5h-10v24q0 5 5 5l-5 10v5q13 39 19 39q-7 19 -14 19l5 10l-5 34h5l9 -5v64h-4l4 39q-9 0 -9 9v5l9 -5
h5v5h-9v5l9 15h-14v19q0 5 5 5l-5 10q24 22 24 44q-15 0 -15 10q20 8 20 14q0 13 -20 15v5q1 10 10 10q0 -5 5 -5l5 39q0 19 -5 39l5 24q-5 22 -7.5 38t-2.5 26v5h10q0 -10 29 -15l5 -10l10 5q19 -6 29 -34q22 -10 25 -20q-7 0 -15 -14l15 -64q-5 -10 -5 -14q14 -5 24 -35
q0 -131 -39 -131l10 -15h-5l-10 5q0 -3 -5 -15h20v-5q-13 -14 -20 -58v-15h-5v-5q20 0 30 -19v-20h-10q0 25 -10 25q0 -20 -5 -20l5 -10q0 -9 -15 -9v-5l10 -15v-5h-10q5 -10 5 -14l10 5l5 -10l-10 -5q0 5 -5 5v-10q15 0 15 -15l-10 -5v15h-24v-5l19 -5v-9l-5 -10
q15 0 15 -20h5v10h10v-5q0 -7 -20 -19q0 5 -5 5v-10h10q-11 -15 -15 -34q10 -16 10 -25l10 5l10 -19l-5 -25h-10q0 25 -15 25v-10l5 -25q-5 0 -5 -4q10 -1 10 -10q0 -10 -10 -29q5 -12 5 -15l-5 -10l5 -10q-9 -41 -9 -53q4 -9 4 -15q-4 -9 -4 -15l4 -9q-4 -8 -4 -20v-5h9
q-14 -19 -14 -29v-5h5v10h9v-20h5q0 20 10 20h5l-10 -73l5 -10l-5 -34h10q0 24 29 44l5 -10q-19 -16 -19 -54q9 -18 9 -39v-24q15 0 15 -10v-10h-10l5 -34q0 -5 -5 -5l5 -24v-10l-10 -15l10 -4l-19 -35q14 0 14 -9l-10 -5l5 -10q0 -10 -9 -10l4 -24v-15l-9 -14
q2 -22 3.5 -35.5t1.5 -18.5q-9 0 -35 -44h-5q-39 27 -39 34v5l5 10h-9q0 -10 -15 -10q10 -19 10 -29q-15 0 -15 -15h-10q-5 0 -5 5l-9 -5h-35q-39 10 -39 44q15 28 15 34l-5 10q5 12 5 15q-10 0 -10 9q15 4 15 30q-10 0 -10 9v10h10q0 -13 10 -24v-30q6 0 14 -4q0 21 5 29
q0 5 -5 5l5 24v39q0 10 -10 10q-7 -5 -29 -5q-4 45 -10 54l3.5 18t1.5 16q0 4 -5 14l5 30v49q15 0 15 9q-5 37 -7.5 61.5t-2.5 36.5h5l-5 10v9l10 15q-14 44 -20 44l5 24v74q0 4 5 4q-4 25 -10 25q-41 0 -195 39q-18 -5 -19 -5q-10 5 -25 5q-5 -28 -5 -29q0 -77 10 -127
l-5 -30v-14q0 -13 3.5 -19t6.5 -6l-5 -9v-10h5l10 5l5 -10q-30 -44 -30 -59q27 0 30 -39h-15q15 -47 24 -48l-4 -30q0 -5 4 -5l-4 -9l4 -10q-9 0 -24 -83q-10 -1 -10 -10q20 -2 20 -14q-5 -10 -5 -20q13 0 19 -34q-9 -2 -9 -10q24 -6 24 -68l-10 -5l5 -10q-6 -24 -14 -24
l-10 5q-14 -3 -39 -25q-9 0 -44 -19q-10 5 -20 5q0 -15 -9 -15q0 14 -39 34l-10 34l5 20q-5 37 -7.5 63.5t-2.5 43.5h5q-10 21 -10 49l5 29q-5 22 -5 39h5q-5 12 -5 15q0 97 39 288v54q0 43 -1.5 87.5t-3.5 92.5q4 103 15 103q-10 14 -10 29v5l10 34q0 3 -5 15q10 87 15 87
q-5 12 -5 15q9 189 9 200h5q-8 34 -29 49v63q-45 45 -49 83zM630 1180v-10h10q0 10 -10 10zM635 1165v-9h5v9h-5zM581 1039v-15h5v15h-5zM547 1009v-9h5v9h-5zM557 995v-10h5v10h-5zM606 995v-10h5v10h-5zM581 975v-15h10v5q0 10 -10 10zM552 960v-9q10 0 10 9h-10zM586 936
q-14 -33 -14 -44h5q7 0 24 29q-5 12 -5 15h-10zM660 926h9v-9q0 -10 -9 -10q0 5 -5 5q5 10 5 14zM601 912v-20h5v20h-5zM640 897h10v-5h-10v5zM577 882q0 -39 -15 -39v-5h15q4 30 9 30q-5 12 -5 14h-4zM601 882q0 -13 -10 -24v-5q10 0 10 -5q-5 -12 -5 -14q10 0 10 24h-5v5
q10 0 10 5q-5 12 -5 14h-5zM572 834q0 -15 -5 -15q5 -10 5 -24q11 0 14 24q-9 0 -9 15h-5zM547 780v-10h10v10h-10zM572 775v-10h5v10h-5zM538 751q4 -9 4 -15q10 0 10 10l-10 5h-4zM572 751v-10h5v10h-5zM611 751v-10h5v10h-5zM567 736v-5q5 -12 5 -15h9v20h-14zM596 731
v-10h5v10h-5zM567 697q0 -25 19 -29v14q0 7 -14 15h-5zM523 697h10q0 -10 -10 -10v10zM225 682v-9h5v9h-5zM533 682l-10 -14v5q1 9 10 9zM572 663v-10h5v10h-5zM577 643l-10 5v-24q4 0 14 -5q0 19 30 19v5q0 10 -10 10h-10zM640 634h10v-5h-10v5zM567 604v-14h10
q-5 10 -5 14h-5zM484 599v-19l10 5q-5 10 -5 14h-5zM547 594v-9h5v9h-5zM591 594v-9q10 0 10 -15h10v5q0 7 -20 19zM581 565v-5h10v5h-10zM640 512v-40h-10v30q1 10 10 10zM240 492h10l4 -20l-4 -34h-5q-10 0 -10 10v15l10 14q-5 12 -5 15zM474 433v-19l20 -20
q-10 -1 -10 -9v-10l5 -25q-10 -1 -10 -9v-5l10 5l9 -5v5l-4 9q9 19 9 40v73q-29 0 -29 -30zM523 458l-5 -25l10 -4v29h-5zM635 453v-34h-10v24q1 10 10 10zM562 429v-10h5v10h-5zM245 424l-5 -34h10v-20h-10q0 13 -10 24q4 30 15 30zM572 409v-10h5v10h-5zM586 399v-14h5
q0 4 5 14h-10zM630 399h5q12 -5 15 -5q0 -7 -15 -14h-5v19zM567 380v-5h14v5h-14zM557 375v-25h5v25h-5zM586 355q0 -12 -14 -24l9 5h10l10 -5v10q0 6 -15 14zM562 321v-14q1 -10 10 -10q0 10 19 10v4zM479 316v-14q1 -10 10 -10v10q-5 10 -5 14h-5zM498 307v-15l5 -24h5v48
q-10 -1 -10 -9zM611 316v-9h5v9h-5zM235 316h15v-5h-15v5zM577 297q0 -9 -10 -20v-5q15 5 19 20zM611 204v-10l5 -24h4v34h-9zM79 116v-14q10 0 10 9v5h-10zM79 92v-25q10 0 10 10v5q0 10 -10 10zM79 24q5 -10 5 -20h5v29q-10 -1 -10 -9zM84 -1v-10h5v10h-5zM84 -16v-9h5v9
h-5zM474 -11q10 -1 10 -9v-5h-10v14zM498 -133v-44q0 -7 15 -14h20v5q-14 14 -30 53h-5z" />
    <glyph glyph-name="i" unicode="i" horiz-adv-x="339" 
d="M192 1326h15q5 0 5 -4l10 4q8 0 34 -19l-5 -34q0 -14 54 -161q24 -179 24 -191q-24 -215 -24 -346v-10q0 -12 4 -19l-4 -10q0 -5 4 -5l-4 -24v-113q0 -11 -5 -19l5 -10q-35 -99 -40 -200h15q-29 -58 -29 -181q-5 0 -5 -87v-35q0 -8 -34 -29v5q-11 0 -69 -78h-48
q-14 4 -64 117q2 34 3.5 56t1.5 32q0 4 -1.5 23.5t-3.5 54.5l15 29q-5 28 -5 30t1.5 12t3.5 27l-5 24q14 94 21.5 157t7.5 97v73q-9 12 -9 20l19 283l10 14v59l-5 29q5 12 5 15l-5 9l39 259q5 0 5 5v44l-5 29q22 64 63 64q0 4 5 4z" />
    <glyph glyph-name="j" unicode="j" horiz-adv-x="607" 
d="M473 1380v-5l10 5l34 -5q8 5 19 5l5 -10l10 5h10q6 0 14 -14v-5l-14 -30q9 -48 9 -87v-25q0 -120 -9 -190q5 -12 5 -15q0 -5 -5 -5l5 -19l-10 -64q5 -8 5 -19q-10 -1 -10 -10q0 -10 15 -10v-29q0 -12 4 -19q-4 -9 -4 -15l4 -34l-4 -10q3 -19 9 -19l-5 -25l5 -24l-9 -20
q0 -5 4 -5q-3 -34 -9 -34l5 -10v-44q0 -24 -10 -24l5 -10l-5 -34q10 -1 10 -10h-5l5 -9v-10q0 -5 -5 -5l5 -10v-49q0 -12 4 -19q-4 -9 -4 -15q2 -17 3 -27t1 -12l-4 -10q0 -4 4 -4q-8 -83 -14 -83l5 -10v-20l-15 10v-10h10v-9q-15 0 -15 -10q15 0 15 -10q-4 -34 -10 -34
l5 -10q-6 -19 -24 -19v-5h9v-5q-15 -16 -19 -54l-20 -29l-9 5v-10h9v-5h-9v-24q-17 -38 -69 -78q0 -50 -34 -78l5 -39q-10 -24 -44 -49l-10 5q0 -10 -10 -10v10l-122 -15l5 10v5h-9v9h14v-9h39q25 19 34 19l20 -5q8 5 19 5l-9 15q23 11 24 19v10q-53 -39 -127 -39v5l-10 -5
h-9q-5 0 -5 5l-10 -5q-11 0 -19 5q-10 -5 -20 -5q-4 14 -54 34q-68 207 -68 278l-29 54h-5q0 56 83 88q6 24 14 24h35l19 -24q2 -17 3.5 -27t1.5 -12q-5 -28 -5 -29q5 -12 5 -15h-5q10 -16 10 -29q-5 0 -5 -5q15 0 15 -10l-5 -24q11 0 34 -113l10 -5q131 30 131 83
q32 0 64 254q0 33 10 49q-5 22 -5 34l5 10q0 5 -5 5q2 17 5 48t5 79q-5 10 -5 14q14 0 14 10v34h-5v-10h-4v10q2 25 3.5 55.5t3 57.5t3 45t4.5 18l-5 10q0 9 5 9l-5 49v25q0 36 5 100t15 158q-10 0 -10 10h5q0 5 -5 5q5 20 10 49.5t10 67.5q-5 10 -5 20q0 4 5 4q0 5 -5 5
q5 74 24 74q0 14 10 14zM414 619v-10h5v10h-5zM126 111v-9q10 0 10 9h-10zM336 -211v-9h5v9h-5zM170 -220l5 9q4 -7 7.5 -11.5t7.5 -12.5h-10q-10 0 -10 10v5z" />
    <glyph glyph-name="k" unicode="k" horiz-adv-x="872" 
d="M661 1429h19q28 -17 39 -63q64 -48 64 -54v-44q-26 -51 -69 -88l-4 -10l14 -24q-12 -24 -19 -24h-5q-14 2 -25 3t-19 1v-14q-22 -37 -29 -39q-37 -49 -54 -98q-9 0 -12.5 -7.5t-7.5 -17t-11 -17t-23 -7.5q5 12 5 15l10 -5h5v10l-10 -5v10q59 91 59 92l-10 15v5l29 -5
q0 28 24 54q-4 0 -4 5q3 0 39 48l-20 15h-5q0 -21 -44 -83q-3 0 -16.5 -19t-46.5 -69l10 -14q-20 -5 -74 -108q5 0 5 -5q-14 -3 -24 -24v-10q8 0 24 -10q0 30 34 30v5q-14 0 -14 9q10 0 10 15h14q0 -10 10 -10v-9h-10l5 -10q-15 -12 -15 -30h-19v-4h10v-15q-10 0 -39 -59
q9 -2 9 -9q-4 -1 -73 -93v-5q36 -41 54 -93q1 0 5.5 -3.5t9.5 -10t9.5 -16.5t4.5 -23l10 5h5l5 -20q-5 0 -5 -5q16 0 29 -58q32 -56 62.5 -102t59.5 -84l-5 -10h15l-5 -9v-5l5 -10l10 5q8 0 14 -34q-14 0 -14 -10l9 -5q5 12 5 15h5q0 -33 25 -34q0 -19 34 -44q0 -15 97 -161
l5 -25q-12 -5 -14 -5v-5l14 -24q-10 -34 -19 -34q-12 5 -15 5v-5l5 -10q-21 -5 -34 -15l-10 5q-15 -44 -29 -53q-10 0 -10 14h-15q-18 -29 -24 -29q-24 24 -39 24v5l5 10q-5 0 -5 5l-10 -5h-5q-39 49 -39 63q5 12 5 15q-27 27 -146 220q-13 7 -64 131q-11 0 -53 108l4 10
q-38 126 -53 126h-5v5q0 5 5 5q-8 20 -15 20l-15 -10h-4v10h-10q0 -9 -4 -19t-11 -25q-13 -28 -18 -55.5t-6 -56.5v-10l5 -25h-5l5 -9v-44q0 -144 -15 -205v-15q0 -12 15 -58q0 -5 -5 -5l5 -25v-19h14q-25 -20 -34 -54q5 0 5 -5q-35 -29 -44 -29q-26 28 -49 102q20 78 20 83
l-10 -4l-10 4l5 -29l-10 -5q0 9 -24 44l-10 29q-9 -2 -9 -9q9 0 14 -30h-5q-12 0 -19 39q18 15 34 15l5 -10q-5 0 -5 -5h5q10 0 10 10l-35 29v5l20 20v5l-10 -5q-10 0 -10 10v9h10v-9h10l-5 24l-10 -5h-5v15q0 13 10 29q-10 0 -10 10q0 5 5 5l-5 9v25l10 15l-10 14v10l5 24
h15l5 -24q-5 -15 -10 -15l5 -24v-15q0 -11 -5 -19q5 -10 5 -20v-10l-10 -14q3 0 15 -5l5 10v34q0 11 5 19q-5 10 -5 20v10l5 9h-10v5l19 25l-14 9q9 16 9 30l-9 -5h-5v10h-5v-10q10 -1 10 -10v-10h-10q0 10 -20 25h5l-5 9v30q20 0 20 10q-5 8 -5 19l-10 -5h-5v10q11 0 20 10
q12 -5 15 -5l-5 10l9 4q1 -9 10 -9q0 19 5 19l-5 10q5 8 5 19q-5 0 -5 5h5l15 -9q0 4 5 4v-24h-10v-15l10 5q9 -24 9 -34h5q0 13 1.5 37.5t3.5 60.5q-10 34 -10 39h-9q0 -5 4 -5q-5 -34 -9 -44l9 -5q0 5 5 5v-10q-4 0 -14 -5q0 3 -25 25l5 24l-10 5v-5q0 -5 5 -5
q-5 -34 -9 -44q9 -17 9 -29v-10h-5q-13 0 -19 39q5 0 5 5q-10 0 -10 10q10 24 15 24l-5 25v19q1 10 10 10h4v-10h5q0 15 5 15l-5 10q5 10 5 14v5h-5q0 -19 -14 -19l-5 9q0 10 24 15v15q-10 0 -10 -15h-4q-10 0 -10 10q10 11 10 24h4l10 -5v10q-19 0 -19 20q11 0 14 24
q-5 0 -5 5q5 0 5 5q-6 0 -14 14l9 15q-6 0 -14 20l10 5h4v-20l25 5v-10h19v5q-14 0 -14 20l-10 -5h-5q-12 24 -19 24h-5v10q17 0 24 10l-5 24q0 11 5 19q-5 12 -5 15q5 12 5 15l-10 -5h-5l5 29l30 -5l4 20h-14v-10h-5v15q0 19 19 19v15l-14 -10h-5v39l5 10q-10 0 -10 5
q9 24 24 24v5q-14 17 -14 24q4 93 14 93q-9 0 -9 10v19l14 25q-9 0 -9 10q0 4 4 4l-4 25v10q0 5 4 5q0 4 -4 4q9 59 14 59l-5 10l20 58q18 39 58 39l15 -34l-10 -19q6 -30 15 -30l-3.5 -129.5t-1.5 -89.5v-152q9 0 64 79q11 0 165 190q132 185 147 185q31 15 44 15z
M714 1224v-10q10 0 10 10h-10zM661 1209v-5q1 -9 10 -9h9v14h-19zM690 1185v-10q10 0 10 10h-10zM744 1190l-5 -29h-10v14q0 7 15 15zM666 1146v-10q6 0 14 15q-10 -5 -14 -5zM680 1141q5 -12 5 -15h5q7 0 15 15l-10 5q-12 -5 -15 -5zM95 1126h9v-9h-9v9zM95 1087h9v-14h-9
v14zM505 1073q0 5 -5 5l-15 -30v-9h20q0 26 24 43h-10zM680 1082l-9 -9q1 9 9 9zM95 1058h9v-29q0 -10 -9 -10l-5 10v5zM56 1043h9v-14h-9v14zM514 1039v-10h5v10h-5zM470 1034q-14 -30 -14 -34h19q0 9 20 29l-10 5h-15zM500 1024v-10h14q0 10 -9 10h-5zM495 1009v-9h10
q0 9 -10 9zM139 1004v-9h4v9h-4zM446 995v9q0 -14 3.5 -19.5t11.5 -9.5v10q0 10 -10 10h-5zM485 990v-5h10v5h-10zM475 975q1 -10 10 -10v10h-10zM90 975h10v-5h-10v5zM436 965q1 -9 10 -9v9h-10zM466 960q1 -9 9 -9v9h-9zM80 956l5 4q10 -7 10 -14v-5q0 -10 -10 -10l-5 10
v15zM422 946l5 -5v-15h-15v-14h19q0 10 10 34h-19zM109 926h10v-5h-10v5zM80 921h5q10 -1 10 -9l-10 -5l-5 10v4zM402 902v-5q0 -8 15 -15v20h-15zM387 882v-4q5 -12 5 -15h5q10 0 10 10q0 9 -10 9h-10zM85 882h5v-4q0 -10 -10 -10l-5 10zM46 878h10v-10h-10v10zM378 858
v-10q11 0 19 -5v5q0 10 -10 10h-9zM134 853l-5 -24v-20l10 5l-5 24l9 15h-9zM75 848h5q10 -1 10 -10v-14h-5q-10 0 -10 10v14zM446 838l5 -9v-5h-20v-5l10 -15v-5h-5l-9 5l-5 -24q29 0 44 44q-5 12 -5 14h-15zM363 819v-10h5v10h-5zM392 809h10v10q-10 -1 -10 -10zM353 795
v-15h10q-5 12 -5 15h-5zM134 775v-10h5v10h-5zM344 775q1 -10 9 -10v10h-9zM412 770q0 -19 -10 -29v-5h20l5 10l-5 10q5 10 5 14h-15zM329 741v-5h15v15h-5q-10 -1 -10 -10zM75 741h10l-5 -25q5 0 5 -4q-10 -1 -10 -10q5 0 5 -5l-10 -5l-5 10q10 34 10 39zM392 687h10v10
q-10 -1 -10 -10zM119 682q10 -11 10 -19h5v19h-15zM139 658q0 -21 9 -39q-5 0 -5 -5l-9 5h-10l24 -44v-5q-14 0 -14 -10q19 0 19 -14h5v19q0 10 -5 20q5 8 5 19q0 20 -10 20l5 24l-5 20q-9 -2 -9 -10zM402 624q1 -10 10 -10v10h-10zM387 565v-10h10v10h-10zM124 458v-5h10v5
h-10zM285 453l5 5l7.5 -7.5t2.5 -7.5l-10 -5l-5 10v5zM104 414v-10h10q0 10 -10 10zM129 409v-15l5 -29q0 -5 -5 -5l5 -24v-10l-10 -15h10q19 45 19 83v5h-10l5 -9v-10h-9v29h-10zM95 385v-10h14v15q-10 -5 -14 -5zM75 370v-10h10v10h-10zM114 341v-20h5q0 3 5 15zM153 321
v-10h5v10h-5zM109 277q5 -8 5 -19q-10 -1 -10 -10q10 -1 10 -10v-5q0 -9 -10 -9q5 -10 5 -25h20v10q-3 0 -15 5q6 9 10 44h5q5 0 5 -5l9 5q10 0 10 -15h5v15q0 4 -5 14q5 10 5 20v10h-15q-34 -15 -34 -25zM139 282h9v-5h-9v5zM134 219v-5h14v5h-14zM139 204v-5q2 0 14 -5v15
q-12 -5 -14 -5zM651 199q1 -10 10 -10h5v15q-12 -5 -15 -5zM100 170v-5q29 11 29 20h-5q-24 -8 -24 -15zM534 180q1 -10 10 -10h5v10h-15zM114 165v15q2 -20 3.5 -26t1.5 -8h10q-5 8 -5 19h-10zM685 136v-10q15 -17 15 -24h10l-5 34h-20zM119 126v10l10 -25q-5 12 -5 15h-5z
M568 126v-15h10v5q0 10 -10 10zM109 92q0 -8 15 -15l-5 -10q5 -8 5 -19h5l5 34q-10 0 -10 15q-12 -5 -15 -5zM90 58v-10q19 0 19 -15h5v5q-5 10 -5 20h-19zM646 53q1 -10 10 -10v10h-10zM70 14h10q0 -10 -10 -10v10zM65 -1h10v-5h-10v5zM236 -20h10l-10 -39h-10q10 30 10 39
z" />
    <glyph glyph-name="l" unicode="l" horiz-adv-x="1037" 
d="M703 1361q39 -6 39 -15l10 5q61 -22 88 -78v-20q0 -6 -24 -24q-13 0 -33.5 -1.5l-49.5 -3.5q0 10 -69 49h-19q-54 0 -93 -59v-49q15 -119 15 -156q-5 0 -5 -5q5 0 5 -4q-10 -1 -10 -10q10 -1 10 -10v-15h5q0 -4 -15 -14l5 -10q0 -5 -5 -5q2 -10 5 -36t5 -71h10v-10h-10
v-20l10 -14q-10 -16 -10 -25q10 -14 10 -24q-10 -1 -10 -10v-5q1 -9 10 -9h9q0 9 -9 9q3 20 9 20l-5 29l5 49h5q10 -1 10 -10v-5l-10 -14q10 -1 10 -10q0 -10 -10 -10l10 -19q0 -5 -5 -5q10 -64 20 -64l-5 -24q4 -127 19 -127h5l-5 24l15 10q10 0 10 -14q0 -39 -20 -39
q-9 4 -15 4l-14 -156q0 -5 5 -5l-10 -102q15 0 15 -10v-5q0 -10 -20 -10l10 -14v-5q-16 -9 -34 -93q-5 0 -5 -5v-14q68 -21 156 -127l34 -5h39q17 0 88 39h39q10 0 10 10q0 6 -1.5 24t-3.5 49q0 52 44 93h5l19 -15l-5 -34v-29q0 -23 25 -69q-10 -19 -10 -34q5 -14 10 -25
t10 -19l-5 -10q6 0 14 -14h-5l5 -10v-5q0 -10 -9 -10q0 5 -5 5q0 -19 -15 -19l5 -10v-5q-6 0 -49 -58q-104 -59 -166 -59h-10q-175 0 -253 122v5l-10 -5q-27 24 -29 24l-25 -4l5 -10q-23 -27 -141 -54q0 -29 -108 -44h-78q-11 0 -19 -5q-10 5 -20 5h-24q0 25 -30 25
q0 17 -39 29q-9 19 -9 34q0 68 112 161q83 44 176 44h9v5q0 215 30 332q-5 10 -5 14h5q-5 12 -5 15q0 5 5 5q-10 44 -10 54l10 -5v9q0 3 -5 15l5 29v15h14v19h-5v-9h-9v9q1 10 9 10l10 -5q4 64 20 108q-5 8 -5 19q9 39 9 49v54q1 24 10 24q-10 21 -10 49q13 0 30 98l-5 29
v44h10v-15h9v29h10v25l-10 -5h-4q3 15 19 19l-5 25q0 10 15 10v14l10 44h4v-19l39 68q72 93 205 93zM347 1185h10v-15h-10v15zM406 1141v-15q0 -9 -10 -9h-5v5q7 19 15 19zM347 1092h10q0 -11 5 -19q0 -5 -5 -5l5 -34v-30h-15q0 15 -5 25l3.5 25t1.5 19v19zM503 1087v-14h5
v14h-5zM323 1078l5 9l-5 -39q-10 0 -10 10v10q1 10 10 10zM313 1043h10l5 -43q-11 0 -15 43zM411 1039v-10h5v10h-5zM498 1039v-5q1 -10 10 -10v5q0 10 -10 10zM503 1019l-5 -10q0 -5 5 -5q-9 -15 -9 -29l4 -24q12 5 15 5q0 4 -5 4l5 25v24q0 10 -10 10zM469 1000
q5 -58 7.5 -121.5t2.5 -132.5q0 -3 5 -15l-5 -10q0 -4 5 -14q-4 -84 -8.5 -140t-11.5 -85l5 -10v-4q0 -5 -5 -5q0 -5 5 -5l-19 -132q4 0 14 -5q1 10 10 10l5 -10v-5l-15 -19l10 -5l-5 -10v-5h10q9 0 29 122h10l-3.5 -43t-1.5 -30v-10l-5 -9q5 0 5 -5q-10 -1 -10 -10l10 -20
l10 5h5q-15 -12 -30 -63h10q5 29 25 29h5v20q0 11 -5 19l5 10q0 5 -5 5q4 49 9 49q-9 25 -9 39q10 5 14 5v4q-4 0 -14 5l5 25v44q0 4 4 4l-4 10v5h9q-4 33 -9 44q4 8 4 20v4h-9q-2 -13 -3.5 -20t-1.5 -9q0 -5 5 -5q-10 -37 -10 -92h-10v34q0 97 10 97q0 5 -5 5l5 25v14
q0 15 -5 15l5 24v142h-15l-5 -25q0 -2 5 -14l-5 -10l5 -10q0 -10 -5 -10l5 -34v-29q0 -5 -5 -5l5 -10q0 -46 -4.5 -104t-14.5 -130l5 -10q-14 -53 -20 -53q-5 10 -5 14l25 205q0 5 -5 5l5 25v87q0 11 1 24t3 30q-5 15 -9 15l5 24v10q0 11 -1.5 24l-3.5 30q0 4 5 4l-5 25v58
l-5 30q0 5 5 5l-5 24v20h-15zM528 970q10 -16 10 -29l-5 -10q5 0 5 -5q-10 -1 -10 -9h19q-5 10 -5 14l5 34q-9 0 -9 15q-10 -1 -10 -10zM323 980h10v-5h-10v5zM362 975l5 -10l-10 -5h-5v5q1 10 10 10zM362 941q5 -12 5 -15l-5 -9q5 -10 5 -20h-15v34q1 10 10 10zM498 936
v-15l5 -9q12 5 15 5v9q-10 0 -10 10h-10zM323 912h10v-10h-10v10zM498 882q5 -10 5 -14h5v10h-5l5 9v10q-10 0 -10 -15zM538 897v-5h14v5h-14zM328 892l9 5v-15h-9v10zM538 882q0 -11 -5 -19l9 -59q-9 -2 -9 -9q9 -2 9 -10q-4 -9 -4 -15q7 0 19 25q-4 30 -15 53l5 34h-9z
M367 868l5 -10l-10 -5h-5v5q1 10 10 10zM503 858v-24h5q10 0 10 9v10q-3 0 -15 5zM328 848h9v-10h-9v10zM581 843l5 -5q10 6 10 -4v-5h-5q-10 0 -10 9v5zM503 829v-10l5 -24h10v24q0 10 -10 10h-5zM333 775h9v-15h-9v15zM547 770q1 -10 10 -10v10h-10zM333 751h9v-15h-9v15z
M333 726h9v-24h-9v24zM538 712v-10q9 0 9 10h-9zM572 707q0 -10 -5 -10q0 -5 5 -5l-5 -24v-25q0 -14 -1.5 -33.5l-3.5 -44.5q5 -12 5 -14h-10v-10l5 -25h10l5 25v19h4l10 -5v5q-14 20 -14 30h4l10 -5v14h-14v10q0 10 14 10v10l-10 14v15q1 10 10 10q-12 39 -19 39zM542 677
q5 -8 5 -19h10v34q-8 0 -15 -15zM333 687h9v-10h-9v10zM333 653h9l5 -19q-5 -12 -5 -15h-5q0 17 -4 34zM294 648l4 -10q0 -9 -9 -9l-5 9q1 10 10 10zM542 638l-4 -9v-49q2 0 14 -5v5l-3.5 25t-1.5 19h10v10q-6 0 -15 4zM645 624h5v-10h-5v10zM284 604l10 10l4 -39
q0 -5 -4 -5l4 -10v-19l-9 -15l5 -10l-10 -4q0 4 -5 4l5 10l-5 10q7 0 15 15q-15 0 -15 9v5h10q0 10 -10 10zM294 502q0 -5 4 -5l-4 -29h-10v24q1 10 10 10zM567 487v-10q10 0 10 10h-10zM294 443l4 -10v-19q0 -10 -9 -10l-10 5q4 34 15 34zM298 326v-29q-11 10 -19 10v9
q8 0 19 10zM445 316v-5h14v5h-14zM450 302v-5h9v5h-9zM445 292v-29h10v24zM498 272v-9h5v9h-5zM611 268l9 4v-14h-9v10zM498 258v-10h5v10h-5zM479 253q0 -27 -5 -34h10q0 1 5 29zM284 214h10v-10h-10v10zM289 106q9 -2 9 -9h-9v9zM132 -30v-5l103 10q12 -5 15 -5
q58 25 58 58q-134 0 -176 -58zM494 -35v-10h4v10h-4zM567 -35v-10h5v10h-5zM577 -40v-15q6 0 15.5 -1t23.5 -3q0 11 -39 19zM508 -59v-10h5v10h-5zM620 -59q0 -14 30 -30v20l-10 -5q0 7 -15 15h-5zM523 -64v-5h15v5h-15zM669 -64q0 -8 15 -15h5q0 7 -15 15h-5zM703 -64v-10
h5v10h-5zM547 -69v-10q1 -10 10 -10q0 3 5 15l-10 5h-5zM572 -74v-5l24 -5v10h-24zM713 -74v-10q5 -12 5 -14q-10 -1 -10 -10h20q0 4 5 14q-12 0 -15 20h-5zM508 -89v-5h20v5h-20zM567 -89q0 -9 -10 -9v-5h10l5 9v5h-5zM625 -89q0 -11 -5 -19h10q0 11 5 19h-10zM635 -113
l10 -5h10q9 0 9 10l-9 5h-10q-10 -1 -10 -10zM542 -118v-5q10 0 20 -5v20q-11 -10 -20 -10zM664 -128q7 -19 15 -19h20q-7 19 -35 19zM645 -152v-5q1 -10 10 -10v5q0 10 -10 10zM708 -162v-5h10v5h-10z" />
    <glyph glyph-name="m" unicode="m" horiz-adv-x="1272" 
d="M190 1390h5q78 -44 78 -83q10 7 49 15q9 -25 34 -25q0 25 29 25l34 -103q120 -139 156 -346l142 -552q13 0 29 127q0 88 117 444q0 20 20 68q19 72 19 83l-5 20l25 88l-29 83l14 34l39 -10q0 5 5 5l-10 44q5 23 25 39l24 -5h15l29 5q20 -5 20 -10l9 5q5 0 74 -29
q14 10 29 10q10 -30 10 -44v-44q0 -48 9 -127h-5q16 -38 35 -132l-5 -19q19 -42 19 -279v-19q0 -318 -49 -532l5 -20l-5 -9q8 -20 15 -20h10v10h10v-20q0 -9 -15 -9v-15q0 -49 20 -49l-5 -10v-14h9v-15q0 -22 10 -39q0 -28 -29 -63l-5 -10q-7 5 -24 5q-17 -11 -20 -25
q-54 -9 -54 -19v-15l15 -19v-10q-39 0 -39 24h-24v15h4v20q-29 23 -29 34q10 0 10 9l-10 5l5 49v34q0 10 5 20q-10 14 -20 117q7 105 15 146q-5 12 -5 15h5q0 5 -5 5q5 36 7.5 64t2.5 48l-10 20q6 258 15 312q-5 8 -5 19q15 0 15 210l-10 5q0 -21 -5 -29l5 -29
q0 -46 -44 -181q-14 -56 -39 -93q-15 -17 -20 -127q-5 0 -14 -19l5 -10q-10 -49 -25 -49h-5v10q-12 0 -19 -39h-5l-10 5l15 49h-15q-7 -31 -10.5 -49t-3.5 -24l19 14v-10q-44 -90 -44 -112v-5l20 15v-10q-8 -11 -16.5 -32t-18.5 -51v-19q64 79 64 132q10 0 10 19h5
q9 0 9 -15l-19 -58l5 -10q-23 -80 -39 -98l5 -9v-5h-10v-10l10 5l4 -10q-9 -18 -9 -39q5 0 5 -5q-7 0 -20 -34h15q0 -11 -5 -19q0 -5 5 -5l-5 -34v-49q0 -10 -10 -10l5 -10q-7 -19 -15 -19h-5v14h-5q0 -17 -29 -34q-10 -21 -10 -34h-4l-20 15q0 -10 -10 -10v10l-24 -5
q-3 12 -78 39q-34 12 -34 151q5 0 5 5h-10v5l5 10l-10 5l5 9v5h-10v34h-10v15l5 10q-19 0 -19 39q9 0 9 10q-28 106 -44 107l5 10q0 21 -14 44q0 4 5 4q-13 75 -30 98q-11 46 -15.5 72.5t-6.5 39.5t-5 16.5t-12 3.5q-12 -5 -14 -5l-5 10q19 45 19 58h-5l-9 -5v10l4 25
q-7 0 -19 9q-8 -44 -34 -44v10h-5v-5q5 -8 5 -19l14 9q9 -4 15 -4l-5 -25q0 -11 5 -19q-5 -12 -5 -15h-5q-3 49 -24 49v-5q10 -49 19 -59l-9 -24q14 -42 14 -54h10v20h10v-15h5l14 10q10 -1 10 -10q-17 -83 -34 -83v-24h5l14 10q0 -5 5 -5q0 5 5 5v-5q-4 -18 -9 -31.5
t-10 -22.5q9 0 9 -15q0 -20 -9 -44l5 -9q-4 -34 -10 -34l10 -20q-5 0 -5 -5q9 -2 9 -10l-4 -9l4 -30l-4 -9l4 -10l-9 -29l5 -30q-13 -97 -20 -97l5 -10l-5 -29q5 -10 5 -20l-29 5q-41 -59 -49 -59q-18 5 -20 5q-36 -25 -44 -29q-43 22 -43 73v5h-5q0 -11 -5 -19l5 -30
q0 -9 -10 -9h-5q-10 0 -10 9v10q0 10 5 20l-10 24l5 10q-5 12 -5 14q0 10 10 30q-5 44 -15 44l10 29h-10v5q0 13 10 29q-5 12 -5 15h-24l-5 24h5q10 0 10 -19q9 0 19 34h-10q0 41 -14 58q0 10 14 10v10q-19 0 -19 10v4h10v10q-3 0 -15 5q5 8 5 29q19 -7 19 -19h5v5l-5 9v15
h-9l9 15q-19 0 -19 14l10 15q-7 0 -20 24q34 13 34 20t-14 15q-5 0 -5 -5l-10 5l-15 -10h-4v5q4 8 4 14l10 -5h5q0 9 10 25v15h14q-9 12 -9 19q0 27 9 59q-9 0 -9 9v30q0 5 5 5q-5 14 -10 14q5 8 5 29h5l9 -4v19l-9 15h4l10 -5v14q-19 0 -19 25l9 5q0 -5 5 -5v5l-9 14v5
l4 10q-9 0 -9 10v29l-5 29q4 25 10 25q0 5 -5 5l5 29l-10 15l10 14v5l-5 10l-10 -5h-10q-10 0 -10 10l20 14q1 -9 10 -9v14q0 10 -15 10l15 59l-5 9l5 10q0 5 -5 5l5 24v10q-9 0 -20 29v15h5q10 0 10 -15h5q0 16 2.5 21.5t6 8.5t8 9t7.5 25q-10 0 -10 14q0 5 5 5l-5 30l5 39
h-5v-15h-5q-9 0 -9 15h-5q0 -49 -10 -49q0 5 -5 5l-5 -10l5 -10l10 5h5v-15l-10 -14q10 -1 10 -10v-5q0 -5 -5 -5l5 -9v-5h-5q-11 0 -24 73l9 5l-5 24v29q-126 40 -126 98v5q1 10 48 39h25q41 -29 83 -29v5q0 10 -20 73l10 5q12 -5 15 -5v5q-10 19 -10 29zM336 1331h5
q10 -1 10 -9l-10 -5h-5v14zM239 1273v-5h9v5h-9zM234 1239v-5h10v14q-10 -1 -10 -9zM1024 1195q6 -92 15 -137h-10l10 -15q-5 -10 -5 -14l24 -15q-7 -19 -14 -19l5 -10l-5 -44q19 7 19 15v48l5 49q-14 0 -14 103q-10 0 -10 9q6 0 29 39v5q0 8 -19 20q-30 0 -30 -34z
M204 1204l-4 -24q1 -10 9 -10h5l-5 34h-5zM248 1204v-9h5v9h-5zM248 1185v-10h10v10h-10zM170 1161q5 -12 5 -15h5v15h-10zM268 1156v-5q1 -35 15 -49q-10 -16 -10 -29q1 -10 10 -10q0 -5 -5 -5q9 -38 9 -49h-14q-10 0 -10 10q-24 -6 -24 -15q5 0 5 -4l9 4h10v-24l-5 -10
q10 -1 10 -10l-5 -24l3.5 -18t1.5 -16l24 5q0 -5 5 -5v10l-14 19q4 15 9 15q-3 10 -9 54l9 4q1 -9 10 -9h10v14q-20 26 -20 73q5 12 5 15h-10v25q-13 34 -19 34zM175 1141v-10h5v10h-5zM224 1107l10 -5h5v20q-8 0 -15 -15zM424 1102v-10h10v10h-10zM195 1102h9v-5h-9v5z
M239 1073q1 -10 9 -10h5v10h-14zM444 1058v-5h9v5h-9zM239 1034v-10h14v10h-14zM165 1034h10v-10h-10v10zM219 1024l-5 -10v-14h5q0 9 10 9v5q0 10 -10 10zM214 990v-10h5v10h-5zM244 990q1 -10 9 -10v10h-9zM302 956l10 -5h5q0 14 9 14q-4 9 -4 15q-20 -5 -20 -24zM395 975
v-24h14l-4 24h-10zM439 975v-19l9 -5v5q-4 7 -4 19h-5zM209 970v-78l-5 -29q5 -10 5 -20h10q0 10 5 10l-5 25v19l5 34l-10 5l5 10v24h-10zM326 936q0 -6 -4 -15l9 -4v19h-5zM244 931v-10h9v10h-9zM448 926v5l10 -10v5h-10zM278 897v-15h9v15h-9zM307 897l-10 -15q5 0 25 -24
q-5 -10 -5 -20h5q9 0 9 10v15q0 8 -19 15l5 9q0 10 -10 10zM278 873q5 -35 14 -35h5v15l-5 25h-5zM165 878h5v-10h-5v10zM370 853q15 -68 25 -68q-5 -12 -5 -15h-5l-10 5q0 -24 -14 -24q-9 34 -20 34q9 -73 25 -73h4l-4 39q6 0 14 -15v-5q0 -5 -5 -5q15 -74 15 -97
q10 0 15 24q-4 67 -20 112q11 0 15 25q0 6 -20 63h-10zM209 829h10v9q-10 -1 -10 -9zM180 814h10v-10h-10v10zM209 795v-15q10 0 10 10zM248 785v-10h5v10h-5zM209 775q0 -17 -5 -39h10q0 3 5 15q-5 8 -5 24h-5zM307 760q5 -10 5 -14h5v19zM263 760v-4h10v4h-10zM248 756
q5 -12 5 -15h5v10zM268 751v-10h5v10h-5zM244 721v-19h9q-5 8 -5 19h-4zM326 716q-4 -8 -4 -14q4 -9 4 -15h5l5 25zM273 707q0 -3 -5 -15l10 -5v20h-5zM209 702v-10h5v10h-5zM239 687q1 -10 9 -10v10h-9zM209 677v-9h5v9h-5zM244 673v-10h4v10h-4zM356 668q-5 -28 -5 -30v-4
h5q1 19 14 19q-4 9 -4 15h-10zM165 668h5q12 -5 15 -5v-10q-18 -5 -20 -5v20zM268 663q1 -10 10 -10v10h-10zM273 648v-10h5v10h-5zM370 648v-24q10 0 10 10q-5 10 -5 14h-5zM165 638h10q10 -1 10 -9q0 -10 -10 -10t-10 10v9zM268 629v-5h10v5h-10zM405 624v-5h9v5h-9z
M356 599h10v10q-10 -1 -10 -10zM175 594l10 -14v-10q-10 0 -20 -5l-4 10q9 0 9 10q-5 0 -5 5zM244 585v-10h9v10h-9zM268 565v-14h10l-5 9q5 12 5 15q-10 -1 -10 -10zM463 575v-15h5v15h-5zM170 555h5q-5 -10 -5 -14q-9 0 -9 10zM234 546q1 -10 10 -10h4v10h-14zM209 531h10
v10q-10 -1 -10 -10zM268 536v-10h5v10h-5zM170 531l5 5l7.5 -7.5t2.5 -7.5q-10 -11 -10 -24h-5q0 7 -9 19q9 0 9 15zM273 512v-15h5v15h-5zM419 512h10v-5h-10v5zM912 497v10l10 -20v20q-10 -1 -10 -10zM170 497q0 -15 10 -15v-14h-5q-9 4 -14 4v15q1 10 9 10zM244 492v-5
q1 -10 9 -10h5v10q-4 0 -14 5zM229 482v-14h5v14h-5zM263 472q5 -10 5 -14h5v14h-10zM366 468v-30h9v20q0 10 -9 10zM239 458v-5h9v5h-9zM175 443h10v-14h-10v14zM161 404h19v-10q-15 -4 -19 -4v14zM248 390v-10h10q0 10 -10 10zM170 380h5v-5q-8 -20 -14 -20v15q1 10 9 10z
M244 365v-5h9v5h-9zM195 360v-10h5v10h-5zM902 316q0 -5 5 -5q-7 -19 -14 -19v15q1 9 9 9zM200 302v-10h4v10h-4zM248 292v-10h5v10h-5zM200 282q1 -10 9 -10v10h-9zM165 277q0 -11 5 -19l-9 -5l-5 10v5q1 9 9 9zM239 253v-10h5v10h-5zM161 248q9 -2 9 -10v-14q0 -10 -9 -10
l-5 10zM219 228q1 -9 10 -9v9h-10zM234 219l5 -30h5v35zM190 214v-10h5v10h-5zM209 204q0 -3 -5 -15l10 -4q10 0 10 9v10h-15zM239 170v-10h9v20q-9 -2 -9 -10zM165 175l-4 -29h-10v14q0 7 14 15zM209 155v-9h15v4q-3 0 -15 5zM180 150h10v-19h-10v19zM234 136l5 -25
q9 0 9 10h-9v5l5 10h-10zM214 126v-5q1 -10 10 -10v15h-10zM234 102l-5 -20l10 -5q0 15 5 25h-10zM195 92q9 -2 9 -10h-9v10zM146 87h10v-5h-10v5zM829 82h-5l10 -29h5q0 14 5 14q-5 12 -5 15h-10zM234 72q0 -19 -10 -19q5 -10 5 -20h5q10 36 10 39h-10zM146 72h10v-5h-10v5
zM175 28h5q10 -1 10 -9v-5h-5q-10 0 -10 10v4zM229 14v-15q5 -12 5 -15h5v5q-5 10 -5 25h-5zM151 9l5 -10v-5h-5q-10 0 -10 10zM185 -1h5l-5 -10q5 0 5 -5l-10 -4l-5 9q1 10 10 10zM244 -35v-24h4v24h-4zM185 -45l5 -10h-15q1 10 10 10zM195 -74h9v-5h-9v5zM1044 -118v39
l5 -49v10h-5zM190 -123l10 5v-15h-10v10zM170 -138h10l-5 -24q0 -8 10 -24q-6 -25 -15 -25h-5v10l5 10h-5q5 12 5 14l-5 20q5 8 5 19zM839 -162h5v-10h-5v10zM200 -177l4 5q10 -9 10 -14v-5h-14v14zM229 -191l5 -10h-5l5 -10v-24h-10v10h-5v-10h-5v15q10 0 10 9h-10v15
q3 0 15 5zM741 -196v-5q0 -10 -9 -10h-5q0 7 14 15z" />
    <glyph glyph-name="n" unicode="n" horiz-adv-x="879" 
d="M111 1473l63 -59h10l14 10h15q12 0 24 -44h-4q0 -16 39 -44l43 -73q-5 -15 -9 -15q5 -17 17.5 -37.5t31.5 -45.5l4 -19h-9v-10q9 -12 24 -68h5v10h10v-10q0 -10 -10 -10q12 -91 78 -205h-5q34 -62 78 -195q34 -50 49 -146q12 0 15 -20q-5 -12 -5 -15q7 0 24 -29l-5 -10
q10 0 25 -53q14 0 14 -20l10 5q-10 19 -10 34l10 -5q5 57 7.5 137t2.5 185v10l-34 156h5q-11 30 -15 93q5 12 5 15q-15 0 -15 68q0 29 15 29v15q0 11 5 19q0 15 -15 15v34q0 5 5 5q0 5 -5 5q0 3 5 15q-6 79 -10 83q17 68 29 68h15q0 22 10 39q-5 8 -5 19q5 12 5 15h10l9 -5
q0 6 25 25l10 -5v14h14v-5q-5 -10 -5 -14q10 -1 10 -10v-24q34 -13 34 -25q-5 0 -9.5 -4.5t-4.5 -14.5q0 -20 9 -59q-9 -2 -9 -10v-102l-5 -29q5 -10 5 -25h-5l5 -9v-40q0 -10 1 -23t3 -30l-4 -10l4 -29v-15q0 -12 -4 -19l4 -10q0 -5 -4 -5l4 -24v-20l-9 -15q9 -2 9 -9v-161
q0 -10 -9 -10h-5v14h-5v-53h5v10h10l4 -35v-24q0 -13 -9 -29q14 0 14 -108l-5 -29q5 -28 5 -49v-44q0 -11 5 -19q-8 -20 -14 -20l14 -88h-5l5 -9q0 -5 -5 -5l5 -34v-34q1 -10 10 -10l5 63h5q4 0 6.5 -12.5t4.5 -31t3.5 -39.5t4.5 -39q-10 0 -10 -14q16 -69 25 -69l-5 -10v-4
q12 0 34 -64h5l-5 -10l5 -34h-5q-4 0 -14 15l-10 -5q-10 5 -20 5v-44h-5l-14 10h-10q-10 0 -10 -15q5 -12 5 -15h-5l-10 5l-4 -9l9 -20q0 -17 -53 -34v-5h-10q0 5 5 5q-10 19 -10 29h-10v-19h-5q-22 7 -39 73v5h5q-5 8 -5 24h-9v-10h-10l5 39q0 7 -21 61.5l-62 158.5
q-19 48 -33.5 79t-25.5 48v5l5 10q-8 0 -63 126q-124 192 -171 322h-10v-4q0 -8 1.5 -19l3.5 -25l-5 -10q10 -36 10 -44h-5l5 -10l-5 -10q0 -9 5 -9l-5 -25q2 -45 3.5 -85.5t1.5 -75.5q0 -11 -5 -19q0 -5 5 -5l-10 -93q6 -143 15 -171q-10 -40 -10 -68q0 -29 15 -132v-29
q-11 -20 -15 -20q-34 4 -34 30q5 12 5 14l-10 5l-5 -24h5l-5 -10v-5l5 -10l-15 -9q-29 0 -58 146l5 10q-10 17 -10 39v156q0 16 5 24l-5 30v73q0 8 1.5 19l3.5 25q0 5 -5 5q0 4 5 14l-3.5 93t-1.5 73v30l-5 29q0 5 5 5l-5 34v112q0 35 1.5 82.5l3.5 107.5l-5 10q0 5 5 5
q0 3 -5 15q0 12 5 34q0 227 -39 278l-69 54h-4v5l9 14l10 -5l34 10q0 5 -39 44v5h10l10 -5q0 20 29 20v4l-10 15q16 10 30 10zM111 1448v-9q0 -6 34 -25v5q0 8 -30 29h-4zM701 1424q3 0 15 -5l5 10l-10 5q-10 -1 -10 -10zM67 1419v-5h9v5h-9zM745 1419h10v-10h-10v10z
M711 1405v-10h5v10h-5zM223 1302l3.5 -49.5t1.5 -33.5v-5q19 0 19 -10v-4l-10 -15q26 -26 44 -98q10 -1 10 -9v-5l-5 -10q11 0 15 -34h5v19q-9 15 -44 161l5 20l-34 73h-10zM735 1297v5l5 -15v10h-5zM325 1283l10 14v-34q-10 0 -10 10v10zM740 1219v-10h5v10h-5zM745 1200
l-5 -20v-29h5q0 13 1.5 23.5t3.5 20.5v5h-5zM281 1195v5q5 -16 10 -34t10 -44h5l5 34q-26 39 -30 39zM247 1126q15 -47 15 -48q-5 0 -5 -5q5 0 5 -5q-10 0 -10 -5q0 -44 15 -63q-10 -1 -10 -10q2 -14 3.5 -23.5t1.5 -15.5q0 -3 -5 -15l5 -10q-4 -19 -10 -19l5 -25l-5 -34
l3.5 -18t1.5 -16q0 -3 -5 -15q4 -48 15 -48v9q-2 18 -3.5 27.5t-1.5 11.5l10 5q8 -54 156 -283q32 -44 39 -44h5v5q0 14 -10 30q5 8 5 19q-19 4 -39 49v10h5q10 -5 14 -5v14l-5 10l-9 -5q-10 0 -35 54h5l-5 10v5q14 0 30 -49h5v5q-30 58 -30 68h-5v-5q5 -12 5 -15h-9
q-26 44 -39 79l4 9v15q5 0 5 5q0 2 -9 34h-5v-10q5 -12 5 -14l-10 -5q-20 29 -20 48q5 0 5 5q-10 0 -10 10h5q-10 39 -29 59v19h5q10 -1 10 -10v-4l-5 -10q4 0 14 -5v5q0 3 -24 83h-5v-5l15 -44h-10q-22 45 -34 102l10 5q0 -5 4 -5v15q-12 12 -19 68h-10zM306 1117v-15h5v15
h-5zM716 1112v5q0 -10 1.5 -15t3.5 -10l-5 -29q1 -10 9 -10v59h-9zM740 1112v-54h5v54h-5zM315 1082l5 -29h5l5 20zM657 1063v10q1 -17 3 -21t7 -4v15h-10zM681 1058l5 -34h-5l5 -10v-24q0 -15 -5 -25l5 -29v-88h5q0 30 10 39q-10 11 -10 20q10 16 10 24q-10 0 -10 10v93
l-5 24h-5zM325 1043v15q2 -19 3.5 -26.5t1.5 -12.5h5v10q-5 12 -5 14h-5zM657 1043l-5 -24q0 -11 5 -19q0 -5 -5 -5q5 -32 7.5 -51.5t2.5 -26.5h5q0 9 5 9q-6 68 -10 78q5 12 5 15l-5 24h-5zM276 1034v9l5 -19v10h-5zM725 1029q0 -29 -9 -29q5 -12 5 -15h4q0 13 10 29l10 -5
h5v10q-9 0 -20 10h-5zM281 1019v-5q5 -8 5 -19h5v9q-5 12 -5 15h-5zM315 1000v-20h5v20h-5zM345 985v-10h5v10h-5zM721 980q0 -10 -5 -10q5 -18 5 -49l9 5q-5 22 -5 54h-4zM701 975v-24h5v24h-5zM350 970v5l5 -15v10h-5zM745 965v5l5 -14v9h-5zM745 951v-15h5v15h-5z
M725 902v-59h5q0 39 10 39q1 -9 10 -9v9q-20 14 -20 20h-5zM320 897v-5q20 -45 20 -58h5v9q-20 51 -20 54h-5zM374 892v-10h5v10h-5zM701 848v-10h5v10h-5zM745 848v-44h5v44h-5zM686 843v-39h5v39h-5zM428 838v-14h5v14h-5zM413 795v-20h5v20h-5zM452 770q0 -11 25 -54h4v5
q-19 39 -19 49h-10zM374 756v-15l10 -5v5q-5 12 -5 15h-5zM735 751q5 -12 5 -15h5v20zM384 731v-5q5 -12 5 -14h5v4q-5 12 -5 15h-5zM437 731v-10h5v10h-5zM281 697v-10h5v10h-5zM725 687v-24h5v24h-5zM730 629v-5q0 -8 15 -15h5q-5 22 -5 34q-7 0 -15 -14zM540 497v-10h5
v10h-5zM520 482v-10q5 -10 5 -14h5v5q-5 8 -5 19h-5zM496 477v-9h5v9h-5zM477 463v-10q9 -12 9 -20h10l-5 30h-14zM564 443v-5q10 -16 10 -24h5v5q-10 16 -10 24h-5zM628 443h10v-10h-10v10zM545 429v-5q10 -16 10 -30h4v10q-9 16 -9 25h-5zM579 409v-10h5v10h-5zM228 399
v-14h5v14h-5zM574 355v-9h5v9h-5zM150 -11v-5h9v5h-9zM818 -79v-15h5v15h-5z" />
    <glyph glyph-name="o" unicode="o" horiz-adv-x="796" 
d="M401 1366v-5q5 0 5 5q164 0 297 -235q0 -7 25 -73h-5q39 -218 54 -249l-10 -5l10 -58q0 -3 -5 -15q2 -78 5 -129t5 -76q-48 -439 -83 -439q0 -39 -20 -39v-10l5 -10l-10 -4q0 4 -5 4q0 -38 -78 -102l-10 5q-51 -69 -92 -69v5l-10 -5l-59 5v-5q20 -22 20 -24v-15
q-8 -29 -122 -63h-44q-78 0 -181 151q-53 85 -53 274v14q0 67 44 278q0 25 8.5 90.5t25.5 173.5v19q-14 45 -23 84t-11 73q53 162 53 185h5l10 -5q0 29 15 29v35q0 80 156 190q67 15 78 15zM230 1000q5 0 5 -5q-13 0 -20 -39q5 -12 5 -15q-8 0 -19 -29q14 0 14 -10t-9 -10
l-10 5v-19h10v-93q14 0 14 -10l-9 -5q0 5 -5 5v-44q14 0 14 -10q-10 -11 -14 -53l9 -30q-13 -29 -24 -68q0 -5 5 -5l-5 -29l5 -10h-10v-10q0 -9 20 -9q-30 -21 -30 -54q5 -10 5 -24l-9 -5l4 -10q0 -5 -4 -5q0 -5 4 -5l-4 -24l4 -20h-9v-5q1 -9 9 -9q-5 -34 -9 -44
q5 -12 5 -15q-10 -1 -10 -10q5 -8 5 -19q14 0 14 29h10q0 -19 10 -19t10 14h14v-34h-10q-24 0 -24 20q-17 -8 -34 -44v-10q1 -10 10 -10v15h5q4 -23 4 -30h-4l-10 5v-9q5 -12 5 -15h5v10h4q0 -10 10 -44h-5q35 -153 78 -181q65 -58 93 -58q32 37 67.5 65t74.5 47
q60 64 122 205l-5 10l9 24q-9 0 -9 10q6 0 19 34h-5l5 10v14h-10l5 25q-10 0 -14 34h5l-5 10l5 9l-5 25q19 7 19 14q0 10 -10 10q0 -5 -4 -5l-5 10h29q10 -1 10 -10q-14 -24 -25 -24l5 -10q-5 -14 -10 -14q5 -20 15 -35q-10 -1 -10 -9l10 -5h5q15 49 15 112q-20 0 -20 39h5
q10 -1 10 -10v-5l-5 -9h5q10 0 10 9v25h4v10h-4l-15 -10h-5v5q0 5 5 5l-5 9v5h15v5q-26 0 -30 15v29h10v-24h15q0 24 5 24l-5 10v14q12 0 14 20q-7 0 -14 15v4h5l9 -4v14l-29 5v5q1 10 10 10h5v-10h10q9 0 9 10q0 11 -5 19l5 10q-9 51 -9 54q4 7 4 19q-9 0 -9 10q9 0 9 15
q-45 317 -92 317l5 10q0 9 -10 9q0 -5 -5 -5q0 7 -20 35l-9 -5q-7 11 -21.5 24t-37.5 29q-12 -5 -15 -5q0 10 -9 10h-20q-51 0 -136 -83zM513 1161q25 -60 34 -122v-10q-2 0 -8 18.5l-13.5 41.5l-14 43t-8.5 24zM538 1141q9 -2 9 -10q0 -9 -9 -9v19zM508 1126v-9l-19 -5
q0 7 19 14zM542 1112h10v-5h-10v5zM518 1107v-10h-10q1 10 10 10zM547 1102q7 0 15 -15l-5 -9l10 -5q-5 -12 -5 -15h-10q0 10 -5 20l5 9q-5 12 -5 15zM494 1092h9v-5h-9v5zM586 1078h10v-10h-10v10zM289 1068h9v-10h-9v10zM523 1063l10 -5q0 -5 -10 -5v10zM596 1058
q20 -18 20 -44h-10q0 6 -20 20v5l5 9q-5 0 -5 5zM562 1043h10q0 -11 14 -34v-5h-9q0 8 -15 25v14zM547 1029q10 -1 10 -10h-10v10zM538 1009l9 -5q0 5 5 5q29 -69 29 -127q-9 0 -34 118h-9v9zM606 990h5q12 0 14 -44h-9q-2 17 -5 28t-5 16zM254 985q10 -1 10 -10l-10 -5h-9
v5q1 10 9 10zM586 985q10 -1 10 -10q0 -10 -10 -10h-9v10q1 10 9 10zM274 980l5 -10l-10 -5l-5 10zM591 946h10v-5h-10v5zM625 936h10v-5h-10v5zM240 931h10v-5q0 -9 -10 -9v14zM557 917v-10h-10q1 10 10 10zM235 907h10q-5 -22 -5 -34h-10zM611 897q0 -5 5 -5
q-5 -12 -5 -14q-10 0 -10 9q1 10 10 10zM630 892h10v-10h-10v10zM552 887h10v-5h-10v5zM542 882q10 -1 10 -9v-10h-10v19zM245 868l9 -5h-9v5zM581 858l10 5q0 -9 2.5 -12t7.5 -3q0 -10 -10 -10h-10v20zM635 858h10v-10q-10 0 -10 10zM567 853v-5q0 -10 -10 -10h-5v10
q3 0 15 5zM606 853h5v-10h-5v10zM230 848l5 -5l-5 -19h-10v14q1 10 10 10zM650 824v-15h-10v5q1 10 10 10zM620 809l15 -19v-10h-10q0 7 -14 24zM601 804v-14h-10v5q1 9 10 9zM240 799q0 -4 5 -4l-5 -10v-25h-10v30q1 9 10 9zM611 785h9q0 -10 -9 -10v10zM635 775v-5
q0 -5 -5 -5l20 -24v-5l-10 5l-15 -10h-5l5 25l-24 -5v14q20 0 34 10zM562 765h10v-9h-10v9zM225 751l10 5v-20h-10v15zM567 736h10v-5h-10v5zM581 736h10v-20q0 -6 -14 -14q4 17 4 34zM601 736h10v-20h-10v20zM225 721l10 -5h-10v5zM630 721q12 -14 20 -14v-10h-10
q-7 0 -20 19zM616 707h4v-10h-4v10zM230 702l5 -5l-5 -29q-10 0 -10 9v15q1 10 10 10zM586 697h10v-10h-10v10zM635 692q0 -5 5 -5q-11 -23 -20 -24h-4v5q13 24 19 24zM645 682h10v-9h-10v9zM586 648h10v-34h-10v34zM620 643h10v-9h-10v9zM620 619h5q10 -1 10 -10
q0 -10 -10 -10l-5 10v10zM220 614l10 -5h-10v5zM591 599l10 10l9 -15t6 -19l-10 -5l5 -10q0 -5 -5 -5l5 -9q0 -10 -10 -10q-10 27 -10 63zM215 594h10v-19h-10v19zM664 560v-19h5v19h-5zM211 536l9 24v-34h-9v10zM601 526h5q14 0 14 -54l-9 -4q0 37 -10 58zM211 512h14v-5
q0 -3 -5 -15l5 -29l-10 -5h-4v14q0 5 4 5l-4 10v25zM196 409h10v-19h-10v19zM215 394h5v-73h-9v5q0 5 4 5l-4 24v15zM186 365h5q10 -1 10 -10h-15v10zM191 331h10v-10q-10 0 -10 10zM616 311h4q0 -2 5 -14h-9v14zM191 233l5 -9v-10q0 -10 -10 -10q0 5 -5 5l5 10l-5 9z
M581 233l10 -5v-4h-10v9zM186 194h10v-9h-10v9zM225 185l10 -15v-5q-10 -11 -10 -19h-5q-5 0 -5 4l-9 -4h-5v9q4 0 24 30zM206 126h9v-5h-9v5z" />
    <glyph glyph-name="p" unicode="p" horiz-adv-x="692" 
d="M77 1432l33 -5q16 0 49.5 1.5t87.5 3.5v-5l11 5q192 0 281 -132q121 -121 121 -259q6 -20 11 -20l-6 -24l6 -30q-4 -19 -11 -19l5 -34v-25q0 -5 -5 -5l5 -9q-19 -166 -38 -166l6 -10q0 -47 -67 -138q-28 -31 -47 -49.5t-33.5 -29.5t-25.5 -17.5t-21.5 -14t-22 -19
t-26.5 -31.5l-32 -9q0 -10 5 -20l-11 -24l-27 4q-9 -4 -17 -4q0 9 -11 9h-6q6 -57 6 -83v-117q0 -12 17 -44q-6 -9 -6 -14l11 -20q0 -24 -17 -24v-16l12 6h5v-20q0 -7 -28 -25l11 -54q-20 -5 -27 -39q4 -50 22 -63q-11 -20 -17 -20l6 -9v-10q-21 -15 -29.5 -24t-12 -13.5
t-5 -5.5t-8.5 -1q-14 2 -39 34q6 0 6 5q-19 22 -50 39l-10 -5h-34q-54 33 -54 54q5 100 7.5 160t2.5 80h6q0 5 -6 5l6 24v327q0 31 11 158.5t33 355.5q0 43 1.5 86.5t3.5 89.5q-19 126 -65 161v10q0 22 10 39q-10 0 -10 10q1 10 10 10h50v9q-50 5 -50 15q17 0 17 5z
M346 1398v-5h12v5h-12zM187 1383l11 -14q5 0 22 4q66 -9 71 -9l11 5q12 -5 23 -5l33 5v9h-29v-5h-4q0 20 -50 20q-29 0 -88 -10zM407 1373v-4q14 -26 50 -49h5v5q0 9 -55 48zM369 1369l-6 -10l39 -20h5v5q0 7 -38 25zM280 1339h-49v-5q13 -10 27 -58l-5 -25q8 0 27 -34
l-5 -24q22 -44 22 -89l11 5v-5q-6 -11 -6 -15l6 -9q-6 -11 -6 -15q0 -5 6 -15l-6 -29h12q0 -34 -12 -34l6 -10q0 -5 -6 -5q4 -6 12 -68h-6q7 -13 11 -49q-11 -2 -11 -10v-9q0 -5 6 -5l-6 -10v-15l6 -34q-12 -2 -12 -10v-44q0 -12 6 -19q-11 -17 -11 -29l11 5l6 -10l-12 -5
q0 5 -5 5v-20h11v-9q0 -10 -17 -10v-35l11 4q11 -4 17 -4v-5h-28q0 -5 6 -5l-6 -10v-24h11v9l-5 10h11v-24h17v10l10 -5l11 5q1 -10 12 -10v10h11q0 -15 4 -15q76 0 138 128q25 112 44 112l-5 10q5 32 10.5 85.5t11.5 129.5q-21 158 -66 205q-85 99 -116 118q-48 19 -61 19
v-5q0 -10 23 -10v-19h-11v10h-6l-10 -5q-6 7 -6 29h-11q0 -15 -11 -15h-6v15zM270 1329l10 -14h-10q-12 0 -12 10zM478 1310l-5 -10l11 -5h5v5q0 10 -11 10zM329 1310h6q0 -10 17 -10v-10l-27 -4l-6 9v5q1 10 10 10zM501 1286v-10h5v10h-5zM329 1281l6 5v-15q0 -5 -6 -5
l6 -10v-83q11 0 11 20h17q10 -1 10 -10v-5h-4q-12 5 -17 5l6 -10l-12 -14q5 0 17 -5l-5 -11v-5l11 5h4l6 -19l-6 -10q6 -9 6 -20v-5h-10v35q-23 0 -23 24h-11v-15h-10v79l-6 49h6l-6 10q1 10 10 10zM363 1266h10v-15q0 -4 -4 -4l4 -10v-15h-4q-11 0 -11 10zM280 1237h11v-10
h-11v10zM352 1222q21 -8 21 -15v-9h-4q-10 0 -23 19q6 0 6 5zM308 1159l6 -11v-5h-6q-11 0 -11 11zM335 1119q28 -13 28 -20v-5q-28 -1 -28 -14v-5h11v-30q0 -4 -5 -4l5 -10v-20q0 -9 -11 -9l-10 4l4 20l-4 58l4 10q-4 8 -4 20zM369 1011h10v-5h-10v5zM363 982h10v-10h-10
v10zM325 977h4q9 0 17 -15l-17 -9zM352 962h17v-14h-6q-11 0 -11 10v4zM358 933h5v-10h-5v10zM329 923h12v-9h-12v9zM379 919v-5l-6 -10q-12 5 -15 5v5q-1 0 21 5zM335 909q6 -25 28 -25v-9l-28 -5l11 -15q-5 -29 -17 -29h-4v5q0 8 1 19t3 25q-4 8 -4 14h4l-4 10q1 10 10 10
zM352 904h11v-10h-11v10zM369 865v-20q0 -9 -11 -9h-6q6 29 17 29zM363 826h6q10 -1 10 -10q-16 -12 -16 -19h-11v4q0 5 6 5l-6 10q1 10 11 10zM325 792q8 0 16 -20q17 10 28 10v-5l-6 -10q10 -1 10 -9q-12 -5 -15 -5v-5q15 0 15 -10h-27q-5 -24 -17 -24l-4 19h4l-10 20
q6 25 6 39zM545 748v-5h10v5h-10zM533 718v-4h12v4h-12zM325 714l4 4q0 -9 6 -19l11 5h6v-10q-16 0 -33 -10q0 5 -5 5q11 17 11 25zM363 714h10v-25h-10v25zM325 684l16 -9q9 4 17 4l5 -9l-5 -25h11v-9h-23l6 29h-6q-10 -5 -21 -5l-6 10q6 9 6 14zM329 645l12 -5l-6 -24v-25
h-10q0 8 -23 20q0 10 23 10v10l-6 9zM358 626h11v-15h-11v15zM358 586h11v-15h-11v15zM329 576h12v-5h-12v5zM314 571h11v-10h-11v10zM473 493v-10h5v10h-5zM325 -20h10v-25q0 -10 -10 -10v35zM341 -128h11v-14h-11v14z" />
    </font>
</defs>
</svg>
